M48
;DRILL file {KiCad 5.0.2-bee76a0~70~ubuntu16.04.1} date sab 24 apr 2021 15:54:05 CEST
;FORMAT={-:-/ absolute / metric / decimal}
FMAT,2
METRIC,TZ
T1C0.400
T2C0.750
T3C0.762
T4C0.800
T5C1.000
T6C1.100
T7C1.300
T8C1.500
T9C2.000
T10C3.000
%
G90
G05
T1
X88.7Y-130.4
T2
X110.5Y-118.4
X111.77Y-119.67
X113.04Y-118.4
X98.48Y-129.5
X106.1Y-129.5
T3
X107.43Y-81.94
X107.43Y-84.48
X107.43Y-87.02
X107.43Y-89.56
X107.43Y-92.1
X107.43Y-94.64
X107.43Y-97.18
X107.43Y-99.72
X107.43Y-102.26
X107.43Y-104.8
T4
X125.09Y-60.81
X127.59Y-60.81
X124.42Y-129.56
X124.42Y-132.06
T5
X95.98Y-81.92
X95.98Y-84.46
X95.98Y-87.
X95.98Y-89.54
X95.98Y-92.08
X95.98Y-94.62
X95.98Y-97.16
X95.98Y-99.7
X95.98Y-102.24
X95.98Y-104.78
X98.52Y-81.92
X98.52Y-84.46
X98.52Y-87.
X98.52Y-89.54
X98.52Y-92.08
X98.52Y-94.62
X98.52Y-97.16
X98.52Y-99.7
X98.52Y-102.24
X98.52Y-104.78
X128.98Y-81.92
X128.98Y-84.46
X128.98Y-87.
X128.98Y-89.54
X128.98Y-92.08
X128.98Y-94.62
X128.98Y-97.16
X128.98Y-99.7
X128.98Y-102.24
X128.98Y-104.78
X131.52Y-81.92
X131.52Y-84.46
X131.52Y-87.
X131.52Y-89.54
X131.52Y-92.08
X131.52Y-94.62
X131.52Y-97.16
X131.52Y-99.7
X131.52Y-102.24
X131.52Y-104.78
X90.28Y-114.99
X90.28Y-117.53
X90.28Y-120.07
X137.28Y-114.91
X137.28Y-117.45
X137.28Y-119.99
X137.28Y-135.59
X137.28Y-138.13
X137.28Y-140.67
X111.2Y-129.68
X113.7Y-129.68
T6
X111.59Y-143.41
X114.13Y-143.41
X116.67Y-143.41
T7
X81.7Y-127.7
X81.7Y-139.9
X87.7Y-125.7
X93.7Y-127.7
X93.7Y-139.9
T8
X105.5Y-144.5
X123.3Y-144.5
T10
X118.93Y-83.04
X118.93Y-103.64
X88.54Y-57.91
X88.54Y-152.91
X138.54Y-57.91
X138.54Y-152.91
T4
X110.38Y-60.19G85X112.58Y-60.19
G05
X110.18Y-65.99G85X112.78Y-65.99
G05
X116.28Y-61.89G85X116.28Y-64.09
G05
T9
X143.98Y-88.865G85X140.98Y-88.865
G05
X143.255Y-96.912G85X143.255Y-93.912
G05
X85.98Y-88.865G85X82.98Y-88.865
G05
X85.255Y-96.912G85X85.255Y-93.912
G05
T10
X102.04Y-71.91G85X103.04Y-71.91
G05
X102.04Y-117.91G85X103.04Y-117.91
G05
X124.04Y-71.91G85X125.04Y-71.91
G05
X124.04Y-117.91G85X125.04Y-117.91
G05
T0
M30
