G04 #@! TF.GenerationSoftware,KiCad,Pcbnew,5.0.2-bee76a0~70~ubuntu16.04.1*
G04 #@! TF.CreationDate,2021-04-23T19:52:54+02:00*
G04 #@! TF.ProjectId,axis2,61786973-322e-46b6-9963-61645f706362,1.0*
G04 #@! TF.SameCoordinates,Original*
G04 #@! TF.FileFunction,Copper,L1,Top*
G04 #@! TF.FilePolarity,Positive*
%FSLAX46Y46*%
G04 Gerber Fmt 4.6, Leading zero omitted, Abs format (unit mm)*
G04 Created by KiCad (PCBNEW 5.0.2-bee76a0~70~ubuntu16.04.1) date ven 23 apr 2021 19:52:54 CEST*
%MOMM*%
%LPD*%
G01*
G04 APERTURE LIST*
G04 #@! TA.AperFunction,ComponentPad*
%ADD10C,3.000000*%
G04 #@! TD*
G04 #@! TA.AperFunction,ComponentPad*
%ADD11C,1.524000*%
G04 #@! TD*
G04 #@! TA.AperFunction,ComponentPad*
%ADD12R,5.500000X3.000000*%
G04 #@! TD*
G04 #@! TA.AperFunction,ComponentPad*
%ADD13R,3.000000X5.500000*%
G04 #@! TD*
G04 #@! TA.AperFunction,ComponentPad*
%ADD14R,4.400000X1.800000*%
G04 #@! TD*
G04 #@! TA.AperFunction,ComponentPad*
%ADD15O,4.000000X1.800000*%
G04 #@! TD*
G04 #@! TA.AperFunction,ComponentPad*
%ADD16O,1.800000X4.000000*%
G04 #@! TD*
G04 #@! TA.AperFunction,ComponentPad*
%ADD17R,1.700000X1.700000*%
G04 #@! TD*
G04 #@! TA.AperFunction,ComponentPad*
%ADD18O,1.700000X1.700000*%
G04 #@! TD*
G04 #@! TA.AperFunction,ComponentPad*
%ADD19R,1.905000X2.000000*%
G04 #@! TD*
G04 #@! TA.AperFunction,ComponentPad*
%ADD20O,1.905000X2.000000*%
G04 #@! TD*
G04 #@! TA.AperFunction,ComponentPad*
%ADD21C,1.600000*%
G04 #@! TD*
G04 #@! TA.AperFunction,ComponentPad*
%ADD22R,1.600000X1.600000*%
G04 #@! TD*
G04 #@! TA.AperFunction,Conductor*
%ADD23C,0.100000*%
G04 #@! TD*
G04 #@! TA.AperFunction,ComponentPad*
%ADD24C,1.700000*%
G04 #@! TD*
G04 #@! TA.AperFunction,ComponentPad*
%ADD25O,1.700000X2.000000*%
G04 #@! TD*
G04 #@! TA.AperFunction,ComponentPad*
%ADD26R,5.000000X5.000000*%
G04 #@! TD*
G04 #@! TA.AperFunction,ComponentPad*
%ADD27R,1.500000X1.500000*%
G04 #@! TD*
G04 #@! TA.AperFunction,ComponentPad*
%ADD28O,1.500000X1.500000*%
G04 #@! TD*
G04 #@! TA.AperFunction,ComponentPad*
%ADD29R,2.500000X2.500000*%
G04 #@! TD*
G04 #@! TA.AperFunction,ComponentPad*
%ADD30O,2.500000X2.500000*%
G04 #@! TD*
G04 #@! TA.AperFunction,ViaPad*
%ADD31C,0.800000*%
G04 #@! TD*
G04 #@! TA.AperFunction,Conductor*
%ADD32C,0.500000*%
G04 #@! TD*
G04 #@! TA.AperFunction,Conductor*
%ADD33C,0.250000*%
G04 #@! TD*
G04 APERTURE END LIST*
D10*
G04 #@! TO.P,U1,12*
G04 #@! TO.N,N/C*
X118930000Y-103640000D03*
G04 #@! TO.P,U1,11*
X118930000Y-83040000D03*
D11*
G04 #@! TO.P,U1,10*
G04 #@! TO.N,Net-(U1-Pad10)*
X107430000Y-104800000D03*
G04 #@! TO.P,U1,9*
G04 #@! TO.N,NCS*
X107430000Y-102260000D03*
G04 #@! TO.P,U1,8*
G04 #@! TO.N,INT*
X107430000Y-99720000D03*
G04 #@! TO.P,U1,7*
G04 #@! TO.N,MISO*
X107430000Y-97180000D03*
G04 #@! TO.P,U1,6*
G04 #@! TO.N,Net-(U1-Pad6)*
X107430000Y-94640000D03*
G04 #@! TO.P,U1,5*
G04 #@! TO.N,Net-(U1-Pad5)*
X107430000Y-92100000D03*
G04 #@! TO.P,U1,4*
G04 #@! TO.N,MOSI*
X107430000Y-89560000D03*
G04 #@! TO.P,U1,3*
G04 #@! TO.N,SCL*
X107430000Y-87020000D03*
G04 #@! TO.P,U1,2*
G04 #@! TO.N,GND*
X107430000Y-84480000D03*
G04 #@! TO.P,U1,1*
G04 #@! TO.N,+3V3*
X107430000Y-81940000D03*
G04 #@! TD*
D12*
G04 #@! TO.P,J6,1*
G04 #@! TO.N,+12VM*
X142480000Y-88865000D03*
D13*
G04 #@! TO.P,J6,2*
G04 #@! TO.N,GND*
X143255000Y-95412400D03*
G04 #@! TD*
D12*
G04 #@! TO.P,J5,1*
G04 #@! TO.N,+12VM*
X84480000Y-88865000D03*
D13*
G04 #@! TO.P,J5,2*
G04 #@! TO.N,GND*
X85255000Y-95412400D03*
G04 #@! TD*
D14*
G04 #@! TO.P,J4,1*
G04 #@! TO.N,+12V*
X111480000Y-65990000D03*
D15*
G04 #@! TO.P,J4,2*
G04 #@! TO.N,GND*
X111480000Y-60190000D03*
D16*
G04 #@! TO.P,J4,3*
G04 #@! TO.N,N/C*
X116280000Y-62990000D03*
G04 #@! TD*
D17*
G04 #@! TO.P,J1,1*
G04 #@! TO.N,+3V3*
X95980000Y-81920000D03*
D18*
G04 #@! TO.P,J1,2*
G04 #@! TO.N,Net-(J1-Pad2)*
X98520000Y-81920000D03*
G04 #@! TO.P,J1,3*
G04 #@! TO.N,Net-(J1-Pad3)*
X95980000Y-84460000D03*
G04 #@! TO.P,J1,4*
G04 #@! TO.N,Net-(J1-Pad4)*
X98520000Y-84460000D03*
G04 #@! TO.P,J1,5*
G04 #@! TO.N,Net-(J1-Pad5)*
X95980000Y-87000000D03*
G04 #@! TO.P,J1,6*
G04 #@! TO.N,Net-(J1-Pad6)*
X98520000Y-87000000D03*
G04 #@! TO.P,J1,7*
G04 #@! TO.N,GPIO32*
X95980000Y-89540000D03*
G04 #@! TO.P,J1,8*
G04 #@! TO.N,Net-(J1-Pad8)*
X98520000Y-89540000D03*
G04 #@! TO.P,J1,9*
G04 #@! TO.N,Net-(J1-Pad9)*
X95980000Y-92080000D03*
G04 #@! TO.P,J1,10*
G04 #@! TO.N,Net-(J1-Pad10)*
X98520000Y-92080000D03*
G04 #@! TO.P,J1,11*
G04 #@! TO.N,Net-(J1-Pad11)*
X95980000Y-94620000D03*
G04 #@! TO.P,J1,12*
G04 #@! TO.N,Net-(J1-Pad12)*
X98520000Y-94620000D03*
G04 #@! TO.P,J1,13*
G04 #@! TO.N,MISO*
X95980000Y-97160000D03*
G04 #@! TO.P,J1,14*
G04 #@! TO.N,SCL*
X98520000Y-97160000D03*
G04 #@! TO.P,J1,15*
G04 #@! TO.N,MOSI*
X95980000Y-99700000D03*
G04 #@! TO.P,J1,16*
G04 #@! TO.N,Net-(J1-Pad16)*
X98520000Y-99700000D03*
G04 #@! TO.P,J1,17*
G04 #@! TO.N,Net-(J1-Pad17)*
X95980000Y-102240000D03*
G04 #@! TO.P,J1,18*
G04 #@! TO.N,Net-(J1-Pad18)*
X98520000Y-102240000D03*
G04 #@! TO.P,J1,19*
G04 #@! TO.N,Net-(J1-Pad19)*
X95980000Y-104780000D03*
G04 #@! TO.P,J1,20*
G04 #@! TO.N,Net-(J1-Pad20)*
X98520000Y-104780000D03*
G04 #@! TD*
G04 #@! TO.P,J2,20*
G04 #@! TO.N,Net-(J2-Pad20)*
X131520000Y-104780000D03*
G04 #@! TO.P,J2,19*
G04 #@! TO.N,Net-(J2-Pad19)*
X128980000Y-104780000D03*
G04 #@! TO.P,J2,18*
G04 #@! TO.N,Net-(J2-Pad18)*
X131520000Y-102240000D03*
G04 #@! TO.P,J2,17*
G04 #@! TO.N,Net-(J2-Pad17)*
X128980000Y-102240000D03*
G04 #@! TO.P,J2,16*
G04 #@! TO.N,NCS*
X131520000Y-99700000D03*
G04 #@! TO.P,J2,15*
G04 #@! TO.N,INT*
X128980000Y-99700000D03*
G04 #@! TO.P,J2,14*
G04 #@! TO.N,Net-(J2-Pad14)*
X131520000Y-97160000D03*
G04 #@! TO.P,J2,13*
G04 #@! TO.N,Net-(J2-Pad13)*
X128980000Y-97160000D03*
G04 #@! TO.P,J2,12*
G04 #@! TO.N,GND*
X131520000Y-94620000D03*
G04 #@! TO.P,J2,11*
G04 #@! TO.N,Net-(J2-Pad11)*
X128980000Y-94620000D03*
G04 #@! TO.P,J2,10*
G04 #@! TO.N,Net-(J2-Pad10)*
X131520000Y-92080000D03*
G04 #@! TO.P,J2,9*
G04 #@! TO.N,M2S*
X128980000Y-92080000D03*
G04 #@! TO.P,J2,8*
G04 #@! TO.N,M1S*
X131520000Y-89540000D03*
G04 #@! TO.P,J2,7*
G04 #@! TO.N,Net-(J2-Pad7)*
X128980000Y-89540000D03*
G04 #@! TO.P,J2,6*
G04 #@! TO.N,Net-(J2-Pad6)*
X131520000Y-87000000D03*
G04 #@! TO.P,J2,5*
G04 #@! TO.N,Net-(J2-Pad5)*
X128980000Y-87000000D03*
G04 #@! TO.P,J2,4*
G04 #@! TO.N,Net-(J2-Pad4)*
X131520000Y-84460000D03*
G04 #@! TO.P,J2,3*
G04 #@! TO.N,Net-(J2-Pad3)*
X128980000Y-84460000D03*
G04 #@! TO.P,J2,2*
G04 #@! TO.N,RCS*
X131520000Y-81920000D03*
D17*
G04 #@! TO.P,J2,1*
G04 #@! TO.N,Net-(J2-Pad1)*
X128980000Y-81920000D03*
G04 #@! TD*
D19*
G04 #@! TO.P,U2,1*
G04 #@! TO.N,+12V*
X111590000Y-143410000D03*
D20*
G04 #@! TO.P,U2,2*
G04 #@! TO.N,GND*
X114130000Y-143410000D03*
G04 #@! TO.P,U2,3*
G04 #@! TO.N,+5V*
X116670000Y-143410000D03*
G04 #@! TD*
D21*
G04 #@! TO.P,C2,2*
G04 #@! TO.N,GND*
X124420000Y-129560000D03*
D22*
G04 #@! TO.P,C2,1*
G04 #@! TO.N,+5V*
X124420000Y-132060000D03*
G04 #@! TD*
G04 #@! TO.P,C1,1*
G04 #@! TO.N,+12V*
X127590000Y-60810000D03*
D21*
G04 #@! TO.P,C1,2*
G04 #@! TO.N,GND*
X125090000Y-60810000D03*
G04 #@! TD*
D17*
G04 #@! TO.P,J7,1*
G04 #@! TO.N,GND*
X90280000Y-114990000D03*
D18*
G04 #@! TO.P,J7,2*
G04 #@! TO.N,Net-(J7-Pad2)*
X90280000Y-117530000D03*
G04 #@! TO.P,J7,3*
G04 #@! TO.N,M1S*
X90280000Y-120070000D03*
G04 #@! TD*
G04 #@! TO.P,J8,3*
G04 #@! TO.N,M2S*
X137280000Y-114910000D03*
G04 #@! TO.P,J8,2*
G04 #@! TO.N,Net-(J8-Pad2)*
X137280000Y-117450000D03*
D17*
G04 #@! TO.P,J8,1*
G04 #@! TO.N,GND*
X137280000Y-119990000D03*
G04 #@! TD*
D23*
G04 #@! TO.N,+5V*
G04 #@! TO.C,J3*
G36*
X111824504Y-128681204D02*
X111848773Y-128684804D01*
X111872571Y-128690765D01*
X111895671Y-128699030D01*
X111917849Y-128709520D01*
X111938893Y-128722133D01*
X111958598Y-128736747D01*
X111976777Y-128753223D01*
X111993253Y-128771402D01*
X112007867Y-128791107D01*
X112020480Y-128812151D01*
X112030970Y-128834329D01*
X112039235Y-128857429D01*
X112045196Y-128881227D01*
X112048796Y-128905496D01*
X112050000Y-128930000D01*
X112050000Y-130430000D01*
X112048796Y-130454504D01*
X112045196Y-130478773D01*
X112039235Y-130502571D01*
X112030970Y-130525671D01*
X112020480Y-130547849D01*
X112007867Y-130568893D01*
X111993253Y-130588598D01*
X111976777Y-130606777D01*
X111958598Y-130623253D01*
X111938893Y-130637867D01*
X111917849Y-130650480D01*
X111895671Y-130660970D01*
X111872571Y-130669235D01*
X111848773Y-130675196D01*
X111824504Y-130678796D01*
X111800000Y-130680000D01*
X110600000Y-130680000D01*
X110575496Y-130678796D01*
X110551227Y-130675196D01*
X110527429Y-130669235D01*
X110504329Y-130660970D01*
X110482151Y-130650480D01*
X110461107Y-130637867D01*
X110441402Y-130623253D01*
X110423223Y-130606777D01*
X110406747Y-130588598D01*
X110392133Y-130568893D01*
X110379520Y-130547849D01*
X110369030Y-130525671D01*
X110360765Y-130502571D01*
X110354804Y-130478773D01*
X110351204Y-130454504D01*
X110350000Y-130430000D01*
X110350000Y-128930000D01*
X110351204Y-128905496D01*
X110354804Y-128881227D01*
X110360765Y-128857429D01*
X110369030Y-128834329D01*
X110379520Y-128812151D01*
X110392133Y-128791107D01*
X110406747Y-128771402D01*
X110423223Y-128753223D01*
X110441402Y-128736747D01*
X110461107Y-128722133D01*
X110482151Y-128709520D01*
X110504329Y-128699030D01*
X110527429Y-128690765D01*
X110551227Y-128684804D01*
X110575496Y-128681204D01*
X110600000Y-128680000D01*
X111800000Y-128680000D01*
X111824504Y-128681204D01*
X111824504Y-128681204D01*
G37*
D24*
G04 #@! TD*
G04 #@! TO.P,J3,1*
G04 #@! TO.N,+5V*
X111200000Y-129680000D03*
D25*
G04 #@! TO.P,J3,2*
G04 #@! TO.N,GND*
X113700000Y-129680000D03*
G04 #@! TD*
D17*
G04 #@! TO.P,J9,1*
G04 #@! TO.N,GND*
X137280000Y-140670148D03*
D18*
G04 #@! TO.P,J9,2*
G04 #@! TO.N,+5V*
X137280000Y-138130148D03*
G04 #@! TO.P,J9,3*
G04 #@! TO.N,RCS*
X137280000Y-135590148D03*
G04 #@! TD*
D26*
G04 #@! TO.P,U3,1*
G04 #@! TO.N,N/C*
X102540000Y-71910000D03*
G04 #@! TO.P,U3,2*
X124540000Y-71910000D03*
G04 #@! TO.P,U3,3*
X102540000Y-117910000D03*
G04 #@! TO.P,U3,4*
X124540000Y-117910000D03*
G04 #@! TO.P,U3,5*
X138540000Y-57910000D03*
G04 #@! TO.P,U3,6*
X88540000Y-57910000D03*
G04 #@! TO.P,U3,7*
X138540000Y-152910000D03*
G04 #@! TO.P,U3,8*
X88540000Y-152910000D03*
G04 #@! TD*
D27*
G04 #@! TO.P,D1,1*
G04 #@! TO.N,+3V3*
X106100000Y-129500000D03*
D28*
G04 #@! TO.P,D1,2*
G04 #@! TO.N,GPIO32*
X98480000Y-129500000D03*
G04 #@! TD*
D10*
G04 #@! TO.P,HS1,1*
G04 #@! TO.N,Net-(HS1-Pad1)*
X105500000Y-144500000D03*
G04 #@! TO.P,HS1,2*
G04 #@! TO.N,Net-(HS1-Pad2)*
X123300000Y-144500000D03*
G04 #@! TD*
D29*
G04 #@! TO.P,RLY1,1*
G04 #@! TO.N,+12V*
X87700000Y-125700000D03*
D30*
G04 #@! TO.P,RLY1,2*
G04 #@! TO.N,+3V3*
X93700000Y-127700000D03*
G04 #@! TO.P,RLY1,3*
G04 #@! TO.N,Net-(RLY1-Pad3)*
X93700000Y-139900000D03*
G04 #@! TO.P,RLY1,4*
G04 #@! TO.N,+12VM*
X81700000Y-139900000D03*
G04 #@! TO.P,RLY1,5*
G04 #@! TO.N,GPIO32*
X81700000Y-127700000D03*
G04 #@! TD*
D31*
G04 #@! TO.N,GPIO32*
X83700000Y-124500000D03*
X94400000Y-124000000D03*
G04 #@! TD*
D32*
G04 #@! TO.N,GND*
X111480000Y-80430000D02*
X107430000Y-84480000D01*
X132920001Y-93219999D02*
X132369999Y-93770001D01*
X132369999Y-93770001D02*
X131520000Y-94620000D01*
X132920001Y-81247999D02*
X132920001Y-93219999D01*
X132102002Y-80430000D02*
X132920001Y-81247999D01*
X111480000Y-80430000D02*
X132102002Y-80430000D01*
X94689999Y-80519999D02*
X93520000Y-81689998D01*
X103469999Y-80519999D02*
X94689999Y-80519999D01*
X107430000Y-84480000D02*
X103469999Y-80519999D01*
X85919700Y-95412400D02*
X84419700Y-95412400D01*
X93520000Y-87812100D02*
X85919700Y-95412400D01*
X93520000Y-81689998D02*
X93520000Y-87812100D01*
X114130000Y-130110000D02*
X113700000Y-129680000D01*
X114130000Y-143410000D02*
X114130000Y-130110000D01*
X124300000Y-129680000D02*
X124420000Y-129560000D01*
X113700000Y-129680000D02*
X124300000Y-129680000D01*
X126169852Y-129560000D02*
X137280000Y-140670148D01*
X124420000Y-129560000D02*
X126169852Y-129560000D01*
X138727299Y-93219999D02*
X132920001Y-93219999D01*
X140919700Y-95412400D02*
X138727299Y-93219999D01*
X142419700Y-95412400D02*
X140919700Y-95412400D01*
X134500000Y-119480000D02*
X124420000Y-129560000D01*
X134500000Y-97600000D02*
X134500000Y-119480000D01*
X131520000Y-94620000D02*
X134500000Y-97600000D01*
X108729999Y-77679999D02*
X111480000Y-80430000D01*
X111480000Y-61590000D02*
X108729999Y-64340001D01*
X108729999Y-64340001D02*
X108729999Y-77679999D01*
X111480000Y-60190000D02*
X111480000Y-61590000D01*
X124470000Y-60190000D02*
X125090000Y-60810000D01*
X111480000Y-60190000D02*
X124470000Y-60190000D01*
X88930000Y-114990000D02*
X90280000Y-114990000D01*
X85255000Y-111315000D02*
X88930000Y-114990000D01*
X85255000Y-95412400D02*
X85255000Y-111315000D01*
X135010000Y-119990000D02*
X137280000Y-119990000D01*
X134500000Y-119480000D02*
X135010000Y-119990000D01*
D33*
G04 #@! TO.N,GPIO32*
X84265685Y-124500000D02*
X84965685Y-123800000D01*
X83700000Y-124500000D02*
X84265685Y-124500000D01*
X84965685Y-123800000D02*
X91000000Y-123800000D01*
X91200000Y-124000000D02*
X94400000Y-124000000D01*
X91000000Y-123800000D02*
X91200000Y-124000000D01*
G04 #@! TD*
M02*
