M48
;DRILL file {KiCad 5.0.2-bee76a0~70~ubuntu16.04.1} date gio 15 apr 2021 07:32:13 CEST
;FORMAT={-:-/ absolute / inch / decimal}
FMAT,2
INCH,TZ
T1C0.0300
T2C0.0315
T3C0.0394
T4C0.0433
T5C0.0591
T6C0.1181
%
G90
G05
T1
X4.2295Y-3.226
X4.2295Y-3.326
X4.2295Y-3.426
X4.2295Y-3.526
X4.2295Y-3.626
X4.2295Y-3.726
X4.2295Y-3.826
X4.2295Y-3.926
X4.2295Y-4.026
X4.2295Y-4.126
T2
X4.9248Y-2.3941
X5.0232Y-2.3941
X4.8984Y-5.1008
X4.8984Y-5.1992
T3
X4.378Y-5.1055
X4.4764Y-5.1055
X5.4047Y-4.524
X5.4047Y-4.624
X5.4047Y-4.724
X3.5543Y-4.5272
X3.5543Y-4.6272
X3.5543Y-4.7272
X5.4047Y-5.3382
X5.4047Y-5.4382
X5.4047Y-5.5382
X3.7787Y-3.2252
X3.7787Y-3.3252
X3.7787Y-3.4252
X3.7787Y-3.5252
X3.7787Y-3.6252
X3.7787Y-3.7252
X3.7787Y-3.8252
X3.7787Y-3.9252
X3.7787Y-4.0252
X3.7787Y-4.1252
X3.8787Y-3.2252
X3.8787Y-3.3252
X3.8787Y-3.4252
X3.8787Y-3.5252
X3.8787Y-3.6252
X3.8787Y-3.7252
X3.8787Y-3.8252
X3.8787Y-3.9252
X3.8787Y-4.0252
X3.8787Y-4.1252
X5.078Y-3.2252
X5.078Y-3.3252
X5.078Y-3.4252
X5.078Y-3.5252
X5.078Y-3.6252
X5.078Y-3.7252
X5.078Y-3.8252
X5.078Y-3.9252
X5.078Y-4.0252
X5.078Y-4.1252
X5.178Y-3.2252
X5.178Y-3.3252
X5.178Y-3.4252
X5.178Y-3.5252
X5.178Y-3.6252
X5.178Y-3.7252
X5.178Y-3.8252
X5.178Y-3.9252
X5.178Y-4.0252
X5.178Y-4.1252
T4
X4.3933Y-5.6461
X4.4933Y-5.6461
X4.5933Y-5.6461
T5
X4.1449Y-5.7142
X4.8457Y-5.7142
T6
X3.4858Y-2.2799
X3.4858Y-6.0201
X5.4543Y-2.2799
X5.4543Y-6.0201
T2
X4.3457Y-2.3697G85X4.4323Y-2.3697
G05
X4.3378Y-2.598G85X4.4402Y-2.598
G05
X4.578Y-2.4366G85X4.578Y-2.5232
G05
T5
X3.3236Y-3.8253G85X3.3236Y-3.6875
G05
X3.3945Y-3.5339G85X3.2567Y-3.5339
G05
X5.6071Y-3.8253G85X5.6071Y-3.6875
G05
X5.678Y-3.5339G85X5.5402Y-3.5339
G05
T6
X4.0173Y-2.8311G85X4.0567Y-2.8311
G05
X4.0173Y-4.6421G85X4.0567Y-4.6421
G05
X4.8835Y-2.8311G85X4.9228Y-2.8311
G05
X4.8835Y-4.6421G85X4.9228Y-4.6421
G05
T0
M30
