G04 #@! TF.GenerationSoftware,KiCad,Pcbnew,5.0.2-bee76a0~70~ubuntu16.04.1*
G04 #@! TF.CreationDate,2021-04-15T07:32:01+02:00*
G04 #@! TF.ProjectId,axis2,61786973-322e-46b6-9963-61645f706362,1.0*
G04 #@! TF.SameCoordinates,Original*
G04 #@! TF.FileFunction,Legend,Bot*
G04 #@! TF.FilePolarity,Positive*
%FSLAX46Y46*%
G04 Gerber Fmt 4.6, Leading zero omitted, Abs format (unit mm)*
G04 Created by KiCad (PCBNEW 5.0.2-bee76a0~70~ubuntu16.04.1) date gio 15 apr 2021 07:32:01 CEST*
%MOMM*%
%LPD*%
G01*
G04 APERTURE LIST*
%ADD10C,0.300000*%
%ADD11C,0.200000*%
%ADD12C,0.150000*%
%ADD13C,0.381000*%
%ADD14C,0.120000*%
%ADD15C,0.304800*%
G04 APERTURE END LIST*
D10*
X132821428Y-153778571D02*
X132821428Y-152278571D01*
X132178571Y-153778571D02*
X132178571Y-152992857D01*
X132250000Y-152850000D01*
X132392857Y-152778571D01*
X132607142Y-152778571D01*
X132750000Y-152850000D01*
X132821428Y-152921428D01*
X131678571Y-152778571D02*
X131107142Y-152778571D01*
X131464285Y-152278571D02*
X131464285Y-153564285D01*
X131392857Y-153707142D01*
X131250000Y-153778571D01*
X131107142Y-153778571D01*
X130821428Y-152778571D02*
X130250000Y-152778571D01*
X130607142Y-152278571D02*
X130607142Y-153564285D01*
X130535714Y-153707142D01*
X130392857Y-153778571D01*
X130250000Y-153778571D01*
X129750000Y-152778571D02*
X129750000Y-154278571D01*
X129750000Y-152850000D02*
X129607142Y-152778571D01*
X129321428Y-152778571D01*
X129178571Y-152850000D01*
X129107142Y-152921428D01*
X129035714Y-153064285D01*
X129035714Y-153492857D01*
X129107142Y-153635714D01*
X129178571Y-153707142D01*
X129321428Y-153778571D01*
X129607142Y-153778571D01*
X129750000Y-153707142D01*
X128464285Y-153707142D02*
X128321428Y-153778571D01*
X128035714Y-153778571D01*
X127892857Y-153707142D01*
X127821428Y-153564285D01*
X127821428Y-153492857D01*
X127892857Y-153350000D01*
X128035714Y-153278571D01*
X128250000Y-153278571D01*
X128392857Y-153207142D01*
X128464285Y-153064285D01*
X128464285Y-152992857D01*
X128392857Y-152850000D01*
X128250000Y-152778571D01*
X128035714Y-152778571D01*
X127892857Y-152850000D01*
X127178571Y-153635714D02*
X127107142Y-153707142D01*
X127178571Y-153778571D01*
X127250000Y-153707142D01*
X127178571Y-153635714D01*
X127178571Y-153778571D01*
X127178571Y-152850000D02*
X127107142Y-152921428D01*
X127178571Y-152992857D01*
X127250000Y-152921428D01*
X127178571Y-152850000D01*
X127178571Y-152992857D01*
X125392857Y-152207142D02*
X126678571Y-154135714D01*
X123821428Y-152207142D02*
X125107142Y-154135714D01*
X122678571Y-152778571D02*
X122678571Y-153992857D01*
X122750000Y-154135714D01*
X122821428Y-154207142D01*
X122964285Y-154278571D01*
X123178571Y-154278571D01*
X123321428Y-154207142D01*
X122678571Y-153707142D02*
X122821428Y-153778571D01*
X123107142Y-153778571D01*
X123250000Y-153707142D01*
X123321428Y-153635714D01*
X123392857Y-153492857D01*
X123392857Y-153064285D01*
X123321428Y-152921428D01*
X123250000Y-152850000D01*
X123107142Y-152778571D01*
X122821428Y-152778571D01*
X122678571Y-152850000D01*
X121964285Y-153778571D02*
X121964285Y-152778571D01*
X121964285Y-152278571D02*
X122035714Y-152350000D01*
X121964285Y-152421428D01*
X121892857Y-152350000D01*
X121964285Y-152278571D01*
X121964285Y-152421428D01*
X121464285Y-152778571D02*
X120892857Y-152778571D01*
X121250000Y-152278571D02*
X121250000Y-153564285D01*
X121178571Y-153707142D01*
X121035714Y-153778571D01*
X120892857Y-153778571D01*
X120392857Y-153778571D02*
X120392857Y-152278571D01*
X119750000Y-153778571D02*
X119750000Y-152992857D01*
X119821428Y-152850000D01*
X119964285Y-152778571D01*
X120178571Y-152778571D01*
X120321428Y-152850000D01*
X120392857Y-152921428D01*
X118392857Y-152778571D02*
X118392857Y-153778571D01*
X119035714Y-152778571D02*
X119035714Y-153564285D01*
X118964285Y-153707142D01*
X118821428Y-153778571D01*
X118607142Y-153778571D01*
X118464285Y-153707142D01*
X118392857Y-153635714D01*
X117678571Y-153778571D02*
X117678571Y-152278571D01*
X117678571Y-152850000D02*
X117535714Y-152778571D01*
X117250000Y-152778571D01*
X117107142Y-152850000D01*
X117035714Y-152921428D01*
X116964285Y-153064285D01*
X116964285Y-153492857D01*
X117035714Y-153635714D01*
X117107142Y-153707142D01*
X117250000Y-153778571D01*
X117535714Y-153778571D01*
X117678571Y-153707142D01*
X116321428Y-153635714D02*
X116250000Y-153707142D01*
X116321428Y-153778571D01*
X116392857Y-153707142D01*
X116321428Y-153635714D01*
X116321428Y-153778571D01*
X114964285Y-153707142D02*
X115107142Y-153778571D01*
X115392857Y-153778571D01*
X115535714Y-153707142D01*
X115607142Y-153635714D01*
X115678571Y-153492857D01*
X115678571Y-153064285D01*
X115607142Y-152921428D01*
X115535714Y-152850000D01*
X115392857Y-152778571D01*
X115107142Y-152778571D01*
X114964285Y-152850000D01*
X114107142Y-153778571D02*
X114250000Y-153707142D01*
X114321428Y-153635714D01*
X114392857Y-153492857D01*
X114392857Y-153064285D01*
X114321428Y-152921428D01*
X114250000Y-152850000D01*
X114107142Y-152778571D01*
X113892857Y-152778571D01*
X113750000Y-152850000D01*
X113678571Y-152921428D01*
X113607142Y-153064285D01*
X113607142Y-153492857D01*
X113678571Y-153635714D01*
X113750000Y-153707142D01*
X113892857Y-153778571D01*
X114107142Y-153778571D01*
X112964285Y-153778571D02*
X112964285Y-152778571D01*
X112964285Y-152921428D02*
X112892857Y-152850000D01*
X112750000Y-152778571D01*
X112535714Y-152778571D01*
X112392857Y-152850000D01*
X112321428Y-152992857D01*
X112321428Y-153778571D01*
X112321428Y-152992857D02*
X112250000Y-152850000D01*
X112107142Y-152778571D01*
X111892857Y-152778571D01*
X111750000Y-152850000D01*
X111678571Y-152992857D01*
X111678571Y-153778571D01*
X109892857Y-152207142D02*
X111178571Y-154135714D01*
X109392857Y-153778571D02*
X109392857Y-152278571D01*
X108892857Y-153350000D01*
X108392857Y-152278571D01*
X108392857Y-153778571D01*
X107821428Y-152778571D02*
X107464285Y-153778571D01*
X107107142Y-152778571D02*
X107464285Y-153778571D01*
X107607142Y-154135714D01*
X107678571Y-154207142D01*
X107821428Y-154278571D01*
X106035714Y-152992857D02*
X106535714Y-152992857D01*
X106535714Y-153778571D02*
X106535714Y-152278571D01*
X105821428Y-152278571D01*
X105250000Y-153778571D02*
X105250000Y-152778571D01*
X105250000Y-153064285D02*
X105178571Y-152921428D01*
X105107142Y-152850000D01*
X104964285Y-152778571D01*
X104821428Y-152778571D01*
X103750000Y-153707142D02*
X103892857Y-153778571D01*
X104178571Y-153778571D01*
X104321428Y-153707142D01*
X104392857Y-153564285D01*
X104392857Y-152992857D01*
X104321428Y-152850000D01*
X104178571Y-152778571D01*
X103892857Y-152778571D01*
X103750000Y-152850000D01*
X103678571Y-152992857D01*
X103678571Y-153135714D01*
X104392857Y-153278571D01*
X102464285Y-153707142D02*
X102607142Y-153778571D01*
X102892857Y-153778571D01*
X103035714Y-153707142D01*
X103107142Y-153564285D01*
X103107142Y-152992857D01*
X103035714Y-152850000D01*
X102892857Y-152778571D01*
X102607142Y-152778571D01*
X102464285Y-152850000D01*
X102392857Y-152992857D01*
X102392857Y-153135714D01*
X103107142Y-153278571D01*
X101750000Y-153778571D02*
X101750000Y-152778571D01*
X101750000Y-153064285D02*
X101678571Y-152921428D01*
X101607142Y-152850000D01*
X101464285Y-152778571D01*
X101321428Y-152778571D01*
X101035714Y-152778571D02*
X100464285Y-152778571D01*
X100821428Y-152278571D02*
X100821428Y-153564285D01*
X100750000Y-153707142D01*
X100607142Y-153778571D01*
X100464285Y-153778571D01*
X99750000Y-153778571D02*
X99892857Y-153707142D01*
X99964285Y-153635714D01*
X100035714Y-153492857D01*
X100035714Y-153064285D01*
X99964285Y-152921428D01*
X99892857Y-152850000D01*
X99750000Y-152778571D01*
X99535714Y-152778571D01*
X99392857Y-152850000D01*
X99321428Y-152921428D01*
X99250000Y-153064285D01*
X99250000Y-153492857D01*
X99321428Y-153635714D01*
X99392857Y-153707142D01*
X99535714Y-153778571D01*
X99750000Y-153778571D01*
X98678571Y-153707142D02*
X98535714Y-153778571D01*
X98250000Y-153778571D01*
X98107142Y-153707142D01*
X98035714Y-153564285D01*
X98035714Y-153492857D01*
X98107142Y-153350000D01*
X98250000Y-153278571D01*
X98464285Y-153278571D01*
X98607142Y-153207142D01*
X98678571Y-153064285D01*
X98678571Y-152992857D01*
X98607142Y-152850000D01*
X98464285Y-152778571D01*
X98250000Y-152778571D01*
X98107142Y-152850000D01*
X96678571Y-153778571D02*
X97392857Y-153778571D01*
X97392857Y-152278571D01*
X95535714Y-153778571D02*
X95535714Y-152992857D01*
X95607142Y-152850000D01*
X95750000Y-152778571D01*
X96035714Y-152778571D01*
X96178571Y-152850000D01*
X95535714Y-153707142D02*
X95678571Y-153778571D01*
X96035714Y-153778571D01*
X96178571Y-153707142D01*
X96250000Y-153564285D01*
X96250000Y-153421428D01*
X96178571Y-153278571D01*
X96035714Y-153207142D01*
X95678571Y-153207142D01*
X95535714Y-153135714D01*
X94821428Y-153778571D02*
X94821428Y-152278571D01*
X94821428Y-152850000D02*
X94678571Y-152778571D01*
X94392857Y-152778571D01*
X94250000Y-152850000D01*
X94178571Y-152921428D01*
X94107142Y-153064285D01*
X94107142Y-153492857D01*
X94178571Y-153635714D01*
X94250000Y-153707142D01*
X94392857Y-153778571D01*
X94678571Y-153778571D01*
X94821428Y-153707142D01*
D11*
X122680952Y-60381428D02*
X121919047Y-60381428D01*
X134372996Y-140798719D02*
X135134901Y-140798719D01*
X135134900Y-138241576D02*
X134372995Y-138241576D01*
X134753947Y-138622528D02*
X134753947Y-137860624D01*
X133420614Y-137622528D02*
X133896805Y-137622528D01*
X133944424Y-138098719D01*
X133896805Y-138051100D01*
X133801566Y-138003481D01*
X133563471Y-138003481D01*
X133468233Y-138051100D01*
X133420614Y-138098719D01*
X133372995Y-138193957D01*
X133372995Y-138432052D01*
X133420614Y-138527290D01*
X133468233Y-138574909D01*
X133563471Y-138622528D01*
X133801566Y-138622528D01*
X133896805Y-138574909D01*
X133944424Y-138527290D01*
X133087281Y-137622528D02*
X132753947Y-138622528D01*
X132420614Y-137622528D01*
X135182519Y-135874909D02*
X135039662Y-135922528D01*
X134801566Y-135922528D01*
X134706328Y-135874909D01*
X134658709Y-135827290D01*
X134611090Y-135732052D01*
X134611090Y-135636814D01*
X134658709Y-135541576D01*
X134706328Y-135493957D01*
X134801566Y-135446338D01*
X134992042Y-135398719D01*
X135087281Y-135351100D01*
X135134900Y-135303481D01*
X135182519Y-135208243D01*
X135182519Y-135113005D01*
X135134900Y-135017767D01*
X135087281Y-134970148D01*
X134992042Y-134922528D01*
X134753947Y-134922528D01*
X134611090Y-134970148D01*
X134182519Y-135922528D02*
X134182519Y-135255862D01*
X134182519Y-134922528D02*
X134230138Y-134970148D01*
X134182519Y-135017767D01*
X134134900Y-134970148D01*
X134182519Y-134922528D01*
X134182519Y-135017767D01*
X133277757Y-135255862D02*
X133277757Y-136065386D01*
X133325376Y-136160624D01*
X133372995Y-136208243D01*
X133468233Y-136255862D01*
X133611090Y-136255862D01*
X133706328Y-136208243D01*
X133277757Y-135874909D02*
X133372995Y-135922528D01*
X133563471Y-135922528D01*
X133658709Y-135874909D01*
X133706328Y-135827290D01*
X133753947Y-135732052D01*
X133753947Y-135446338D01*
X133706328Y-135351100D01*
X133658709Y-135303481D01*
X133563471Y-135255862D01*
X133372995Y-135255862D01*
X133277757Y-135303481D01*
X132801566Y-135255862D02*
X132801566Y-135922528D01*
X132801566Y-135351100D02*
X132753947Y-135303481D01*
X132658709Y-135255862D01*
X132515852Y-135255862D01*
X132420614Y-135303481D01*
X132372995Y-135398719D01*
X132372995Y-135922528D01*
X131468233Y-135922528D02*
X131468233Y-135398719D01*
X131515852Y-135303481D01*
X131611090Y-135255862D01*
X131801566Y-135255862D01*
X131896804Y-135303481D01*
X131468233Y-135874909D02*
X131563471Y-135922528D01*
X131801566Y-135922528D01*
X131896804Y-135874909D01*
X131944423Y-135779671D01*
X131944423Y-135684433D01*
X131896804Y-135589195D01*
X131801566Y-135541576D01*
X131563471Y-135541576D01*
X131468233Y-135493957D01*
X130849185Y-135922528D02*
X130944423Y-135874909D01*
X130992042Y-135779671D01*
X130992042Y-134922528D01*
X94160952Y-115061428D02*
X93399047Y-115061428D01*
X95565714Y-117561428D02*
X94803809Y-117561428D01*
X95184761Y-117942380D02*
X95184761Y-117180476D01*
X93851428Y-116942380D02*
X94327619Y-116942380D01*
X94375238Y-117418571D01*
X94327619Y-117370952D01*
X94232380Y-117323333D01*
X93994285Y-117323333D01*
X93899047Y-117370952D01*
X93851428Y-117418571D01*
X93803809Y-117513809D01*
X93803809Y-117751904D01*
X93851428Y-117847142D01*
X93899047Y-117894761D01*
X93994285Y-117942380D01*
X94232380Y-117942380D01*
X94327619Y-117894761D01*
X94375238Y-117847142D01*
X93518095Y-116942380D02*
X93184761Y-117942380D01*
X92851428Y-116942380D01*
X97422857Y-120394761D02*
X97280000Y-120442380D01*
X97041904Y-120442380D01*
X96946666Y-120394761D01*
X96899047Y-120347142D01*
X96851428Y-120251904D01*
X96851428Y-120156666D01*
X96899047Y-120061428D01*
X96946666Y-120013809D01*
X97041904Y-119966190D01*
X97232380Y-119918571D01*
X97327619Y-119870952D01*
X97375238Y-119823333D01*
X97422857Y-119728095D01*
X97422857Y-119632857D01*
X97375238Y-119537619D01*
X97327619Y-119490000D01*
X97232380Y-119442380D01*
X96994285Y-119442380D01*
X96851428Y-119490000D01*
X96422857Y-120442380D02*
X96422857Y-119775714D01*
X96422857Y-119442380D02*
X96470476Y-119490000D01*
X96422857Y-119537619D01*
X96375238Y-119490000D01*
X96422857Y-119442380D01*
X96422857Y-119537619D01*
X95518095Y-119775714D02*
X95518095Y-120585238D01*
X95565714Y-120680476D01*
X95613333Y-120728095D01*
X95708571Y-120775714D01*
X95851428Y-120775714D01*
X95946666Y-120728095D01*
X95518095Y-120394761D02*
X95613333Y-120442380D01*
X95803809Y-120442380D01*
X95899047Y-120394761D01*
X95946666Y-120347142D01*
X95994285Y-120251904D01*
X95994285Y-119966190D01*
X95946666Y-119870952D01*
X95899047Y-119823333D01*
X95803809Y-119775714D01*
X95613333Y-119775714D01*
X95518095Y-119823333D01*
X95041904Y-119775714D02*
X95041904Y-120442380D01*
X95041904Y-119870952D02*
X94994285Y-119823333D01*
X94899047Y-119775714D01*
X94756190Y-119775714D01*
X94660952Y-119823333D01*
X94613333Y-119918571D01*
X94613333Y-120442380D01*
X93708571Y-120442380D02*
X93708571Y-119918571D01*
X93756190Y-119823333D01*
X93851428Y-119775714D01*
X94041904Y-119775714D01*
X94137142Y-119823333D01*
X93708571Y-120394761D02*
X93803809Y-120442380D01*
X94041904Y-120442380D01*
X94137142Y-120394761D01*
X94184761Y-120299523D01*
X94184761Y-120204285D01*
X94137142Y-120109047D01*
X94041904Y-120061428D01*
X93803809Y-120061428D01*
X93708571Y-120013809D01*
X93089523Y-120442380D02*
X93184761Y-120394761D01*
X93232380Y-120299523D01*
X93232380Y-119442380D01*
X134722857Y-115294761D02*
X134580000Y-115342380D01*
X134341904Y-115342380D01*
X134246666Y-115294761D01*
X134199047Y-115247142D01*
X134151428Y-115151904D01*
X134151428Y-115056666D01*
X134199047Y-114961428D01*
X134246666Y-114913809D01*
X134341904Y-114866190D01*
X134532380Y-114818571D01*
X134627619Y-114770952D01*
X134675238Y-114723333D01*
X134722857Y-114628095D01*
X134722857Y-114532857D01*
X134675238Y-114437619D01*
X134627619Y-114390000D01*
X134532380Y-114342380D01*
X134294285Y-114342380D01*
X134151428Y-114390000D01*
X133722857Y-115342380D02*
X133722857Y-114675714D01*
X133722857Y-114342380D02*
X133770476Y-114390000D01*
X133722857Y-114437619D01*
X133675238Y-114390000D01*
X133722857Y-114342380D01*
X133722857Y-114437619D01*
X132818095Y-114675714D02*
X132818095Y-115485238D01*
X132865714Y-115580476D01*
X132913333Y-115628095D01*
X133008571Y-115675714D01*
X133151428Y-115675714D01*
X133246666Y-115628095D01*
X132818095Y-115294761D02*
X132913333Y-115342380D01*
X133103809Y-115342380D01*
X133199047Y-115294761D01*
X133246666Y-115247142D01*
X133294285Y-115151904D01*
X133294285Y-114866190D01*
X133246666Y-114770952D01*
X133199047Y-114723333D01*
X133103809Y-114675714D01*
X132913333Y-114675714D01*
X132818095Y-114723333D01*
X132341904Y-114675714D02*
X132341904Y-115342380D01*
X132341904Y-114770952D02*
X132294285Y-114723333D01*
X132199047Y-114675714D01*
X132056190Y-114675714D01*
X131960952Y-114723333D01*
X131913333Y-114818571D01*
X131913333Y-115342380D01*
X131008571Y-115342380D02*
X131008571Y-114818571D01*
X131056190Y-114723333D01*
X131151428Y-114675714D01*
X131341904Y-114675714D01*
X131437142Y-114723333D01*
X131008571Y-115294761D02*
X131103809Y-115342380D01*
X131341904Y-115342380D01*
X131437142Y-115294761D01*
X131484761Y-115199523D01*
X131484761Y-115104285D01*
X131437142Y-115009047D01*
X131341904Y-114961428D01*
X131103809Y-114961428D01*
X131008571Y-114913809D01*
X130389523Y-115342380D02*
X130484761Y-115294761D01*
X130532380Y-115199523D01*
X130532380Y-114342380D01*
X134565714Y-117561428D02*
X133803809Y-117561428D01*
X134184761Y-117942380D02*
X134184761Y-117180476D01*
X132851428Y-116942380D02*
X133327619Y-116942380D01*
X133375238Y-117418571D01*
X133327619Y-117370952D01*
X133232380Y-117323333D01*
X132994285Y-117323333D01*
X132899047Y-117370952D01*
X132851428Y-117418571D01*
X132803809Y-117513809D01*
X132803809Y-117751904D01*
X132851428Y-117847142D01*
X132899047Y-117894761D01*
X132994285Y-117942380D01*
X133232380Y-117942380D01*
X133327619Y-117894761D01*
X133375238Y-117847142D01*
X132518095Y-116942380D02*
X132184761Y-117942380D01*
X131851428Y-116942380D01*
X134060952Y-120061428D02*
X133299047Y-120061428D01*
X115010952Y-124331428D02*
X114249047Y-124331428D01*
X124800952Y-127241428D02*
X124039047Y-127241428D01*
X115101428Y-61509047D02*
X115101428Y-62270952D01*
X130550952Y-60381428D02*
X129789047Y-60381428D01*
X130170000Y-60762380D02*
X130170000Y-60000476D01*
X124930952Y-134121428D02*
X124169047Y-134121428D01*
X124550000Y-134502380D02*
X124550000Y-133740476D01*
X116548571Y-141511904D02*
X116548571Y-140749999D01*
X116167619Y-141130951D02*
X116929523Y-141130951D01*
X117167619Y-139797618D02*
X117167619Y-140273809D01*
X116691428Y-140321428D01*
X116739047Y-140273809D01*
X116786666Y-140178570D01*
X116786666Y-139940475D01*
X116739047Y-139845237D01*
X116691428Y-139797618D01*
X116596190Y-139749999D01*
X116358095Y-139749999D01*
X116262857Y-139797618D01*
X116215238Y-139845237D01*
X116167619Y-139940475D01*
X116167619Y-140178570D01*
X116215238Y-140273809D01*
X116262857Y-140321428D01*
X117167619Y-139464285D02*
X116167619Y-139130951D01*
X117167619Y-138797618D01*
X114580000Y-140988094D02*
X114627619Y-141083332D01*
X114627619Y-141226190D01*
X114580000Y-141369047D01*
X114484761Y-141464285D01*
X114389523Y-141511904D01*
X114199047Y-141559523D01*
X114056190Y-141559523D01*
X113865714Y-141511904D01*
X113770476Y-141464285D01*
X113675238Y-141369047D01*
X113627619Y-141226190D01*
X113627619Y-141130951D01*
X113675238Y-140988094D01*
X113722857Y-140940475D01*
X114056190Y-140940475D01*
X114056190Y-141130951D01*
X113627619Y-140511904D02*
X114627619Y-140511904D01*
X113627619Y-139940475D01*
X114627619Y-139940475D01*
X113627619Y-139464285D02*
X114627619Y-139464285D01*
X114627619Y-139226190D01*
X114580000Y-139083332D01*
X114484761Y-138988094D01*
X114389523Y-138940475D01*
X114199047Y-138892856D01*
X114056190Y-138892856D01*
X113865714Y-138940475D01*
X113770476Y-138988094D01*
X113675238Y-139083332D01*
X113627619Y-139226190D01*
X113627619Y-139464285D01*
X111468571Y-141511904D02*
X111468571Y-140750000D01*
X111087619Y-141130952D02*
X111849523Y-141130952D01*
X111087619Y-139750000D02*
X111087619Y-140321428D01*
X111087619Y-140035714D02*
X112087619Y-140035714D01*
X111944761Y-140130952D01*
X111849523Y-140226190D01*
X111801904Y-140321428D01*
X111992380Y-139369047D02*
X112040000Y-139321428D01*
X112087619Y-139226190D01*
X112087619Y-138988095D01*
X112040000Y-138892857D01*
X111992380Y-138845238D01*
X111897142Y-138797619D01*
X111801904Y-138797619D01*
X111659047Y-138845238D01*
X111087619Y-139416666D01*
X111087619Y-138797619D01*
X112087619Y-138511904D02*
X111087619Y-138178571D01*
X112087619Y-137845238D01*
X109601904Y-68590000D02*
X109697142Y-68637619D01*
X109840000Y-68637619D01*
X109982857Y-68590000D01*
X110078095Y-68494761D01*
X110125714Y-68399523D01*
X110173333Y-68209047D01*
X110173333Y-68066190D01*
X110125714Y-67875714D01*
X110078095Y-67780476D01*
X109982857Y-67685238D01*
X109840000Y-67637619D01*
X109744761Y-67637619D01*
X109601904Y-67685238D01*
X109554285Y-67732857D01*
X109554285Y-68066190D01*
X109744761Y-68066190D01*
X109125714Y-67637619D02*
X109125714Y-68637619D01*
X108554285Y-67637619D01*
X108554285Y-68637619D01*
X108078095Y-67637619D02*
X108078095Y-68637619D01*
X107840000Y-68637619D01*
X107697142Y-68590000D01*
X107601904Y-68494761D01*
X107554285Y-68399523D01*
X107506666Y-68209047D01*
X107506666Y-68066190D01*
X107554285Y-67875714D01*
X107601904Y-67780476D01*
X107697142Y-67685238D01*
X107840000Y-67637619D01*
X108078095Y-67637619D01*
X113041904Y-58061428D02*
X112280000Y-58061428D01*
X112660952Y-58442380D02*
X112660952Y-57680476D01*
X111280000Y-58442380D02*
X111851428Y-58442380D01*
X111565714Y-58442380D02*
X111565714Y-57442380D01*
X111660952Y-57585238D01*
X111756190Y-57680476D01*
X111851428Y-57728095D01*
X110899047Y-57537619D02*
X110851428Y-57490000D01*
X110756190Y-57442380D01*
X110518095Y-57442380D01*
X110422857Y-57490000D01*
X110375238Y-57537619D01*
X110327619Y-57632857D01*
X110327619Y-57728095D01*
X110375238Y-57870952D01*
X110946666Y-58442380D01*
X110327619Y-58442380D01*
X110041904Y-57442380D02*
X109708571Y-58442380D01*
X109375238Y-57442380D01*
X112485714Y-124471428D02*
X111723809Y-124471428D01*
X112104761Y-124852380D02*
X112104761Y-124090476D01*
X110771428Y-123852380D02*
X111247619Y-123852380D01*
X111295238Y-124328571D01*
X111247619Y-124280952D01*
X111152380Y-124233333D01*
X110914285Y-124233333D01*
X110819047Y-124280952D01*
X110771428Y-124328571D01*
X110723809Y-124423809D01*
X110723809Y-124661904D01*
X110771428Y-124757142D01*
X110819047Y-124804761D01*
X110914285Y-124852380D01*
X111152380Y-124852380D01*
X111247619Y-124804761D01*
X111295238Y-124757142D01*
X110438095Y-123852380D02*
X110104761Y-124852380D01*
X109771428Y-123852380D01*
D12*
X126813333Y-100006666D02*
X126813333Y-99306666D01*
X126480000Y-100006666D02*
X126480000Y-99306666D01*
X126080000Y-100006666D01*
X126080000Y-99306666D01*
X125846666Y-99306666D02*
X125446666Y-99306666D01*
X125646666Y-100006666D02*
X125646666Y-99306666D01*
X135463333Y-100056666D02*
X135463333Y-99356666D01*
X135063333Y-100056666D01*
X135063333Y-99356666D01*
X134330000Y-99990000D02*
X134363333Y-100023333D01*
X134463333Y-100056666D01*
X134530000Y-100056666D01*
X134630000Y-100023333D01*
X134696666Y-99956666D01*
X134730000Y-99890000D01*
X134763333Y-99756666D01*
X134763333Y-99656666D01*
X134730000Y-99523333D01*
X134696666Y-99456666D01*
X134630000Y-99390000D01*
X134530000Y-99356666D01*
X134463333Y-99356666D01*
X134363333Y-99390000D01*
X134330000Y-99423333D01*
X134063333Y-100023333D02*
X133963333Y-100056666D01*
X133796666Y-100056666D01*
X133730000Y-100023333D01*
X133696666Y-99990000D01*
X133663333Y-99923333D01*
X133663333Y-99856666D01*
X133696666Y-99790000D01*
X133730000Y-99756666D01*
X133796666Y-99723333D01*
X133930000Y-99690000D01*
X133996666Y-99656666D01*
X134030000Y-99623333D01*
X134063333Y-99556666D01*
X134063333Y-99490000D01*
X134030000Y-99423333D01*
X133996666Y-99390000D01*
X133930000Y-99356666D01*
X133763333Y-99356666D01*
X133663333Y-99390000D01*
X135113333Y-94290000D02*
X135180000Y-94256666D01*
X135280000Y-94256666D01*
X135380000Y-94290000D01*
X135446666Y-94356666D01*
X135480000Y-94423333D01*
X135513333Y-94556666D01*
X135513333Y-94656666D01*
X135480000Y-94790000D01*
X135446666Y-94856666D01*
X135380000Y-94923333D01*
X135280000Y-94956666D01*
X135213333Y-94956666D01*
X135113333Y-94923333D01*
X135080000Y-94890000D01*
X135080000Y-94656666D01*
X135213333Y-94656666D01*
X134780000Y-94956666D02*
X134780000Y-94256666D01*
X134380000Y-94956666D01*
X134380000Y-94256666D01*
X134046666Y-94956666D02*
X134046666Y-94256666D01*
X133880000Y-94256666D01*
X133780000Y-94290000D01*
X133713333Y-94356666D01*
X133680000Y-94423333D01*
X133646666Y-94556666D01*
X133646666Y-94656666D01*
X133680000Y-94790000D01*
X133713333Y-94856666D01*
X133780000Y-94923333D01*
X133880000Y-94956666D01*
X134046666Y-94956666D01*
X102363333Y-97373333D02*
X102263333Y-97406666D01*
X102096666Y-97406666D01*
X102030000Y-97373333D01*
X101996666Y-97340000D01*
X101963333Y-97273333D01*
X101963333Y-97206666D01*
X101996666Y-97140000D01*
X102030000Y-97106666D01*
X102096666Y-97073333D01*
X102230000Y-97040000D01*
X102296666Y-97006666D01*
X102330000Y-96973333D01*
X102363333Y-96906666D01*
X102363333Y-96840000D01*
X102330000Y-96773333D01*
X102296666Y-96740000D01*
X102230000Y-96706666D01*
X102063333Y-96706666D01*
X101963333Y-96740000D01*
X101263333Y-97340000D02*
X101296666Y-97373333D01*
X101396666Y-97406666D01*
X101463333Y-97406666D01*
X101563333Y-97373333D01*
X101630000Y-97306666D01*
X101663333Y-97240000D01*
X101696666Y-97106666D01*
X101696666Y-97006666D01*
X101663333Y-96873333D01*
X101630000Y-96806666D01*
X101563333Y-96740000D01*
X101463333Y-96706666D01*
X101396666Y-96706666D01*
X101296666Y-96740000D01*
X101263333Y-96773333D01*
X100630000Y-97406666D02*
X100963333Y-97406666D01*
X100963333Y-96706666D01*
X94030000Y-100006666D02*
X94030000Y-99306666D01*
X93796666Y-99806666D01*
X93563333Y-99306666D01*
X93563333Y-100006666D01*
X93096666Y-99306666D02*
X92963333Y-99306666D01*
X92896666Y-99340000D01*
X92830000Y-99406666D01*
X92796666Y-99540000D01*
X92796666Y-99773333D01*
X92830000Y-99906666D01*
X92896666Y-99973333D01*
X92963333Y-100006666D01*
X93096666Y-100006666D01*
X93163333Y-99973333D01*
X93230000Y-99906666D01*
X93263333Y-99773333D01*
X93263333Y-99540000D01*
X93230000Y-99406666D01*
X93163333Y-99340000D01*
X93096666Y-99306666D01*
X92530000Y-99973333D02*
X92430000Y-100006666D01*
X92263333Y-100006666D01*
X92196666Y-99973333D01*
X92163333Y-99940000D01*
X92130000Y-99873333D01*
X92130000Y-99806666D01*
X92163333Y-99740000D01*
X92196666Y-99706666D01*
X92263333Y-99673333D01*
X92396666Y-99640000D01*
X92463333Y-99606666D01*
X92496666Y-99573333D01*
X92530000Y-99506666D01*
X92530000Y-99440000D01*
X92496666Y-99373333D01*
X92463333Y-99340000D01*
X92396666Y-99306666D01*
X92230000Y-99306666D01*
X92130000Y-99340000D01*
X91830000Y-100006666D02*
X91830000Y-99306666D01*
X93930000Y-97356666D02*
X93930000Y-96656666D01*
X93696666Y-97156666D01*
X93463333Y-96656666D01*
X93463333Y-97356666D01*
X93130000Y-97356666D02*
X93130000Y-96656666D01*
X92830000Y-97323333D02*
X92730000Y-97356666D01*
X92563333Y-97356666D01*
X92496666Y-97323333D01*
X92463333Y-97290000D01*
X92430000Y-97223333D01*
X92430000Y-97156666D01*
X92463333Y-97090000D01*
X92496666Y-97056666D01*
X92563333Y-97023333D01*
X92696666Y-96990000D01*
X92763333Y-96956666D01*
X92796666Y-96923333D01*
X92830000Y-96856666D01*
X92830000Y-96790000D01*
X92796666Y-96723333D01*
X92763333Y-96690000D01*
X92696666Y-96656666D01*
X92530000Y-96656666D01*
X92430000Y-96690000D01*
X91996666Y-96656666D02*
X91863333Y-96656666D01*
X91796666Y-96690000D01*
X91730000Y-96756666D01*
X91696666Y-96890000D01*
X91696666Y-97123333D01*
X91730000Y-97256666D01*
X91796666Y-97323333D01*
X91863333Y-97356666D01*
X91996666Y-97356666D01*
X92063333Y-97323333D01*
X92130000Y-97256666D01*
X92163333Y-97123333D01*
X92163333Y-96890000D01*
X92130000Y-96756666D01*
X92063333Y-96690000D01*
X91996666Y-96656666D01*
X102163333Y-81640000D02*
X102230000Y-81606666D01*
X102330000Y-81606666D01*
X102430000Y-81640000D01*
X102496666Y-81706666D01*
X102530000Y-81773333D01*
X102563333Y-81906666D01*
X102563333Y-82006666D01*
X102530000Y-82140000D01*
X102496666Y-82206666D01*
X102430000Y-82273333D01*
X102330000Y-82306666D01*
X102263333Y-82306666D01*
X102163333Y-82273333D01*
X102130000Y-82240000D01*
X102130000Y-82006666D01*
X102263333Y-82006666D01*
X101830000Y-82306666D02*
X101830000Y-81606666D01*
X101430000Y-82306666D01*
X101430000Y-81606666D01*
X101096666Y-82306666D02*
X101096666Y-81606666D01*
X100930000Y-81606666D01*
X100830000Y-81640000D01*
X100763333Y-81706666D01*
X100730000Y-81773333D01*
X100696666Y-81906666D01*
X100696666Y-82006666D01*
X100730000Y-82140000D01*
X100763333Y-82206666D01*
X100830000Y-82273333D01*
X100930000Y-82306666D01*
X101096666Y-82306666D01*
X93746666Y-81656666D02*
X93313333Y-81656666D01*
X93546666Y-81923333D01*
X93446666Y-81923333D01*
X93380000Y-81956666D01*
X93346666Y-81990000D01*
X93313333Y-82056666D01*
X93313333Y-82223333D01*
X93346666Y-82290000D01*
X93380000Y-82323333D01*
X93446666Y-82356666D01*
X93646666Y-82356666D01*
X93713333Y-82323333D01*
X93746666Y-82290000D01*
X93113333Y-81656666D02*
X92880000Y-82356666D01*
X92646666Y-81656666D01*
X92480000Y-81656666D02*
X92046666Y-81656666D01*
X92280000Y-81923333D01*
X92180000Y-81923333D01*
X92113333Y-81956666D01*
X92080000Y-81990000D01*
X92046666Y-82056666D01*
X92046666Y-82223333D01*
X92080000Y-82290000D01*
X92113333Y-82323333D01*
X92180000Y-82356666D01*
X92380000Y-82356666D01*
X92446666Y-82323333D01*
X92480000Y-82290000D01*
G04 #@! TO.C,HS1*
X98180000Y-150140000D02*
X130180000Y-150140000D01*
X106680000Y-147140000D02*
X121680000Y-147140000D01*
X106680000Y-136140000D02*
X98180000Y-136140000D01*
X121680000Y-136140000D02*
X130180000Y-136140000D01*
X121680000Y-147140000D02*
X121680000Y-146140000D01*
X106680000Y-147140000D02*
X106680000Y-146140000D01*
X106680000Y-144140000D02*
X106680000Y-136140000D01*
X121680000Y-144140000D02*
X121680000Y-136140000D01*
X103680000Y-146140000D02*
X98180000Y-146140000D01*
X98180000Y-144140000D02*
X103680000Y-144140000D01*
X124680000Y-146140000D02*
X130180000Y-146140000D01*
X124680000Y-144140000D02*
X130180000Y-144140000D01*
X124680000Y-148390000D02*
X130180000Y-148390000D01*
X124680000Y-138140000D02*
X130180000Y-138140000D01*
X124680000Y-142140000D02*
X130180000Y-142140000D01*
X124680000Y-140140000D02*
X130180000Y-140140000D01*
X103680000Y-138140000D02*
X98180000Y-138140000D01*
X98180000Y-140140000D02*
X103680000Y-140140000D01*
X103680000Y-142140000D02*
X98180000Y-142140000D01*
X103680000Y-148390000D02*
X98180000Y-148390000D01*
X130180000Y-150140000D02*
X130180000Y-148390000D01*
X98180000Y-148390000D02*
X98180000Y-150140000D01*
X103680000Y-148390000D02*
X103680000Y-146140000D01*
X103680000Y-144140000D02*
X103680000Y-142140000D01*
X98180000Y-146140000D02*
X98180000Y-144140000D01*
X98180000Y-142140000D02*
X98180000Y-140140000D01*
X103680000Y-140140000D02*
X103680000Y-138140000D01*
X98180000Y-138140000D02*
X98180000Y-136140000D01*
X124680000Y-140140000D02*
X124680000Y-138140000D01*
X124680000Y-144140000D02*
X124680000Y-142140000D01*
X124680000Y-148390000D02*
X124680000Y-146140000D01*
X130180000Y-146140000D02*
X130180000Y-144140000D01*
X130180000Y-142140000D02*
X130180000Y-140140000D01*
X130180000Y-138140000D02*
X130180000Y-136140000D01*
X112430000Y-149390000D02*
X112430000Y-148890000D01*
X112430000Y-148390000D02*
X112430000Y-147890000D01*
X115930000Y-149390000D02*
X115930000Y-148890000D01*
X115930000Y-148390000D02*
X115930000Y-147890000D01*
X115930000Y-147390000D02*
X115930000Y-147140000D01*
X112430000Y-147390000D02*
X112430000Y-147140000D01*
X112430000Y-149890000D02*
X112430000Y-150140000D01*
X115930000Y-149890000D02*
X115930000Y-150140000D01*
D13*
G04 #@! TO.C,J5*
X87734400Y-93075600D02*
X88090000Y-92720000D01*
X87709000Y-99108100D02*
X87709000Y-93113700D01*
X81740000Y-100340000D02*
X86820000Y-100340000D01*
X81232000Y-92859700D02*
X81232000Y-99158900D01*
X80851000Y-92453300D02*
X81206600Y-92897800D01*
X80851000Y-86357300D02*
X80851000Y-92478700D01*
X88090000Y-86331900D02*
X80863700Y-86331900D01*
X88090000Y-92720000D02*
X88090000Y-86370000D01*
X81232000Y-99158900D02*
X87709000Y-99158900D01*
G04 #@! TO.C,J6*
X145734400Y-93075600D02*
X146090000Y-92720000D01*
X145709000Y-99108100D02*
X145709000Y-93113700D01*
X139740000Y-100340000D02*
X144820000Y-100340000D01*
X139232000Y-92859700D02*
X139232000Y-99158900D01*
X138851000Y-92453300D02*
X139206600Y-92897800D01*
X138851000Y-86357300D02*
X138851000Y-92478700D01*
X146090000Y-86331900D02*
X138863700Y-86331900D01*
X146090000Y-92720000D02*
X146090000Y-86370000D01*
X139232000Y-99158900D02*
X145709000Y-99158900D01*
D14*
G04 #@! TO.C,J4*
X106880000Y-66990000D02*
X108980000Y-66990000D01*
X106580000Y-67290000D02*
X106580000Y-65690000D01*
X108280000Y-67290000D02*
X106580000Y-67290000D01*
X116080000Y-66990000D02*
X116080000Y-65190000D01*
X113980000Y-66990000D02*
X116080000Y-66990000D01*
X106880000Y-52290000D02*
X106880000Y-66990000D01*
X116080000Y-52290000D02*
X106880000Y-52290000D01*
X116080000Y-60790000D02*
X116080000Y-52290000D01*
G04 #@! TO.C,J1*
X99850000Y-80590000D02*
X97250000Y-80590000D01*
X99850000Y-80590000D02*
X99850000Y-106110000D01*
X99850000Y-106110000D02*
X94650000Y-106110000D01*
X94650000Y-83190000D02*
X94650000Y-106110000D01*
X97250000Y-83190000D02*
X94650000Y-83190000D01*
X97250000Y-80590000D02*
X97250000Y-83190000D01*
X94650000Y-80590000D02*
X94650000Y-81920000D01*
X95980000Y-80590000D02*
X94650000Y-80590000D01*
G04 #@! TO.C,J2*
X128980000Y-80590000D02*
X127650000Y-80590000D01*
X127650000Y-80590000D02*
X127650000Y-81920000D01*
X130250000Y-80590000D02*
X130250000Y-83190000D01*
X130250000Y-83190000D02*
X127650000Y-83190000D01*
X127650000Y-83190000D02*
X127650000Y-106110000D01*
X132850000Y-106110000D02*
X127650000Y-106110000D01*
X132850000Y-80590000D02*
X132850000Y-106110000D01*
X132850000Y-80590000D02*
X130250000Y-80590000D01*
G04 #@! TO.C,U2*
X109010000Y-146680000D02*
X119250000Y-146680000D01*
X109010000Y-142039000D02*
X119250000Y-142039000D01*
X109010000Y-146680000D02*
X109010000Y-142039000D01*
X119250000Y-146680000D02*
X119250000Y-142039000D01*
X109010000Y-145170000D02*
X119250000Y-145170000D01*
X112280000Y-146680000D02*
X112280000Y-145170000D01*
X115981000Y-146680000D02*
X115981000Y-145170000D01*
G04 #@! TO.C,C2*
X126145000Y-133364775D02*
X125645000Y-133364775D01*
X125895000Y-133614775D02*
X125895000Y-133114775D01*
X124704000Y-128209000D02*
X124136000Y-128209000D01*
X124938000Y-128249000D02*
X123902000Y-128249000D01*
X125097000Y-128289000D02*
X123743000Y-128289000D01*
X125225000Y-128329000D02*
X123615000Y-128329000D01*
X125335000Y-128369000D02*
X123505000Y-128369000D01*
X125431000Y-128409000D02*
X123409000Y-128409000D01*
X125518000Y-128449000D02*
X123322000Y-128449000D01*
X125598000Y-128489000D02*
X123242000Y-128489000D01*
X123380000Y-128529000D02*
X123169000Y-128529000D01*
X125671000Y-128529000D02*
X125460000Y-128529000D01*
X123380000Y-128569000D02*
X123101000Y-128569000D01*
X125739000Y-128569000D02*
X125460000Y-128569000D01*
X123380000Y-128609000D02*
X123037000Y-128609000D01*
X125803000Y-128609000D02*
X125460000Y-128609000D01*
X123380000Y-128649000D02*
X122977000Y-128649000D01*
X125863000Y-128649000D02*
X125460000Y-128649000D01*
X123380000Y-128689000D02*
X122920000Y-128689000D01*
X125920000Y-128689000D02*
X125460000Y-128689000D01*
X123380000Y-128729000D02*
X122866000Y-128729000D01*
X125974000Y-128729000D02*
X125460000Y-128729000D01*
X123380000Y-128769000D02*
X122815000Y-128769000D01*
X126025000Y-128769000D02*
X125460000Y-128769000D01*
X123380000Y-128809000D02*
X122767000Y-128809000D01*
X126073000Y-128809000D02*
X125460000Y-128809000D01*
X123380000Y-128849000D02*
X122721000Y-128849000D01*
X126119000Y-128849000D02*
X125460000Y-128849000D01*
X123380000Y-128889000D02*
X122677000Y-128889000D01*
X126163000Y-128889000D02*
X125460000Y-128889000D01*
X123380000Y-128929000D02*
X122635000Y-128929000D01*
X126205000Y-128929000D02*
X125460000Y-128929000D01*
X123380000Y-128969000D02*
X122594000Y-128969000D01*
X126246000Y-128969000D02*
X125460000Y-128969000D01*
X123380000Y-129009000D02*
X122556000Y-129009000D01*
X126284000Y-129009000D02*
X125460000Y-129009000D01*
X123380000Y-129049000D02*
X122519000Y-129049000D01*
X126321000Y-129049000D02*
X125460000Y-129049000D01*
X123380000Y-129089000D02*
X122483000Y-129089000D01*
X126357000Y-129089000D02*
X125460000Y-129089000D01*
X123380000Y-129129000D02*
X122449000Y-129129000D01*
X126391000Y-129129000D02*
X125460000Y-129129000D01*
X123380000Y-129169000D02*
X122416000Y-129169000D01*
X126424000Y-129169000D02*
X125460000Y-129169000D01*
X123380000Y-129209000D02*
X122385000Y-129209000D01*
X126455000Y-129209000D02*
X125460000Y-129209000D01*
X123380000Y-129249000D02*
X122355000Y-129249000D01*
X126485000Y-129249000D02*
X125460000Y-129249000D01*
X123380000Y-129289000D02*
X122325000Y-129289000D01*
X126515000Y-129289000D02*
X125460000Y-129289000D01*
X123380000Y-129329000D02*
X122298000Y-129329000D01*
X126542000Y-129329000D02*
X125460000Y-129329000D01*
X123380000Y-129369000D02*
X122271000Y-129369000D01*
X126569000Y-129369000D02*
X125460000Y-129369000D01*
X123380000Y-129409000D02*
X122245000Y-129409000D01*
X126595000Y-129409000D02*
X125460000Y-129409000D01*
X123380000Y-129449000D02*
X122220000Y-129449000D01*
X126620000Y-129449000D02*
X125460000Y-129449000D01*
X123380000Y-129489000D02*
X122196000Y-129489000D01*
X126644000Y-129489000D02*
X125460000Y-129489000D01*
X123380000Y-129529000D02*
X122173000Y-129529000D01*
X126667000Y-129529000D02*
X125460000Y-129529000D01*
X123380000Y-129569000D02*
X122152000Y-129569000D01*
X126688000Y-129569000D02*
X125460000Y-129569000D01*
X123380000Y-129609000D02*
X122130000Y-129609000D01*
X126710000Y-129609000D02*
X125460000Y-129609000D01*
X123380000Y-129649000D02*
X122110000Y-129649000D01*
X126730000Y-129649000D02*
X125460000Y-129649000D01*
X123380000Y-129689000D02*
X122091000Y-129689000D01*
X126749000Y-129689000D02*
X125460000Y-129689000D01*
X123380000Y-129729000D02*
X122072000Y-129729000D01*
X126768000Y-129729000D02*
X125460000Y-129729000D01*
X123380000Y-129769000D02*
X122055000Y-129769000D01*
X126785000Y-129769000D02*
X125460000Y-129769000D01*
X123380000Y-129809000D02*
X122038000Y-129809000D01*
X126802000Y-129809000D02*
X125460000Y-129809000D01*
X123380000Y-129849000D02*
X122022000Y-129849000D01*
X126818000Y-129849000D02*
X125460000Y-129849000D01*
X123380000Y-129889000D02*
X122006000Y-129889000D01*
X126834000Y-129889000D02*
X125460000Y-129889000D01*
X123380000Y-129929000D02*
X121992000Y-129929000D01*
X126848000Y-129929000D02*
X125460000Y-129929000D01*
X123380000Y-129969000D02*
X121978000Y-129969000D01*
X126862000Y-129969000D02*
X125460000Y-129969000D01*
X123380000Y-130009000D02*
X121965000Y-130009000D01*
X126875000Y-130009000D02*
X125460000Y-130009000D01*
X123380000Y-130049000D02*
X121952000Y-130049000D01*
X126888000Y-130049000D02*
X125460000Y-130049000D01*
X123380000Y-130089000D02*
X121940000Y-130089000D01*
X126900000Y-130089000D02*
X125460000Y-130089000D01*
X123380000Y-130130000D02*
X121929000Y-130130000D01*
X126911000Y-130130000D02*
X125460000Y-130130000D01*
X123380000Y-130170000D02*
X121919000Y-130170000D01*
X126921000Y-130170000D02*
X125460000Y-130170000D01*
X123380000Y-130210000D02*
X121909000Y-130210000D01*
X126931000Y-130210000D02*
X125460000Y-130210000D01*
X123380000Y-130250000D02*
X121900000Y-130250000D01*
X126940000Y-130250000D02*
X125460000Y-130250000D01*
X123380000Y-130290000D02*
X121892000Y-130290000D01*
X126948000Y-130290000D02*
X125460000Y-130290000D01*
X123380000Y-130330000D02*
X121884000Y-130330000D01*
X126956000Y-130330000D02*
X125460000Y-130330000D01*
X123380000Y-130370000D02*
X121877000Y-130370000D01*
X126963000Y-130370000D02*
X125460000Y-130370000D01*
X123380000Y-130410000D02*
X121870000Y-130410000D01*
X126970000Y-130410000D02*
X125460000Y-130410000D01*
X123380000Y-130450000D02*
X121864000Y-130450000D01*
X126976000Y-130450000D02*
X125460000Y-130450000D01*
X123380000Y-130490000D02*
X121859000Y-130490000D01*
X126981000Y-130490000D02*
X125460000Y-130490000D01*
X123380000Y-130530000D02*
X121855000Y-130530000D01*
X126985000Y-130530000D02*
X125460000Y-130530000D01*
X123380000Y-130570000D02*
X121851000Y-130570000D01*
X126989000Y-130570000D02*
X125460000Y-130570000D01*
X126993000Y-130610000D02*
X121847000Y-130610000D01*
X126996000Y-130650000D02*
X121844000Y-130650000D01*
X126998000Y-130690000D02*
X121842000Y-130690000D01*
X126999000Y-130730000D02*
X121841000Y-130730000D01*
X127000000Y-130770000D02*
X121840000Y-130770000D01*
X127000000Y-130810000D02*
X121840000Y-130810000D01*
X127040000Y-130810000D02*
G75*
G03X127040000Y-130810000I-2620000J0D01*
G01*
G04 #@! TO.C,C1*
X128960000Y-60810000D02*
G75*
G03X128960000Y-60810000I-2620000J0D01*
G01*
X126340000Y-58230000D02*
X126340000Y-63390000D01*
X126300000Y-58230000D02*
X126300000Y-63390000D01*
X126260000Y-58231000D02*
X126260000Y-63389000D01*
X126220000Y-58232000D02*
X126220000Y-63388000D01*
X126180000Y-58234000D02*
X126180000Y-63386000D01*
X126140000Y-58237000D02*
X126140000Y-63383000D01*
X126100000Y-58241000D02*
X126100000Y-59770000D01*
X126100000Y-61850000D02*
X126100000Y-63379000D01*
X126060000Y-58245000D02*
X126060000Y-59770000D01*
X126060000Y-61850000D02*
X126060000Y-63375000D01*
X126020000Y-58249000D02*
X126020000Y-59770000D01*
X126020000Y-61850000D02*
X126020000Y-63371000D01*
X125980000Y-58254000D02*
X125980000Y-59770000D01*
X125980000Y-61850000D02*
X125980000Y-63366000D01*
X125940000Y-58260000D02*
X125940000Y-59770000D01*
X125940000Y-61850000D02*
X125940000Y-63360000D01*
X125900000Y-58267000D02*
X125900000Y-59770000D01*
X125900000Y-61850000D02*
X125900000Y-63353000D01*
X125860000Y-58274000D02*
X125860000Y-59770000D01*
X125860000Y-61850000D02*
X125860000Y-63346000D01*
X125820000Y-58282000D02*
X125820000Y-59770000D01*
X125820000Y-61850000D02*
X125820000Y-63338000D01*
X125780000Y-58290000D02*
X125780000Y-59770000D01*
X125780000Y-61850000D02*
X125780000Y-63330000D01*
X125740000Y-58299000D02*
X125740000Y-59770000D01*
X125740000Y-61850000D02*
X125740000Y-63321000D01*
X125700000Y-58309000D02*
X125700000Y-59770000D01*
X125700000Y-61850000D02*
X125700000Y-63311000D01*
X125660000Y-58319000D02*
X125660000Y-59770000D01*
X125660000Y-61850000D02*
X125660000Y-63301000D01*
X125619000Y-58330000D02*
X125619000Y-59770000D01*
X125619000Y-61850000D02*
X125619000Y-63290000D01*
X125579000Y-58342000D02*
X125579000Y-59770000D01*
X125579000Y-61850000D02*
X125579000Y-63278000D01*
X125539000Y-58355000D02*
X125539000Y-59770000D01*
X125539000Y-61850000D02*
X125539000Y-63265000D01*
X125499000Y-58368000D02*
X125499000Y-59770000D01*
X125499000Y-61850000D02*
X125499000Y-63252000D01*
X125459000Y-58382000D02*
X125459000Y-59770000D01*
X125459000Y-61850000D02*
X125459000Y-63238000D01*
X125419000Y-58396000D02*
X125419000Y-59770000D01*
X125419000Y-61850000D02*
X125419000Y-63224000D01*
X125379000Y-58412000D02*
X125379000Y-59770000D01*
X125379000Y-61850000D02*
X125379000Y-63208000D01*
X125339000Y-58428000D02*
X125339000Y-59770000D01*
X125339000Y-61850000D02*
X125339000Y-63192000D01*
X125299000Y-58445000D02*
X125299000Y-59770000D01*
X125299000Y-61850000D02*
X125299000Y-63175000D01*
X125259000Y-58462000D02*
X125259000Y-59770000D01*
X125259000Y-61850000D02*
X125259000Y-63158000D01*
X125219000Y-58481000D02*
X125219000Y-59770000D01*
X125219000Y-61850000D02*
X125219000Y-63139000D01*
X125179000Y-58500000D02*
X125179000Y-59770000D01*
X125179000Y-61850000D02*
X125179000Y-63120000D01*
X125139000Y-58520000D02*
X125139000Y-59770000D01*
X125139000Y-61850000D02*
X125139000Y-63100000D01*
X125099000Y-58542000D02*
X125099000Y-59770000D01*
X125099000Y-61850000D02*
X125099000Y-63078000D01*
X125059000Y-58563000D02*
X125059000Y-59770000D01*
X125059000Y-61850000D02*
X125059000Y-63057000D01*
X125019000Y-58586000D02*
X125019000Y-59770000D01*
X125019000Y-61850000D02*
X125019000Y-63034000D01*
X124979000Y-58610000D02*
X124979000Y-59770000D01*
X124979000Y-61850000D02*
X124979000Y-63010000D01*
X124939000Y-58635000D02*
X124939000Y-59770000D01*
X124939000Y-61850000D02*
X124939000Y-62985000D01*
X124899000Y-58661000D02*
X124899000Y-59770000D01*
X124899000Y-61850000D02*
X124899000Y-62959000D01*
X124859000Y-58688000D02*
X124859000Y-59770000D01*
X124859000Y-61850000D02*
X124859000Y-62932000D01*
X124819000Y-58715000D02*
X124819000Y-59770000D01*
X124819000Y-61850000D02*
X124819000Y-62905000D01*
X124779000Y-58745000D02*
X124779000Y-59770000D01*
X124779000Y-61850000D02*
X124779000Y-62875000D01*
X124739000Y-58775000D02*
X124739000Y-59770000D01*
X124739000Y-61850000D02*
X124739000Y-62845000D01*
X124699000Y-58806000D02*
X124699000Y-59770000D01*
X124699000Y-61850000D02*
X124699000Y-62814000D01*
X124659000Y-58839000D02*
X124659000Y-59770000D01*
X124659000Y-61850000D02*
X124659000Y-62781000D01*
X124619000Y-58873000D02*
X124619000Y-59770000D01*
X124619000Y-61850000D02*
X124619000Y-62747000D01*
X124579000Y-58909000D02*
X124579000Y-59770000D01*
X124579000Y-61850000D02*
X124579000Y-62711000D01*
X124539000Y-58946000D02*
X124539000Y-59770000D01*
X124539000Y-61850000D02*
X124539000Y-62674000D01*
X124499000Y-58984000D02*
X124499000Y-59770000D01*
X124499000Y-61850000D02*
X124499000Y-62636000D01*
X124459000Y-59025000D02*
X124459000Y-59770000D01*
X124459000Y-61850000D02*
X124459000Y-62595000D01*
X124419000Y-59067000D02*
X124419000Y-59770000D01*
X124419000Y-61850000D02*
X124419000Y-62553000D01*
X124379000Y-59111000D02*
X124379000Y-59770000D01*
X124379000Y-61850000D02*
X124379000Y-62509000D01*
X124339000Y-59157000D02*
X124339000Y-59770000D01*
X124339000Y-61850000D02*
X124339000Y-62463000D01*
X124299000Y-59205000D02*
X124299000Y-59770000D01*
X124299000Y-61850000D02*
X124299000Y-62415000D01*
X124259000Y-59256000D02*
X124259000Y-59770000D01*
X124259000Y-61850000D02*
X124259000Y-62364000D01*
X124219000Y-59310000D02*
X124219000Y-59770000D01*
X124219000Y-61850000D02*
X124219000Y-62310000D01*
X124179000Y-59367000D02*
X124179000Y-59770000D01*
X124179000Y-61850000D02*
X124179000Y-62253000D01*
X124139000Y-59427000D02*
X124139000Y-59770000D01*
X124139000Y-61850000D02*
X124139000Y-62193000D01*
X124099000Y-59491000D02*
X124099000Y-59770000D01*
X124099000Y-61850000D02*
X124099000Y-62129000D01*
X124059000Y-59559000D02*
X124059000Y-59770000D01*
X124059000Y-61850000D02*
X124059000Y-62061000D01*
X124019000Y-59632000D02*
X124019000Y-61988000D01*
X123979000Y-59712000D02*
X123979000Y-61908000D01*
X123939000Y-59799000D02*
X123939000Y-61821000D01*
X123899000Y-59895000D02*
X123899000Y-61725000D01*
X123859000Y-60005000D02*
X123859000Y-61615000D01*
X123819000Y-60133000D02*
X123819000Y-61487000D01*
X123779000Y-60292000D02*
X123779000Y-61328000D01*
X123739000Y-60526000D02*
X123739000Y-61094000D01*
X129144775Y-59335000D02*
X128644775Y-59335000D01*
X128894775Y-59085000D02*
X128894775Y-59585000D01*
G04 #@! TO.C,J7*
X88840000Y-113660000D02*
X88840000Y-121400000D01*
X88840000Y-121400000D02*
X86180000Y-121400000D01*
X86180000Y-121400000D02*
X86180000Y-113660000D01*
X86180000Y-113660000D02*
X88840000Y-113660000D01*
X86180000Y-114610000D02*
X80180000Y-114610000D01*
X80180000Y-114610000D02*
X80180000Y-115370000D01*
X80180000Y-115370000D02*
X86180000Y-115370000D01*
X86180000Y-114670000D02*
X80180000Y-114670000D01*
X86180000Y-114790000D02*
X80180000Y-114790000D01*
X86180000Y-114910000D02*
X80180000Y-114910000D01*
X86180000Y-115030000D02*
X80180000Y-115030000D01*
X86180000Y-115150000D02*
X80180000Y-115150000D01*
X86180000Y-115270000D02*
X80180000Y-115270000D01*
X89170000Y-114610000D02*
X88840000Y-114610000D01*
X89170000Y-115370000D02*
X88840000Y-115370000D01*
X88840000Y-116260000D02*
X86180000Y-116260000D01*
X86180000Y-117150000D02*
X80180000Y-117150000D01*
X80180000Y-117150000D02*
X80180000Y-117910000D01*
X80180000Y-117910000D02*
X86180000Y-117910000D01*
X89237071Y-117150000D02*
X88840000Y-117150000D01*
X89237071Y-117910000D02*
X88840000Y-117910000D01*
X88840000Y-118800000D02*
X86180000Y-118800000D01*
X86180000Y-119690000D02*
X80180000Y-119690000D01*
X80180000Y-119690000D02*
X80180000Y-120450000D01*
X80180000Y-120450000D02*
X86180000Y-120450000D01*
X89237071Y-119690000D02*
X88840000Y-119690000D01*
X89237071Y-120450000D02*
X88840000Y-120450000D01*
X91550000Y-114990000D02*
X91550000Y-113720000D01*
X91550000Y-113720000D02*
X90280000Y-113720000D01*
G04 #@! TO.C,J8*
X136010000Y-121260000D02*
X137280000Y-121260000D01*
X136010000Y-119990000D02*
X136010000Y-121260000D01*
X138322929Y-114530000D02*
X138720000Y-114530000D01*
X138322929Y-115290000D02*
X138720000Y-115290000D01*
X147380000Y-114530000D02*
X141380000Y-114530000D01*
X147380000Y-115290000D02*
X147380000Y-114530000D01*
X141380000Y-115290000D02*
X147380000Y-115290000D01*
X138720000Y-116180000D02*
X141380000Y-116180000D01*
X138322929Y-117070000D02*
X138720000Y-117070000D01*
X138322929Y-117830000D02*
X138720000Y-117830000D01*
X147380000Y-117070000D02*
X141380000Y-117070000D01*
X147380000Y-117830000D02*
X147380000Y-117070000D01*
X141380000Y-117830000D02*
X147380000Y-117830000D01*
X138720000Y-118720000D02*
X141380000Y-118720000D01*
X138390000Y-119610000D02*
X138720000Y-119610000D01*
X138390000Y-120370000D02*
X138720000Y-120370000D01*
X141380000Y-119710000D02*
X147380000Y-119710000D01*
X141380000Y-119830000D02*
X147380000Y-119830000D01*
X141380000Y-119950000D02*
X147380000Y-119950000D01*
X141380000Y-120070000D02*
X147380000Y-120070000D01*
X141380000Y-120190000D02*
X147380000Y-120190000D01*
X141380000Y-120310000D02*
X147380000Y-120310000D01*
X147380000Y-119610000D02*
X141380000Y-119610000D01*
X147380000Y-120370000D02*
X147380000Y-119610000D01*
X141380000Y-120370000D02*
X147380000Y-120370000D01*
X141380000Y-121320000D02*
X138720000Y-121320000D01*
X141380000Y-113580000D02*
X141380000Y-121320000D01*
X138720000Y-113580000D02*
X141380000Y-113580000D01*
X138720000Y-121320000D02*
X138720000Y-113580000D01*
G04 #@! TO.C,J3*
X108640000Y-132140000D02*
X108640000Y-126170000D01*
X108640000Y-126170000D02*
X116260000Y-126170000D01*
X116260000Y-126170000D02*
X116260000Y-132140000D01*
X116260000Y-132140000D02*
X108640000Y-132140000D01*
X111950000Y-132130000D02*
X111950000Y-131380000D01*
X111950000Y-131380000D02*
X112950000Y-131380000D01*
X112950000Y-131380000D02*
X112950000Y-132130000D01*
X112950000Y-132130000D02*
X111950000Y-132130000D01*
X108650000Y-132130000D02*
X108650000Y-131380000D01*
X108650000Y-131380000D02*
X110450000Y-131380000D01*
X110450000Y-131380000D02*
X110450000Y-132130000D01*
X110450000Y-132130000D02*
X108650000Y-132130000D01*
X114450000Y-132130000D02*
X114450000Y-131380000D01*
X114450000Y-131380000D02*
X116250000Y-131380000D01*
X116250000Y-131380000D02*
X116250000Y-132130000D01*
X116250000Y-132130000D02*
X114450000Y-132130000D01*
X108650000Y-129880000D02*
X109400000Y-129880000D01*
X109400000Y-129880000D02*
X109400000Y-128540000D01*
X112450000Y-126930000D02*
X110460000Y-126930000D01*
X116250000Y-129880000D02*
X115500000Y-129880000D01*
X115500000Y-129880000D02*
X115500000Y-126930000D01*
X115500000Y-126930000D02*
X112450000Y-126930000D01*
X109600000Y-132430000D02*
X108350000Y-132430000D01*
X108350000Y-132430000D02*
X108350000Y-131180000D01*
G04 #@! TO.C,J9*
X138720000Y-142000148D02*
X138720000Y-134260148D01*
X138720000Y-134260148D02*
X141380000Y-134260148D01*
X141380000Y-134260148D02*
X141380000Y-142000148D01*
X141380000Y-142000148D02*
X138720000Y-142000148D01*
X141380000Y-141050148D02*
X147380000Y-141050148D01*
X147380000Y-141050148D02*
X147380000Y-140290148D01*
X147380000Y-140290148D02*
X141380000Y-140290148D01*
X141380000Y-140990148D02*
X147380000Y-140990148D01*
X141380000Y-140870148D02*
X147380000Y-140870148D01*
X141380000Y-140750148D02*
X147380000Y-140750148D01*
X141380000Y-140630148D02*
X147380000Y-140630148D01*
X141380000Y-140510148D02*
X147380000Y-140510148D01*
X141380000Y-140390148D02*
X147380000Y-140390148D01*
X138390000Y-141050148D02*
X138720000Y-141050148D01*
X138390000Y-140290148D02*
X138720000Y-140290148D01*
X138720000Y-139400148D02*
X141380000Y-139400148D01*
X141380000Y-138510148D02*
X147380000Y-138510148D01*
X147380000Y-138510148D02*
X147380000Y-137750148D01*
X147380000Y-137750148D02*
X141380000Y-137750148D01*
X138322929Y-138510148D02*
X138720000Y-138510148D01*
X138322929Y-137750148D02*
X138720000Y-137750148D01*
X138720000Y-136860148D02*
X141380000Y-136860148D01*
X141380000Y-135970148D02*
X147380000Y-135970148D01*
X147380000Y-135970148D02*
X147380000Y-135210148D01*
X147380000Y-135210148D02*
X141380000Y-135210148D01*
X138322929Y-135970148D02*
X138720000Y-135970148D01*
X138322929Y-135210148D02*
X138720000Y-135210148D01*
X136010000Y-140670148D02*
X136010000Y-141940148D01*
X136010000Y-141940148D02*
X137280000Y-141940148D01*
G04 #@! TO.C,HS1*
D12*
X115418095Y-151592380D02*
X115418095Y-150592380D01*
X115418095Y-151068571D02*
X114846666Y-151068571D01*
X114846666Y-151592380D02*
X114846666Y-150592380D01*
X114418095Y-151544761D02*
X114275238Y-151592380D01*
X114037142Y-151592380D01*
X113941904Y-151544761D01*
X113894285Y-151497142D01*
X113846666Y-151401904D01*
X113846666Y-151306666D01*
X113894285Y-151211428D01*
X113941904Y-151163809D01*
X114037142Y-151116190D01*
X114227619Y-151068571D01*
X114322857Y-151020952D01*
X114370476Y-150973333D01*
X114418095Y-150878095D01*
X114418095Y-150782857D01*
X114370476Y-150687619D01*
X114322857Y-150640000D01*
X114227619Y-150592380D01*
X113989523Y-150592380D01*
X113846666Y-150640000D01*
X112894285Y-151592380D02*
X113465714Y-151592380D01*
X113180000Y-151592380D02*
X113180000Y-150592380D01*
X113275238Y-150735238D01*
X113370476Y-150830476D01*
X113465714Y-150878095D01*
G04 #@! TO.C,J5*
D15*
X84488000Y-83555428D02*
X84488000Y-84644000D01*
X84560571Y-84861714D01*
X84705714Y-85006857D01*
X84923428Y-85079428D01*
X85068571Y-85079428D01*
X83036571Y-83555428D02*
X83762285Y-83555428D01*
X83834857Y-84281142D01*
X83762285Y-84208571D01*
X83617142Y-84136000D01*
X83254285Y-84136000D01*
X83109142Y-84208571D01*
X83036571Y-84281142D01*
X82964000Y-84426285D01*
X82964000Y-84789142D01*
X83036571Y-84934285D01*
X83109142Y-85006857D01*
X83254285Y-85079428D01*
X83617142Y-85079428D01*
X83762285Y-85006857D01*
X83834857Y-84934285D01*
D11*
X92391904Y-90251428D02*
X91630000Y-90251428D01*
X92010952Y-90632380D02*
X92010952Y-89870476D01*
X90630000Y-90632380D02*
X91201428Y-90632380D01*
X90915714Y-90632380D02*
X90915714Y-89632380D01*
X91010952Y-89775238D01*
X91106190Y-89870476D01*
X91201428Y-89918095D01*
X90249047Y-89727619D02*
X90201428Y-89680000D01*
X90106190Y-89632380D01*
X89868095Y-89632380D01*
X89772857Y-89680000D01*
X89725238Y-89727619D01*
X89677619Y-89822857D01*
X89677619Y-89918095D01*
X89725238Y-90060952D01*
X90296666Y-90632380D01*
X89677619Y-90632380D01*
X89391904Y-89632380D02*
X89058571Y-90632380D01*
X88725238Y-89632380D01*
X89660952Y-98061428D02*
X88899047Y-98061428D01*
G04 #@! TO.C,J6*
D15*
X142788000Y-83155428D02*
X142788000Y-84244000D01*
X142860571Y-84461714D01*
X143005714Y-84606857D01*
X143223428Y-84679428D01*
X143368571Y-84679428D01*
X141409142Y-83155428D02*
X141699428Y-83155428D01*
X141844571Y-83228000D01*
X141917142Y-83300571D01*
X142062285Y-83518285D01*
X142134857Y-83808571D01*
X142134857Y-84389142D01*
X142062285Y-84534285D01*
X141989714Y-84606857D01*
X141844571Y-84679428D01*
X141554285Y-84679428D01*
X141409142Y-84606857D01*
X141336571Y-84534285D01*
X141264000Y-84389142D01*
X141264000Y-84026285D01*
X141336571Y-83881142D01*
X141409142Y-83808571D01*
X141554285Y-83736000D01*
X141844571Y-83736000D01*
X141989714Y-83808571D01*
X142062285Y-83881142D01*
X142134857Y-84026285D01*
D11*
X138041904Y-90061428D02*
X137280000Y-90061428D01*
X137660952Y-90442380D02*
X137660952Y-89680476D01*
X136280000Y-90442380D02*
X136851428Y-90442380D01*
X136565714Y-90442380D02*
X136565714Y-89442380D01*
X136660952Y-89585238D01*
X136756190Y-89680476D01*
X136851428Y-89728095D01*
X135899047Y-89537619D02*
X135851428Y-89490000D01*
X135756190Y-89442380D01*
X135518095Y-89442380D01*
X135422857Y-89490000D01*
X135375238Y-89537619D01*
X135327619Y-89632857D01*
X135327619Y-89728095D01*
X135375238Y-89870952D01*
X135946666Y-90442380D01*
X135327619Y-90442380D01*
X135041904Y-89442380D02*
X134708571Y-90442380D01*
X134375238Y-89442380D01*
X136660952Y-97871428D02*
X135899047Y-97871428D01*
G04 #@! TO.C,J4*
D12*
X111813333Y-67942380D02*
X111813333Y-68656666D01*
X111860952Y-68799523D01*
X111956190Y-68894761D01*
X112099047Y-68942380D01*
X112194285Y-68942380D01*
X110908571Y-68275714D02*
X110908571Y-68942380D01*
X111146666Y-67894761D02*
X111384761Y-68609047D01*
X110765714Y-68609047D01*
G04 #@! TO.C,J1*
X97583333Y-78602380D02*
X97583333Y-79316666D01*
X97630952Y-79459523D01*
X97726190Y-79554761D01*
X97869047Y-79602380D01*
X97964285Y-79602380D01*
X96583333Y-79602380D02*
X97154761Y-79602380D01*
X96869047Y-79602380D02*
X96869047Y-78602380D01*
X96964285Y-78745238D01*
X97059523Y-78840476D01*
X97154761Y-78888095D01*
G04 #@! TO.C,J2*
X130583333Y-78602380D02*
X130583333Y-79316666D01*
X130630952Y-79459523D01*
X130726190Y-79554761D01*
X130869047Y-79602380D01*
X130964285Y-79602380D01*
X130154761Y-78697619D02*
X130107142Y-78650000D01*
X130011904Y-78602380D01*
X129773809Y-78602380D01*
X129678571Y-78650000D01*
X129630952Y-78697619D01*
X129583333Y-78792857D01*
X129583333Y-78888095D01*
X129630952Y-79030952D01*
X130202380Y-79602380D01*
X129583333Y-79602380D01*
G04 #@! TO.C,U2*
X114891904Y-147132380D02*
X114891904Y-147941904D01*
X114844285Y-148037142D01*
X114796666Y-148084761D01*
X114701428Y-148132380D01*
X114510952Y-148132380D01*
X114415714Y-148084761D01*
X114368095Y-148037142D01*
X114320476Y-147941904D01*
X114320476Y-147132380D01*
X113891904Y-147227619D02*
X113844285Y-147180000D01*
X113749047Y-147132380D01*
X113510952Y-147132380D01*
X113415714Y-147180000D01*
X113368095Y-147227619D01*
X113320476Y-147322857D01*
X113320476Y-147418095D01*
X113368095Y-147560952D01*
X113939523Y-148132380D01*
X113320476Y-148132380D01*
G04 #@! TO.C,C2*
X128527142Y-130643333D02*
X128574761Y-130595714D01*
X128622380Y-130452857D01*
X128622380Y-130357619D01*
X128574761Y-130214761D01*
X128479523Y-130119523D01*
X128384285Y-130071904D01*
X128193809Y-130024285D01*
X128050952Y-130024285D01*
X127860476Y-130071904D01*
X127765238Y-130119523D01*
X127670000Y-130214761D01*
X127622380Y-130357619D01*
X127622380Y-130452857D01*
X127670000Y-130595714D01*
X127717619Y-130643333D01*
X127717619Y-131024285D02*
X127670000Y-131071904D01*
X127622380Y-131167142D01*
X127622380Y-131405238D01*
X127670000Y-131500476D01*
X127717619Y-131548095D01*
X127812857Y-131595714D01*
X127908095Y-131595714D01*
X128050952Y-131548095D01*
X128622380Y-130976666D01*
X128622380Y-131595714D01*
G04 #@! TO.C,C1*
X126506666Y-57417142D02*
X126554285Y-57464761D01*
X126697142Y-57512380D01*
X126792380Y-57512380D01*
X126935238Y-57464761D01*
X127030476Y-57369523D01*
X127078095Y-57274285D01*
X127125714Y-57083809D01*
X127125714Y-56940952D01*
X127078095Y-56750476D01*
X127030476Y-56655238D01*
X126935238Y-56560000D01*
X126792380Y-56512380D01*
X126697142Y-56512380D01*
X126554285Y-56560000D01*
X126506666Y-56607619D01*
X125554285Y-57512380D02*
X126125714Y-57512380D01*
X125840000Y-57512380D02*
X125840000Y-56512380D01*
X125935238Y-56655238D01*
X126030476Y-56750476D01*
X126125714Y-56798095D01*
G04 #@! TO.C,J7*
X82613333Y-116442380D02*
X82613333Y-117156666D01*
X82660952Y-117299523D01*
X82756190Y-117394761D01*
X82899047Y-117442380D01*
X82994285Y-117442380D01*
X82232380Y-116442380D02*
X81565714Y-116442380D01*
X81994285Y-117442380D01*
X92089523Y-112442380D02*
X92089523Y-111442380D01*
X91756190Y-112156666D01*
X91422857Y-111442380D01*
X91422857Y-112442380D01*
X90422857Y-112442380D02*
X90994285Y-112442380D01*
X90708571Y-112442380D02*
X90708571Y-111442380D01*
X90803809Y-111585238D01*
X90899047Y-111680476D01*
X90994285Y-111728095D01*
G04 #@! TO.C,J8*
X144613333Y-116442380D02*
X144613333Y-117156666D01*
X144660952Y-117299523D01*
X144756190Y-117394761D01*
X144899047Y-117442380D01*
X144994285Y-117442380D01*
X143994285Y-116870952D02*
X144089523Y-116823333D01*
X144137142Y-116775714D01*
X144184761Y-116680476D01*
X144184761Y-116632857D01*
X144137142Y-116537619D01*
X144089523Y-116490000D01*
X143994285Y-116442380D01*
X143803809Y-116442380D01*
X143708571Y-116490000D01*
X143660952Y-116537619D01*
X143613333Y-116632857D01*
X143613333Y-116680476D01*
X143660952Y-116775714D01*
X143708571Y-116823333D01*
X143803809Y-116870952D01*
X143994285Y-116870952D01*
X144089523Y-116918571D01*
X144137142Y-116966190D01*
X144184761Y-117061428D01*
X144184761Y-117251904D01*
X144137142Y-117347142D01*
X144089523Y-117394761D01*
X143994285Y-117442380D01*
X143803809Y-117442380D01*
X143708571Y-117394761D01*
X143660952Y-117347142D01*
X143613333Y-117251904D01*
X143613333Y-117061428D01*
X143660952Y-116966190D01*
X143708571Y-116918571D01*
X143803809Y-116870952D01*
X137089523Y-112442380D02*
X137089523Y-111442380D01*
X136756190Y-112156666D01*
X136422857Y-111442380D01*
X136422857Y-112442380D01*
X135994285Y-111537619D02*
X135946666Y-111490000D01*
X135851428Y-111442380D01*
X135613333Y-111442380D01*
X135518095Y-111490000D01*
X135470476Y-111537619D01*
X135422857Y-111632857D01*
X135422857Y-111728095D01*
X135470476Y-111870952D01*
X136041904Y-112442380D01*
X135422857Y-112442380D01*
G04 #@! TO.C,J3*
X112783333Y-132682380D02*
X112783333Y-133396666D01*
X112830952Y-133539523D01*
X112926190Y-133634761D01*
X113069047Y-133682380D01*
X113164285Y-133682380D01*
X112402380Y-132682380D02*
X111783333Y-132682380D01*
X112116666Y-133063333D01*
X111973809Y-133063333D01*
X111878571Y-133110952D01*
X111830952Y-133158571D01*
X111783333Y-133253809D01*
X111783333Y-133491904D01*
X111830952Y-133587142D01*
X111878571Y-133634761D01*
X111973809Y-133682380D01*
X112259523Y-133682380D01*
X112354761Y-133634761D01*
X112402380Y-133587142D01*
G04 #@! TO.C,J9*
X140527619Y-141003481D02*
X139813333Y-141003481D01*
X139670476Y-141051100D01*
X139575238Y-141146338D01*
X139527619Y-141289195D01*
X139527619Y-141384433D01*
X139527619Y-140479671D02*
X139527619Y-140289195D01*
X139575238Y-140193957D01*
X139622857Y-140146338D01*
X139765714Y-140051100D01*
X139956190Y-140003481D01*
X140337142Y-140003481D01*
X140432380Y-140051100D01*
X140480000Y-140098719D01*
X140527619Y-140193957D01*
X140527619Y-140384433D01*
X140480000Y-140479671D01*
X140432380Y-140527290D01*
X140337142Y-140574909D01*
X140099047Y-140574909D01*
X140003809Y-140527290D01*
X139956190Y-140479671D01*
X139908571Y-140384433D01*
X139908571Y-140193957D01*
X139956190Y-140098719D01*
X140003809Y-140051100D01*
X140099047Y-140003481D01*
X143540952Y-132912380D02*
X143874285Y-132436190D01*
X144112380Y-132912380D02*
X144112380Y-131912380D01*
X143731428Y-131912380D01*
X143636190Y-131960000D01*
X143588571Y-132007619D01*
X143540952Y-132102857D01*
X143540952Y-132245714D01*
X143588571Y-132340952D01*
X143636190Y-132388571D01*
X143731428Y-132436190D01*
X144112380Y-132436190D01*
X142540952Y-132817142D02*
X142588571Y-132864761D01*
X142731428Y-132912380D01*
X142826666Y-132912380D01*
X142969523Y-132864761D01*
X143064761Y-132769523D01*
X143112380Y-132674285D01*
X143160000Y-132483809D01*
X143160000Y-132340952D01*
X143112380Y-132150476D01*
X143064761Y-132055238D01*
X142969523Y-131960000D01*
X142826666Y-131912380D01*
X142731428Y-131912380D01*
X142588571Y-131960000D01*
X142540952Y-132007619D01*
X142112380Y-132531428D02*
X141350476Y-132531428D01*
X140874285Y-132912380D02*
X140874285Y-131912380D01*
X140493333Y-131912380D01*
X140398095Y-131960000D01*
X140350476Y-132007619D01*
X140302857Y-132102857D01*
X140302857Y-132245714D01*
X140350476Y-132340952D01*
X140398095Y-132388571D01*
X140493333Y-132436190D01*
X140874285Y-132436190D01*
X139874285Y-132912380D02*
X139874285Y-131912380D01*
X139493333Y-131912380D01*
X139398095Y-131960000D01*
X139350476Y-132007619D01*
X139302857Y-132102857D01*
X139302857Y-132245714D01*
X139350476Y-132340952D01*
X139398095Y-132388571D01*
X139493333Y-132436190D01*
X139874285Y-132436190D01*
X138874285Y-132912380D02*
X138874285Y-131912380D01*
X138540952Y-132626666D01*
X138207619Y-131912380D01*
X138207619Y-132912380D01*
G04 #@! TD*
M02*
