G04 #@! TF.GenerationSoftware,KiCad,Pcbnew,5.0.2-bee76a0~70~ubuntu16.04.1*
G04 #@! TF.CreationDate,2021-04-15T07:32:01+02:00*
G04 #@! TF.ProjectId,axis2,61786973-322e-46b6-9963-61645f706362,1.0*
G04 #@! TF.SameCoordinates,Original*
G04 #@! TF.FileFunction,Soldermask,Bot*
G04 #@! TF.FilePolarity,Negative*
%FSLAX46Y46*%
G04 Gerber Fmt 4.6, Leading zero omitted, Abs format (unit mm)*
G04 Created by KiCad (PCBNEW 5.0.2-bee76a0~70~ubuntu16.04.1) date gio 15 apr 2021 07:32:01 CEST*
%MOMM*%
%LPD*%
G01*
G04 APERTURE LIST*
%ADD10C,0.100000*%
G04 APERTURE END LIST*
D10*
G36*
X141091000Y-155461000D02*
X135989000Y-155461000D01*
X135989000Y-150359000D01*
X141091000Y-150359000D01*
X141091000Y-155461000D01*
X141091000Y-155461000D01*
G37*
G36*
X91091000Y-155461000D02*
X85989000Y-155461000D01*
X85989000Y-150359000D01*
X91091000Y-150359000D01*
X91091000Y-155461000D01*
X91091000Y-155461000D01*
G37*
G36*
X123432527Y-143628736D02*
X123532410Y-143648604D01*
X123814674Y-143765521D01*
X124068705Y-143935259D01*
X124284741Y-144151295D01*
X124454479Y-144405326D01*
X124571396Y-144687590D01*
X124631000Y-144987240D01*
X124631000Y-145292760D01*
X124571396Y-145592410D01*
X124454479Y-145874674D01*
X124284741Y-146128705D01*
X124068705Y-146344741D01*
X123814674Y-146514479D01*
X123532410Y-146631396D01*
X123432527Y-146651264D01*
X123232762Y-146691000D01*
X122927238Y-146691000D01*
X122727473Y-146651264D01*
X122627590Y-146631396D01*
X122345326Y-146514479D01*
X122091295Y-146344741D01*
X121875259Y-146128705D01*
X121705521Y-145874674D01*
X121588604Y-145592410D01*
X121529000Y-145292760D01*
X121529000Y-144987240D01*
X121588604Y-144687590D01*
X121705521Y-144405326D01*
X121875259Y-144151295D01*
X122091295Y-143935259D01*
X122345326Y-143765521D01*
X122627590Y-143648604D01*
X122727473Y-143628736D01*
X122927238Y-143589000D01*
X123232762Y-143589000D01*
X123432527Y-143628736D01*
X123432527Y-143628736D01*
G37*
G36*
X105632527Y-143628736D02*
X105732410Y-143648604D01*
X106014674Y-143765521D01*
X106268705Y-143935259D01*
X106484741Y-144151295D01*
X106654479Y-144405326D01*
X106771396Y-144687590D01*
X106831000Y-144987240D01*
X106831000Y-145292760D01*
X106771396Y-145592410D01*
X106654479Y-145874674D01*
X106484741Y-146128705D01*
X106268705Y-146344741D01*
X106014674Y-146514479D01*
X105732410Y-146631396D01*
X105632527Y-146651264D01*
X105432762Y-146691000D01*
X105127238Y-146691000D01*
X104927473Y-146651264D01*
X104827590Y-146631396D01*
X104545326Y-146514479D01*
X104291295Y-146344741D01*
X104075259Y-146128705D01*
X103905521Y-145874674D01*
X103788604Y-145592410D01*
X103729000Y-145292760D01*
X103729000Y-144987240D01*
X103788604Y-144687590D01*
X103905521Y-144405326D01*
X104075259Y-144151295D01*
X104291295Y-143935259D01*
X104545326Y-143765521D01*
X104827590Y-143648604D01*
X104927473Y-143628736D01*
X105127238Y-143589000D01*
X105432762Y-143589000D01*
X105632527Y-143628736D01*
X105632527Y-143628736D01*
G37*
G36*
X114326719Y-142373520D02*
X114515880Y-142430901D01*
X114690212Y-142524083D01*
X114843015Y-142649485D01*
X114968417Y-142802288D01*
X115061599Y-142976619D01*
X115118980Y-143165780D01*
X115133500Y-143313206D01*
X115133500Y-143506793D01*
X115118980Y-143654219D01*
X115061599Y-143843380D01*
X114968417Y-144017712D01*
X114843015Y-144170515D01*
X114690212Y-144295917D01*
X114515881Y-144389099D01*
X114326720Y-144446480D01*
X114130000Y-144465855D01*
X113933281Y-144446480D01*
X113744120Y-144389099D01*
X113569788Y-144295917D01*
X113416985Y-144170515D01*
X113291583Y-144017712D01*
X113198401Y-143843381D01*
X113141020Y-143654220D01*
X113126500Y-143506794D01*
X113126500Y-143313207D01*
X113141020Y-143165781D01*
X113198401Y-142976620D01*
X113291583Y-142802288D01*
X113416985Y-142649485D01*
X113569788Y-142524083D01*
X113744119Y-142430901D01*
X113933280Y-142373520D01*
X114130000Y-142354145D01*
X114326719Y-142373520D01*
X114326719Y-142373520D01*
G37*
G36*
X116866719Y-142373520D02*
X117055880Y-142430901D01*
X117230212Y-142524083D01*
X117383015Y-142649485D01*
X117508417Y-142802288D01*
X117601599Y-142976619D01*
X117658980Y-143165780D01*
X117673500Y-143313206D01*
X117673500Y-143506793D01*
X117658980Y-143654219D01*
X117601599Y-143843380D01*
X117508417Y-144017712D01*
X117383015Y-144170515D01*
X117230212Y-144295917D01*
X117055881Y-144389099D01*
X116866720Y-144446480D01*
X116670000Y-144465855D01*
X116473281Y-144446480D01*
X116284120Y-144389099D01*
X116109788Y-144295917D01*
X115956985Y-144170515D01*
X115831583Y-144017712D01*
X115738401Y-143843381D01*
X115681020Y-143654220D01*
X115666500Y-143506794D01*
X115666500Y-143313207D01*
X115681020Y-143165781D01*
X115738401Y-142976620D01*
X115831583Y-142802288D01*
X115956985Y-142649485D01*
X116109788Y-142524083D01*
X116284119Y-142430901D01*
X116473280Y-142373520D01*
X116670000Y-142354145D01*
X116866719Y-142373520D01*
X116866719Y-142373520D01*
G37*
G36*
X112593500Y-144461000D02*
X110586500Y-144461000D01*
X110586500Y-142359000D01*
X112593500Y-142359000D01*
X112593500Y-144461000D01*
X112593500Y-144461000D01*
G37*
G36*
X138181000Y-141571148D02*
X136379000Y-141571148D01*
X136379000Y-139769148D01*
X138181000Y-139769148D01*
X138181000Y-141571148D01*
X138181000Y-141571148D01*
G37*
G36*
X137390442Y-137235666D02*
X137456627Y-137242185D01*
X137569853Y-137276532D01*
X137626467Y-137293705D01*
X137765087Y-137367800D01*
X137782991Y-137377370D01*
X137818729Y-137406700D01*
X137920186Y-137489962D01*
X138003448Y-137591419D01*
X138032778Y-137627157D01*
X138032779Y-137627159D01*
X138116443Y-137783681D01*
X138116443Y-137783682D01*
X138167963Y-137953521D01*
X138185359Y-138130148D01*
X138167963Y-138306775D01*
X138133616Y-138420001D01*
X138116443Y-138476615D01*
X138042348Y-138615235D01*
X138032778Y-138633139D01*
X138003448Y-138668877D01*
X137920186Y-138770334D01*
X137818729Y-138853596D01*
X137782991Y-138882926D01*
X137782989Y-138882927D01*
X137626467Y-138966591D01*
X137569853Y-138983764D01*
X137456627Y-139018111D01*
X137390443Y-139024629D01*
X137324260Y-139031148D01*
X137235740Y-139031148D01*
X137169557Y-139024629D01*
X137103373Y-139018111D01*
X136990147Y-138983764D01*
X136933533Y-138966591D01*
X136777011Y-138882927D01*
X136777009Y-138882926D01*
X136741271Y-138853596D01*
X136639814Y-138770334D01*
X136556552Y-138668877D01*
X136527222Y-138633139D01*
X136517652Y-138615235D01*
X136443557Y-138476615D01*
X136426384Y-138420001D01*
X136392037Y-138306775D01*
X136374641Y-138130148D01*
X136392037Y-137953521D01*
X136443557Y-137783682D01*
X136443557Y-137783681D01*
X136527221Y-137627159D01*
X136527222Y-137627157D01*
X136556552Y-137591419D01*
X136639814Y-137489962D01*
X136741271Y-137406700D01*
X136777009Y-137377370D01*
X136794913Y-137367800D01*
X136933533Y-137293705D01*
X136990147Y-137276532D01*
X137103373Y-137242185D01*
X137169558Y-137235666D01*
X137235740Y-137229148D01*
X137324260Y-137229148D01*
X137390442Y-137235666D01*
X137390442Y-137235666D01*
G37*
G36*
X137390442Y-134695666D02*
X137456627Y-134702185D01*
X137569853Y-134736532D01*
X137626467Y-134753705D01*
X137765087Y-134827800D01*
X137782991Y-134837370D01*
X137818729Y-134866700D01*
X137920186Y-134949962D01*
X138003448Y-135051419D01*
X138032778Y-135087157D01*
X138032779Y-135087159D01*
X138116443Y-135243681D01*
X138116443Y-135243682D01*
X138167963Y-135413521D01*
X138185359Y-135590148D01*
X138167963Y-135766775D01*
X138133616Y-135880001D01*
X138116443Y-135936615D01*
X138042348Y-136075235D01*
X138032778Y-136093139D01*
X138003448Y-136128877D01*
X137920186Y-136230334D01*
X137818729Y-136313596D01*
X137782991Y-136342926D01*
X137782989Y-136342927D01*
X137626467Y-136426591D01*
X137569853Y-136443764D01*
X137456627Y-136478111D01*
X137390442Y-136484630D01*
X137324260Y-136491148D01*
X137235740Y-136491148D01*
X137169558Y-136484630D01*
X137103373Y-136478111D01*
X136990147Y-136443764D01*
X136933533Y-136426591D01*
X136777011Y-136342927D01*
X136777009Y-136342926D01*
X136741271Y-136313596D01*
X136639814Y-136230334D01*
X136556552Y-136128877D01*
X136527222Y-136093139D01*
X136517652Y-136075235D01*
X136443557Y-135936615D01*
X136426384Y-135880001D01*
X136392037Y-135766775D01*
X136374641Y-135590148D01*
X136392037Y-135413521D01*
X136443557Y-135243682D01*
X136443557Y-135243681D01*
X136527221Y-135087159D01*
X136527222Y-135087157D01*
X136556552Y-135051419D01*
X136639814Y-134949962D01*
X136741271Y-134866700D01*
X136777009Y-134837370D01*
X136794913Y-134827800D01*
X136933533Y-134753705D01*
X136990147Y-134736532D01*
X137103373Y-134702185D01*
X137169558Y-134695666D01*
X137235740Y-134689148D01*
X137324260Y-134689148D01*
X137390442Y-134695666D01*
X137390442Y-134695666D01*
G37*
G36*
X125271000Y-132911000D02*
X123569000Y-132911000D01*
X123569000Y-131209000D01*
X125271000Y-131209000D01*
X125271000Y-132911000D01*
X125271000Y-132911000D01*
G37*
G36*
X113876626Y-128642037D02*
X113989852Y-128676384D01*
X114046466Y-128693557D01*
X114202989Y-128777221D01*
X114340186Y-128889814D01*
X114423448Y-128991271D01*
X114452778Y-129027009D01*
X114452779Y-129027011D01*
X114536443Y-129183533D01*
X114553616Y-129240147D01*
X114587963Y-129353373D01*
X114601000Y-129485742D01*
X114601000Y-129874257D01*
X114587963Y-130006626D01*
X114536443Y-130176466D01*
X114452778Y-130332991D01*
X114452777Y-130332992D01*
X114340186Y-130470186D01*
X114245251Y-130548096D01*
X114202991Y-130582778D01*
X114202989Y-130582779D01*
X114046467Y-130666443D01*
X114005734Y-130678799D01*
X113876627Y-130717963D01*
X113700000Y-130735359D01*
X113523374Y-130717963D01*
X113394267Y-130678799D01*
X113353534Y-130666443D01*
X113197012Y-130582779D01*
X113197010Y-130582778D01*
X113059816Y-130470186D01*
X113059812Y-130470183D01*
X112947222Y-130332992D01*
X112863557Y-130176467D01*
X112841114Y-130102481D01*
X112812037Y-130006627D01*
X112799000Y-129874258D01*
X112799000Y-129485743D01*
X112812037Y-129353374D01*
X112863557Y-129183535D01*
X112863557Y-129183534D01*
X112947221Y-129027011D01*
X113059814Y-128889814D01*
X113162122Y-128805853D01*
X113197009Y-128777222D01*
X113214913Y-128767652D01*
X113353533Y-128693557D01*
X113410147Y-128676384D01*
X113523373Y-128642037D01*
X113700000Y-128624641D01*
X113876626Y-128642037D01*
X113876626Y-128642037D01*
G37*
G36*
X111958600Y-128632989D02*
X111991649Y-128643014D01*
X112022106Y-128659294D01*
X112048799Y-128681201D01*
X112070706Y-128707894D01*
X112086986Y-128738351D01*
X112097011Y-128771400D01*
X112101000Y-128811904D01*
X112101000Y-130548096D01*
X112097011Y-130588600D01*
X112086986Y-130621649D01*
X112070706Y-130652106D01*
X112048799Y-130678799D01*
X112022106Y-130700706D01*
X111991649Y-130716986D01*
X111958600Y-130727011D01*
X111918096Y-130731000D01*
X110481904Y-130731000D01*
X110441400Y-130727011D01*
X110408351Y-130716986D01*
X110377894Y-130700706D01*
X110351201Y-130678799D01*
X110329294Y-130652106D01*
X110313014Y-130621649D01*
X110302989Y-130588600D01*
X110299000Y-130548096D01*
X110299000Y-128811904D01*
X110302989Y-128771400D01*
X110313014Y-128738351D01*
X110329294Y-128707894D01*
X110351201Y-128681201D01*
X110377894Y-128659294D01*
X110408351Y-128643014D01*
X110441400Y-128632989D01*
X110481904Y-128629000D01*
X111918096Y-128629000D01*
X111958600Y-128632989D01*
X111958600Y-128632989D01*
G37*
G36*
X124668228Y-128741703D02*
X124823100Y-128805853D01*
X124962481Y-128898985D01*
X125081015Y-129017519D01*
X125174147Y-129156900D01*
X125238297Y-129311772D01*
X125271000Y-129476184D01*
X125271000Y-129643816D01*
X125238297Y-129808228D01*
X125174147Y-129963100D01*
X125081015Y-130102481D01*
X124962481Y-130221015D01*
X124823100Y-130314147D01*
X124668228Y-130378297D01*
X124503816Y-130411000D01*
X124336184Y-130411000D01*
X124171772Y-130378297D01*
X124016900Y-130314147D01*
X123877519Y-130221015D01*
X123758985Y-130102481D01*
X123665853Y-129963100D01*
X123601703Y-129808228D01*
X123569000Y-129643816D01*
X123569000Y-129476184D01*
X123601703Y-129311772D01*
X123665853Y-129156900D01*
X123758985Y-129017519D01*
X123877519Y-128898985D01*
X124016900Y-128805853D01*
X124171772Y-128741703D01*
X124336184Y-128709000D01*
X124503816Y-128709000D01*
X124668228Y-128741703D01*
X124668228Y-128741703D01*
G37*
G36*
X109789890Y-127054017D02*
X109908361Y-127103089D01*
X110014992Y-127174338D01*
X110105662Y-127265008D01*
X110176911Y-127371639D01*
X110225983Y-127490110D01*
X110251000Y-127615881D01*
X110251000Y-127744119D01*
X110225983Y-127869890D01*
X110176911Y-127988361D01*
X110105662Y-128094992D01*
X110014992Y-128185662D01*
X109908361Y-128256911D01*
X109789890Y-128305983D01*
X109664119Y-128331000D01*
X109535881Y-128331000D01*
X109410110Y-128305983D01*
X109291639Y-128256911D01*
X109185008Y-128185662D01*
X109094338Y-128094992D01*
X109023089Y-127988361D01*
X108974017Y-127869890D01*
X108949000Y-127744119D01*
X108949000Y-127615881D01*
X108974017Y-127490110D01*
X109023089Y-127371639D01*
X109094338Y-127265008D01*
X109185008Y-127174338D01*
X109291639Y-127103089D01*
X109410110Y-127054017D01*
X109535881Y-127029000D01*
X109664119Y-127029000D01*
X109789890Y-127054017D01*
X109789890Y-127054017D01*
G37*
G36*
X90390443Y-119175519D02*
X90456627Y-119182037D01*
X90569853Y-119216384D01*
X90626467Y-119233557D01*
X90765087Y-119307652D01*
X90782991Y-119317222D01*
X90818729Y-119346552D01*
X90920186Y-119429814D01*
X91003448Y-119531271D01*
X91032778Y-119567009D01*
X91032779Y-119567011D01*
X91116443Y-119723533D01*
X91116443Y-119723534D01*
X91167963Y-119893373D01*
X91185359Y-120070000D01*
X91167963Y-120246627D01*
X91133616Y-120359853D01*
X91116443Y-120416467D01*
X91092639Y-120461000D01*
X91032778Y-120572991D01*
X91003448Y-120608729D01*
X90920186Y-120710186D01*
X90818729Y-120793448D01*
X90782991Y-120822778D01*
X90782989Y-120822779D01*
X90626467Y-120906443D01*
X90569853Y-120923616D01*
X90456627Y-120957963D01*
X90390442Y-120964482D01*
X90324260Y-120971000D01*
X90235740Y-120971000D01*
X90169558Y-120964482D01*
X90103373Y-120957963D01*
X89990147Y-120923616D01*
X89933533Y-120906443D01*
X89777011Y-120822779D01*
X89777009Y-120822778D01*
X89741271Y-120793448D01*
X89639814Y-120710186D01*
X89556552Y-120608729D01*
X89527222Y-120572991D01*
X89467361Y-120461000D01*
X89443557Y-120416467D01*
X89426384Y-120359853D01*
X89392037Y-120246627D01*
X89374641Y-120070000D01*
X89392037Y-119893373D01*
X89443557Y-119723534D01*
X89443557Y-119723533D01*
X89527221Y-119567011D01*
X89527222Y-119567009D01*
X89556552Y-119531271D01*
X89639814Y-119429814D01*
X89741271Y-119346552D01*
X89777009Y-119317222D01*
X89794913Y-119307652D01*
X89933533Y-119233557D01*
X89990147Y-119216384D01*
X90103373Y-119182037D01*
X90169557Y-119175519D01*
X90235740Y-119169000D01*
X90324260Y-119169000D01*
X90390443Y-119175519D01*
X90390443Y-119175519D01*
G37*
G36*
X138181000Y-120891000D02*
X136379000Y-120891000D01*
X136379000Y-119089000D01*
X138181000Y-119089000D01*
X138181000Y-120891000D01*
X138181000Y-120891000D01*
G37*
G36*
X105091000Y-120461000D02*
X99989000Y-120461000D01*
X99989000Y-115359000D01*
X105091000Y-115359000D01*
X105091000Y-120461000D01*
X105091000Y-120461000D01*
G37*
G36*
X127091000Y-120461000D02*
X121989000Y-120461000D01*
X121989000Y-115359000D01*
X127091000Y-115359000D01*
X127091000Y-120461000D01*
X127091000Y-120461000D01*
G37*
G36*
X90390443Y-116635519D02*
X90456627Y-116642037D01*
X90569853Y-116676384D01*
X90626467Y-116693557D01*
X90765087Y-116767652D01*
X90782991Y-116777222D01*
X90818729Y-116806552D01*
X90920186Y-116889814D01*
X91003448Y-116991271D01*
X91032778Y-117027009D01*
X91032779Y-117027011D01*
X91116443Y-117183533D01*
X91116443Y-117183534D01*
X91167963Y-117353373D01*
X91185359Y-117530000D01*
X91167963Y-117706627D01*
X91140711Y-117796466D01*
X91116443Y-117876467D01*
X91075539Y-117952991D01*
X91032778Y-118032991D01*
X91003448Y-118068729D01*
X90920186Y-118170186D01*
X90818729Y-118253448D01*
X90782991Y-118282778D01*
X90782989Y-118282779D01*
X90626467Y-118366443D01*
X90569853Y-118383616D01*
X90456627Y-118417963D01*
X90390442Y-118424482D01*
X90324260Y-118431000D01*
X90235740Y-118431000D01*
X90169558Y-118424482D01*
X90103373Y-118417963D01*
X89990147Y-118383616D01*
X89933533Y-118366443D01*
X89777011Y-118282779D01*
X89777009Y-118282778D01*
X89741271Y-118253448D01*
X89639814Y-118170186D01*
X89556552Y-118068729D01*
X89527222Y-118032991D01*
X89484461Y-117952991D01*
X89443557Y-117876467D01*
X89419289Y-117796466D01*
X89392037Y-117706627D01*
X89374641Y-117530000D01*
X89392037Y-117353373D01*
X89443557Y-117183534D01*
X89443557Y-117183533D01*
X89527221Y-117027011D01*
X89527222Y-117027009D01*
X89556552Y-116991271D01*
X89639814Y-116889814D01*
X89741271Y-116806552D01*
X89777009Y-116777222D01*
X89794913Y-116767652D01*
X89933533Y-116693557D01*
X89990147Y-116676384D01*
X90103373Y-116642037D01*
X90169557Y-116635519D01*
X90235740Y-116629000D01*
X90324260Y-116629000D01*
X90390443Y-116635519D01*
X90390443Y-116635519D01*
G37*
G36*
X137390443Y-116555519D02*
X137456627Y-116562037D01*
X137569853Y-116596384D01*
X137626467Y-116613557D01*
X137765087Y-116687652D01*
X137782991Y-116697222D01*
X137818729Y-116726552D01*
X137920186Y-116809814D01*
X137985839Y-116889814D01*
X138032778Y-116947009D01*
X138032779Y-116947011D01*
X138116443Y-117103533D01*
X138116443Y-117103534D01*
X138167963Y-117273373D01*
X138185359Y-117450000D01*
X138167963Y-117626627D01*
X138143696Y-117706625D01*
X138116443Y-117796467D01*
X138073682Y-117876466D01*
X138032778Y-117952991D01*
X138003448Y-117988729D01*
X137920186Y-118090186D01*
X137822705Y-118170185D01*
X137782991Y-118202778D01*
X137782989Y-118202779D01*
X137626467Y-118286443D01*
X137569853Y-118303616D01*
X137456627Y-118337963D01*
X137390442Y-118344482D01*
X137324260Y-118351000D01*
X137235740Y-118351000D01*
X137169558Y-118344482D01*
X137103373Y-118337963D01*
X136990147Y-118303616D01*
X136933533Y-118286443D01*
X136777011Y-118202779D01*
X136777009Y-118202778D01*
X136737295Y-118170185D01*
X136639814Y-118090186D01*
X136556552Y-117988729D01*
X136527222Y-117952991D01*
X136486318Y-117876466D01*
X136443557Y-117796467D01*
X136416304Y-117706625D01*
X136392037Y-117626627D01*
X136374641Y-117450000D01*
X136392037Y-117273373D01*
X136443557Y-117103534D01*
X136443557Y-117103533D01*
X136527221Y-116947011D01*
X136527222Y-116947009D01*
X136574161Y-116889814D01*
X136639814Y-116809814D01*
X136741271Y-116726552D01*
X136777009Y-116697222D01*
X136794913Y-116687652D01*
X136933533Y-116613557D01*
X136990147Y-116596384D01*
X137103373Y-116562037D01*
X137169557Y-116555519D01*
X137235740Y-116549000D01*
X137324260Y-116549000D01*
X137390443Y-116555519D01*
X137390443Y-116555519D01*
G37*
G36*
X91181000Y-115891000D02*
X89379000Y-115891000D01*
X89379000Y-114089000D01*
X91181000Y-114089000D01*
X91181000Y-115891000D01*
X91181000Y-115891000D01*
G37*
G36*
X137390442Y-114015518D02*
X137456627Y-114022037D01*
X137569853Y-114056384D01*
X137626467Y-114073557D01*
X137655358Y-114089000D01*
X137782991Y-114157222D01*
X137818729Y-114186552D01*
X137920186Y-114269814D01*
X138003448Y-114371271D01*
X138032778Y-114407009D01*
X138032779Y-114407011D01*
X138116443Y-114563533D01*
X138116443Y-114563534D01*
X138167963Y-114733373D01*
X138185359Y-114910000D01*
X138167963Y-115086627D01*
X138133616Y-115199853D01*
X138116443Y-115256467D01*
X138061637Y-115359000D01*
X138032778Y-115412991D01*
X138003448Y-115448729D01*
X137920186Y-115550186D01*
X137818729Y-115633448D01*
X137782991Y-115662778D01*
X137782989Y-115662779D01*
X137626467Y-115746443D01*
X137569853Y-115763616D01*
X137456627Y-115797963D01*
X137390442Y-115804482D01*
X137324260Y-115811000D01*
X137235740Y-115811000D01*
X137169558Y-115804482D01*
X137103373Y-115797963D01*
X136990147Y-115763616D01*
X136933533Y-115746443D01*
X136777011Y-115662779D01*
X136777009Y-115662778D01*
X136741271Y-115633448D01*
X136639814Y-115550186D01*
X136556552Y-115448729D01*
X136527222Y-115412991D01*
X136498363Y-115359000D01*
X136443557Y-115256467D01*
X136426384Y-115199853D01*
X136392037Y-115086627D01*
X136374641Y-114910000D01*
X136392037Y-114733373D01*
X136443557Y-114563534D01*
X136443557Y-114563533D01*
X136527221Y-114407011D01*
X136527222Y-114407009D01*
X136556552Y-114371271D01*
X136639814Y-114269814D01*
X136741271Y-114186552D01*
X136777009Y-114157222D01*
X136904642Y-114089000D01*
X136933533Y-114073557D01*
X136990147Y-114056384D01*
X137103373Y-114022037D01*
X137169558Y-114015518D01*
X137235740Y-114009000D01*
X137324260Y-114009000D01*
X137390442Y-114015518D01*
X137390442Y-114015518D01*
G37*
G36*
X131630442Y-103885518D02*
X131696627Y-103892037D01*
X131809853Y-103926384D01*
X131866467Y-103943557D01*
X131947742Y-103987000D01*
X132022991Y-104027222D01*
X132058729Y-104056552D01*
X132160186Y-104139814D01*
X132243448Y-104241271D01*
X132272778Y-104277009D01*
X132272779Y-104277011D01*
X132356443Y-104433533D01*
X132356443Y-104433534D01*
X132407963Y-104603373D01*
X132425359Y-104780000D01*
X132407963Y-104956627D01*
X132383539Y-105037142D01*
X132356443Y-105126467D01*
X132325101Y-105185102D01*
X132272778Y-105282991D01*
X132243836Y-105318257D01*
X132160186Y-105420186D01*
X132058729Y-105503448D01*
X132022991Y-105532778D01*
X132022989Y-105532779D01*
X131866467Y-105616443D01*
X131809853Y-105633616D01*
X131696627Y-105667963D01*
X131630443Y-105674481D01*
X131564260Y-105681000D01*
X131475740Y-105681000D01*
X131409558Y-105674482D01*
X131343373Y-105667963D01*
X131230147Y-105633616D01*
X131173533Y-105616443D01*
X131017011Y-105532779D01*
X131017009Y-105532778D01*
X130981271Y-105503448D01*
X130879814Y-105420186D01*
X130796164Y-105318257D01*
X130767222Y-105282991D01*
X130714899Y-105185102D01*
X130683557Y-105126467D01*
X130656461Y-105037142D01*
X130632037Y-104956627D01*
X130614641Y-104780000D01*
X130632037Y-104603373D01*
X130683557Y-104433534D01*
X130683557Y-104433533D01*
X130767221Y-104277011D01*
X130767222Y-104277009D01*
X130796552Y-104241271D01*
X130879814Y-104139814D01*
X130981271Y-104056552D01*
X131017009Y-104027222D01*
X131092258Y-103987000D01*
X131173533Y-103943557D01*
X131230147Y-103926384D01*
X131343373Y-103892037D01*
X131409557Y-103885519D01*
X131475740Y-103879000D01*
X131564260Y-103879000D01*
X131630442Y-103885518D01*
X131630442Y-103885518D01*
G37*
G36*
X129090442Y-103885518D02*
X129156627Y-103892037D01*
X129269853Y-103926384D01*
X129326467Y-103943557D01*
X129407742Y-103987000D01*
X129482991Y-104027222D01*
X129518729Y-104056552D01*
X129620186Y-104139814D01*
X129703448Y-104241271D01*
X129732778Y-104277009D01*
X129732779Y-104277011D01*
X129816443Y-104433533D01*
X129816443Y-104433534D01*
X129867963Y-104603373D01*
X129885359Y-104780000D01*
X129867963Y-104956627D01*
X129843539Y-105037142D01*
X129816443Y-105126467D01*
X129785101Y-105185102D01*
X129732778Y-105282991D01*
X129703836Y-105318257D01*
X129620186Y-105420186D01*
X129518729Y-105503448D01*
X129482991Y-105532778D01*
X129482989Y-105532779D01*
X129326467Y-105616443D01*
X129269853Y-105633616D01*
X129156627Y-105667963D01*
X129090443Y-105674481D01*
X129024260Y-105681000D01*
X128935740Y-105681000D01*
X128869558Y-105674482D01*
X128803373Y-105667963D01*
X128690147Y-105633616D01*
X128633533Y-105616443D01*
X128477011Y-105532779D01*
X128477009Y-105532778D01*
X128441271Y-105503448D01*
X128339814Y-105420186D01*
X128256164Y-105318257D01*
X128227222Y-105282991D01*
X128174899Y-105185102D01*
X128143557Y-105126467D01*
X128116461Y-105037142D01*
X128092037Y-104956627D01*
X128074641Y-104780000D01*
X128092037Y-104603373D01*
X128143557Y-104433534D01*
X128143557Y-104433533D01*
X128227221Y-104277011D01*
X128227222Y-104277009D01*
X128256552Y-104241271D01*
X128339814Y-104139814D01*
X128441271Y-104056552D01*
X128477009Y-104027222D01*
X128552258Y-103987000D01*
X128633533Y-103943557D01*
X128690147Y-103926384D01*
X128803373Y-103892037D01*
X128869557Y-103885519D01*
X128935740Y-103879000D01*
X129024260Y-103879000D01*
X129090442Y-103885518D01*
X129090442Y-103885518D01*
G37*
G36*
X98630442Y-103885518D02*
X98696627Y-103892037D01*
X98809853Y-103926384D01*
X98866467Y-103943557D01*
X98947742Y-103987000D01*
X99022991Y-104027222D01*
X99058729Y-104056552D01*
X99160186Y-104139814D01*
X99243448Y-104241271D01*
X99272778Y-104277009D01*
X99272779Y-104277011D01*
X99356443Y-104433533D01*
X99356443Y-104433534D01*
X99407963Y-104603373D01*
X99425359Y-104780000D01*
X99407963Y-104956627D01*
X99383539Y-105037142D01*
X99356443Y-105126467D01*
X99325101Y-105185102D01*
X99272778Y-105282991D01*
X99243836Y-105318257D01*
X99160186Y-105420186D01*
X99058729Y-105503448D01*
X99022991Y-105532778D01*
X99022989Y-105532779D01*
X98866467Y-105616443D01*
X98809853Y-105633616D01*
X98696627Y-105667963D01*
X98630443Y-105674481D01*
X98564260Y-105681000D01*
X98475740Y-105681000D01*
X98409558Y-105674482D01*
X98343373Y-105667963D01*
X98230147Y-105633616D01*
X98173533Y-105616443D01*
X98017011Y-105532779D01*
X98017009Y-105532778D01*
X97981271Y-105503448D01*
X97879814Y-105420186D01*
X97796164Y-105318257D01*
X97767222Y-105282991D01*
X97714899Y-105185102D01*
X97683557Y-105126467D01*
X97656461Y-105037142D01*
X97632037Y-104956627D01*
X97614641Y-104780000D01*
X97632037Y-104603373D01*
X97683557Y-104433534D01*
X97683557Y-104433533D01*
X97767221Y-104277011D01*
X97767222Y-104277009D01*
X97796552Y-104241271D01*
X97879814Y-104139814D01*
X97981271Y-104056552D01*
X98017009Y-104027222D01*
X98092258Y-103987000D01*
X98173533Y-103943557D01*
X98230147Y-103926384D01*
X98343373Y-103892037D01*
X98409557Y-103885519D01*
X98475740Y-103879000D01*
X98564260Y-103879000D01*
X98630442Y-103885518D01*
X98630442Y-103885518D01*
G37*
G36*
X96090442Y-103885518D02*
X96156627Y-103892037D01*
X96269853Y-103926384D01*
X96326467Y-103943557D01*
X96407742Y-103987000D01*
X96482991Y-104027222D01*
X96518729Y-104056552D01*
X96620186Y-104139814D01*
X96703448Y-104241271D01*
X96732778Y-104277009D01*
X96732779Y-104277011D01*
X96816443Y-104433533D01*
X96816443Y-104433534D01*
X96867963Y-104603373D01*
X96885359Y-104780000D01*
X96867963Y-104956627D01*
X96843539Y-105037142D01*
X96816443Y-105126467D01*
X96785101Y-105185102D01*
X96732778Y-105282991D01*
X96703836Y-105318257D01*
X96620186Y-105420186D01*
X96518729Y-105503448D01*
X96482991Y-105532778D01*
X96482989Y-105532779D01*
X96326467Y-105616443D01*
X96269853Y-105633616D01*
X96156627Y-105667963D01*
X96090443Y-105674481D01*
X96024260Y-105681000D01*
X95935740Y-105681000D01*
X95869558Y-105674482D01*
X95803373Y-105667963D01*
X95690147Y-105633616D01*
X95633533Y-105616443D01*
X95477011Y-105532779D01*
X95477009Y-105532778D01*
X95441271Y-105503448D01*
X95339814Y-105420186D01*
X95256164Y-105318257D01*
X95227222Y-105282991D01*
X95174899Y-105185102D01*
X95143557Y-105126467D01*
X95116461Y-105037142D01*
X95092037Y-104956627D01*
X95074641Y-104780000D01*
X95092037Y-104603373D01*
X95143557Y-104433534D01*
X95143557Y-104433533D01*
X95227221Y-104277011D01*
X95227222Y-104277009D01*
X95256552Y-104241271D01*
X95339814Y-104139814D01*
X95441271Y-104056552D01*
X95477009Y-104027222D01*
X95552258Y-103987000D01*
X95633533Y-103943557D01*
X95690147Y-103926384D01*
X95803373Y-103892037D01*
X95869557Y-103885519D01*
X95935740Y-103879000D01*
X96024260Y-103879000D01*
X96090442Y-103885518D01*
X96090442Y-103885518D01*
G37*
G36*
X107667142Y-104018242D02*
X107815102Y-104079530D01*
X107882130Y-104124317D01*
X107905324Y-104139814D01*
X107948258Y-104168502D01*
X108061498Y-104281742D01*
X108150470Y-104414898D01*
X108211758Y-104562858D01*
X108243000Y-104719925D01*
X108243000Y-104880075D01*
X108211758Y-105037142D01*
X108150470Y-105185102D01*
X108061498Y-105318258D01*
X107948258Y-105431498D01*
X107815102Y-105520470D01*
X107667142Y-105581758D01*
X107510075Y-105613000D01*
X107349925Y-105613000D01*
X107192858Y-105581758D01*
X107044898Y-105520470D01*
X106911742Y-105431498D01*
X106798502Y-105318258D01*
X106709530Y-105185102D01*
X106648242Y-105037142D01*
X106617000Y-104880075D01*
X106617000Y-104719925D01*
X106648242Y-104562858D01*
X106709530Y-104414898D01*
X106798502Y-104281742D01*
X106911742Y-104168502D01*
X106954677Y-104139814D01*
X106977870Y-104124317D01*
X107044898Y-104079530D01*
X107192858Y-104018242D01*
X107349925Y-103987000D01*
X107510075Y-103987000D01*
X107667142Y-104018242D01*
X107667142Y-104018242D01*
G37*
G36*
X98630442Y-101345518D02*
X98696627Y-101352037D01*
X98809853Y-101386384D01*
X98866467Y-101403557D01*
X98947742Y-101447000D01*
X99022991Y-101487222D01*
X99058729Y-101516552D01*
X99160186Y-101599814D01*
X99243448Y-101701271D01*
X99272778Y-101737009D01*
X99272779Y-101737011D01*
X99356443Y-101893533D01*
X99356443Y-101893534D01*
X99407963Y-102063373D01*
X99425359Y-102240000D01*
X99407963Y-102416627D01*
X99383539Y-102497142D01*
X99356443Y-102586467D01*
X99325101Y-102645102D01*
X99272778Y-102742991D01*
X99243836Y-102778257D01*
X99160186Y-102880186D01*
X99058729Y-102963448D01*
X99022991Y-102992778D01*
X99022989Y-102992779D01*
X98866467Y-103076443D01*
X98809853Y-103093616D01*
X98696627Y-103127963D01*
X98630442Y-103134482D01*
X98564260Y-103141000D01*
X98475740Y-103141000D01*
X98409557Y-103134481D01*
X98343373Y-103127963D01*
X98230147Y-103093616D01*
X98173533Y-103076443D01*
X98017011Y-102992779D01*
X98017009Y-102992778D01*
X97981271Y-102963448D01*
X97879814Y-102880186D01*
X97796164Y-102778257D01*
X97767222Y-102742991D01*
X97714899Y-102645102D01*
X97683557Y-102586467D01*
X97656461Y-102497142D01*
X97632037Y-102416627D01*
X97614641Y-102240000D01*
X97632037Y-102063373D01*
X97683557Y-101893534D01*
X97683557Y-101893533D01*
X97767221Y-101737011D01*
X97767222Y-101737009D01*
X97796552Y-101701271D01*
X97879814Y-101599814D01*
X97981271Y-101516552D01*
X98017009Y-101487222D01*
X98092258Y-101447000D01*
X98173533Y-101403557D01*
X98230147Y-101386384D01*
X98343373Y-101352037D01*
X98409558Y-101345518D01*
X98475740Y-101339000D01*
X98564260Y-101339000D01*
X98630442Y-101345518D01*
X98630442Y-101345518D01*
G37*
G36*
X96090442Y-101345518D02*
X96156627Y-101352037D01*
X96269853Y-101386384D01*
X96326467Y-101403557D01*
X96407742Y-101447000D01*
X96482991Y-101487222D01*
X96518729Y-101516552D01*
X96620186Y-101599814D01*
X96703448Y-101701271D01*
X96732778Y-101737009D01*
X96732779Y-101737011D01*
X96816443Y-101893533D01*
X96816443Y-101893534D01*
X96867963Y-102063373D01*
X96885359Y-102240000D01*
X96867963Y-102416627D01*
X96843539Y-102497142D01*
X96816443Y-102586467D01*
X96785101Y-102645102D01*
X96732778Y-102742991D01*
X96703836Y-102778257D01*
X96620186Y-102880186D01*
X96518729Y-102963448D01*
X96482991Y-102992778D01*
X96482989Y-102992779D01*
X96326467Y-103076443D01*
X96269853Y-103093616D01*
X96156627Y-103127963D01*
X96090442Y-103134482D01*
X96024260Y-103141000D01*
X95935740Y-103141000D01*
X95869557Y-103134481D01*
X95803373Y-103127963D01*
X95690147Y-103093616D01*
X95633533Y-103076443D01*
X95477011Y-102992779D01*
X95477009Y-102992778D01*
X95441271Y-102963448D01*
X95339814Y-102880186D01*
X95256164Y-102778257D01*
X95227222Y-102742991D01*
X95174899Y-102645102D01*
X95143557Y-102586467D01*
X95116461Y-102497142D01*
X95092037Y-102416627D01*
X95074641Y-102240000D01*
X95092037Y-102063373D01*
X95143557Y-101893534D01*
X95143557Y-101893533D01*
X95227221Y-101737011D01*
X95227222Y-101737009D01*
X95256552Y-101701271D01*
X95339814Y-101599814D01*
X95441271Y-101516552D01*
X95477009Y-101487222D01*
X95552258Y-101447000D01*
X95633533Y-101403557D01*
X95690147Y-101386384D01*
X95803373Y-101352037D01*
X95869558Y-101345518D01*
X95935740Y-101339000D01*
X96024260Y-101339000D01*
X96090442Y-101345518D01*
X96090442Y-101345518D01*
G37*
G36*
X129090442Y-101345518D02*
X129156627Y-101352037D01*
X129269853Y-101386384D01*
X129326467Y-101403557D01*
X129407742Y-101447000D01*
X129482991Y-101487222D01*
X129518729Y-101516552D01*
X129620186Y-101599814D01*
X129703448Y-101701271D01*
X129732778Y-101737009D01*
X129732779Y-101737011D01*
X129816443Y-101893533D01*
X129816443Y-101893534D01*
X129867963Y-102063373D01*
X129885359Y-102240000D01*
X129867963Y-102416627D01*
X129843539Y-102497142D01*
X129816443Y-102586467D01*
X129785101Y-102645102D01*
X129732778Y-102742991D01*
X129703836Y-102778257D01*
X129620186Y-102880186D01*
X129518729Y-102963448D01*
X129482991Y-102992778D01*
X129482989Y-102992779D01*
X129326467Y-103076443D01*
X129269853Y-103093616D01*
X129156627Y-103127963D01*
X129090442Y-103134482D01*
X129024260Y-103141000D01*
X128935740Y-103141000D01*
X128869557Y-103134481D01*
X128803373Y-103127963D01*
X128690147Y-103093616D01*
X128633533Y-103076443D01*
X128477011Y-102992779D01*
X128477009Y-102992778D01*
X128441271Y-102963448D01*
X128339814Y-102880186D01*
X128256164Y-102778257D01*
X128227222Y-102742991D01*
X128174899Y-102645102D01*
X128143557Y-102586467D01*
X128116461Y-102497142D01*
X128092037Y-102416627D01*
X128074641Y-102240000D01*
X128092037Y-102063373D01*
X128143557Y-101893534D01*
X128143557Y-101893533D01*
X128227221Y-101737011D01*
X128227222Y-101737009D01*
X128256552Y-101701271D01*
X128339814Y-101599814D01*
X128441271Y-101516552D01*
X128477009Y-101487222D01*
X128552258Y-101447000D01*
X128633533Y-101403557D01*
X128690147Y-101386384D01*
X128803373Y-101352037D01*
X128869558Y-101345518D01*
X128935740Y-101339000D01*
X129024260Y-101339000D01*
X129090442Y-101345518D01*
X129090442Y-101345518D01*
G37*
G36*
X131630442Y-101345518D02*
X131696627Y-101352037D01*
X131809853Y-101386384D01*
X131866467Y-101403557D01*
X131947742Y-101447000D01*
X132022991Y-101487222D01*
X132058729Y-101516552D01*
X132160186Y-101599814D01*
X132243448Y-101701271D01*
X132272778Y-101737009D01*
X132272779Y-101737011D01*
X132356443Y-101893533D01*
X132356443Y-101893534D01*
X132407963Y-102063373D01*
X132425359Y-102240000D01*
X132407963Y-102416627D01*
X132383539Y-102497142D01*
X132356443Y-102586467D01*
X132325101Y-102645102D01*
X132272778Y-102742991D01*
X132243836Y-102778257D01*
X132160186Y-102880186D01*
X132058729Y-102963448D01*
X132022991Y-102992778D01*
X132022989Y-102992779D01*
X131866467Y-103076443D01*
X131809853Y-103093616D01*
X131696627Y-103127963D01*
X131630442Y-103134482D01*
X131564260Y-103141000D01*
X131475740Y-103141000D01*
X131409557Y-103134481D01*
X131343373Y-103127963D01*
X131230147Y-103093616D01*
X131173533Y-103076443D01*
X131017011Y-102992779D01*
X131017009Y-102992778D01*
X130981271Y-102963448D01*
X130879814Y-102880186D01*
X130796164Y-102778257D01*
X130767222Y-102742991D01*
X130714899Y-102645102D01*
X130683557Y-102586467D01*
X130656461Y-102497142D01*
X130632037Y-102416627D01*
X130614641Y-102240000D01*
X130632037Y-102063373D01*
X130683557Y-101893534D01*
X130683557Y-101893533D01*
X130767221Y-101737011D01*
X130767222Y-101737009D01*
X130796552Y-101701271D01*
X130879814Y-101599814D01*
X130981271Y-101516552D01*
X131017009Y-101487222D01*
X131092258Y-101447000D01*
X131173533Y-101403557D01*
X131230147Y-101386384D01*
X131343373Y-101352037D01*
X131409558Y-101345518D01*
X131475740Y-101339000D01*
X131564260Y-101339000D01*
X131630442Y-101345518D01*
X131630442Y-101345518D01*
G37*
G36*
X107667142Y-101478242D02*
X107815102Y-101539530D01*
X107882130Y-101584317D01*
X107905324Y-101599814D01*
X107948258Y-101628502D01*
X108061498Y-101741742D01*
X108150470Y-101874898D01*
X108211758Y-102022858D01*
X108243000Y-102179925D01*
X108243000Y-102340075D01*
X108211758Y-102497142D01*
X108150470Y-102645102D01*
X108061498Y-102778258D01*
X107948258Y-102891498D01*
X107815102Y-102980470D01*
X107667142Y-103041758D01*
X107510075Y-103073000D01*
X107349925Y-103073000D01*
X107192858Y-103041758D01*
X107044898Y-102980470D01*
X106911742Y-102891498D01*
X106798502Y-102778258D01*
X106709530Y-102645102D01*
X106648242Y-102497142D01*
X106617000Y-102340075D01*
X106617000Y-102179925D01*
X106648242Y-102022858D01*
X106709530Y-101874898D01*
X106798502Y-101741742D01*
X106911742Y-101628502D01*
X106954677Y-101599814D01*
X106977870Y-101584317D01*
X107044898Y-101539530D01*
X107192858Y-101478242D01*
X107349925Y-101447000D01*
X107510075Y-101447000D01*
X107667142Y-101478242D01*
X107667142Y-101478242D01*
G37*
G36*
X131630443Y-98805519D02*
X131696627Y-98812037D01*
X131809853Y-98846384D01*
X131866467Y-98863557D01*
X131947742Y-98907000D01*
X132022991Y-98947222D01*
X132058729Y-98976552D01*
X132160186Y-99059814D01*
X132243448Y-99161271D01*
X132272778Y-99197009D01*
X132272779Y-99197011D01*
X132356443Y-99353533D01*
X132356443Y-99353534D01*
X132407963Y-99523373D01*
X132425359Y-99700000D01*
X132407963Y-99876627D01*
X132383539Y-99957142D01*
X132356443Y-100046467D01*
X132325101Y-100105102D01*
X132272778Y-100202991D01*
X132243836Y-100238257D01*
X132160186Y-100340186D01*
X132058729Y-100423448D01*
X132022991Y-100452778D01*
X132022989Y-100452779D01*
X131866467Y-100536443D01*
X131809853Y-100553616D01*
X131696627Y-100587963D01*
X131630442Y-100594482D01*
X131564260Y-100601000D01*
X131475740Y-100601000D01*
X131409558Y-100594482D01*
X131343373Y-100587963D01*
X131230147Y-100553616D01*
X131173533Y-100536443D01*
X131017011Y-100452779D01*
X131017009Y-100452778D01*
X130981271Y-100423448D01*
X130879814Y-100340186D01*
X130796164Y-100238257D01*
X130767222Y-100202991D01*
X130714899Y-100105102D01*
X130683557Y-100046467D01*
X130656461Y-99957142D01*
X130632037Y-99876627D01*
X130614641Y-99700000D01*
X130632037Y-99523373D01*
X130683557Y-99353534D01*
X130683557Y-99353533D01*
X130767221Y-99197011D01*
X130767222Y-99197009D01*
X130796552Y-99161271D01*
X130879814Y-99059814D01*
X130981271Y-98976552D01*
X131017009Y-98947222D01*
X131092258Y-98907000D01*
X131173533Y-98863557D01*
X131230147Y-98846384D01*
X131343373Y-98812037D01*
X131409557Y-98805519D01*
X131475740Y-98799000D01*
X131564260Y-98799000D01*
X131630443Y-98805519D01*
X131630443Y-98805519D01*
G37*
G36*
X129090443Y-98805519D02*
X129156627Y-98812037D01*
X129269853Y-98846384D01*
X129326467Y-98863557D01*
X129407742Y-98907000D01*
X129482991Y-98947222D01*
X129518729Y-98976552D01*
X129620186Y-99059814D01*
X129703448Y-99161271D01*
X129732778Y-99197009D01*
X129732779Y-99197011D01*
X129816443Y-99353533D01*
X129816443Y-99353534D01*
X129867963Y-99523373D01*
X129885359Y-99700000D01*
X129867963Y-99876627D01*
X129843539Y-99957142D01*
X129816443Y-100046467D01*
X129785101Y-100105102D01*
X129732778Y-100202991D01*
X129703836Y-100238257D01*
X129620186Y-100340186D01*
X129518729Y-100423448D01*
X129482991Y-100452778D01*
X129482989Y-100452779D01*
X129326467Y-100536443D01*
X129269853Y-100553616D01*
X129156627Y-100587963D01*
X129090442Y-100594482D01*
X129024260Y-100601000D01*
X128935740Y-100601000D01*
X128869558Y-100594482D01*
X128803373Y-100587963D01*
X128690147Y-100553616D01*
X128633533Y-100536443D01*
X128477011Y-100452779D01*
X128477009Y-100452778D01*
X128441271Y-100423448D01*
X128339814Y-100340186D01*
X128256164Y-100238257D01*
X128227222Y-100202991D01*
X128174899Y-100105102D01*
X128143557Y-100046467D01*
X128116461Y-99957142D01*
X128092037Y-99876627D01*
X128074641Y-99700000D01*
X128092037Y-99523373D01*
X128143557Y-99353534D01*
X128143557Y-99353533D01*
X128227221Y-99197011D01*
X128227222Y-99197009D01*
X128256552Y-99161271D01*
X128339814Y-99059814D01*
X128441271Y-98976552D01*
X128477009Y-98947222D01*
X128552258Y-98907000D01*
X128633533Y-98863557D01*
X128690147Y-98846384D01*
X128803373Y-98812037D01*
X128869557Y-98805519D01*
X128935740Y-98799000D01*
X129024260Y-98799000D01*
X129090443Y-98805519D01*
X129090443Y-98805519D01*
G37*
G36*
X98630443Y-98805519D02*
X98696627Y-98812037D01*
X98809853Y-98846384D01*
X98866467Y-98863557D01*
X98947742Y-98907000D01*
X99022991Y-98947222D01*
X99058729Y-98976552D01*
X99160186Y-99059814D01*
X99243448Y-99161271D01*
X99272778Y-99197009D01*
X99272779Y-99197011D01*
X99356443Y-99353533D01*
X99356443Y-99353534D01*
X99407963Y-99523373D01*
X99425359Y-99700000D01*
X99407963Y-99876627D01*
X99383539Y-99957142D01*
X99356443Y-100046467D01*
X99325101Y-100105102D01*
X99272778Y-100202991D01*
X99243836Y-100238257D01*
X99160186Y-100340186D01*
X99058729Y-100423448D01*
X99022991Y-100452778D01*
X99022989Y-100452779D01*
X98866467Y-100536443D01*
X98809853Y-100553616D01*
X98696627Y-100587963D01*
X98630442Y-100594482D01*
X98564260Y-100601000D01*
X98475740Y-100601000D01*
X98409558Y-100594482D01*
X98343373Y-100587963D01*
X98230147Y-100553616D01*
X98173533Y-100536443D01*
X98017011Y-100452779D01*
X98017009Y-100452778D01*
X97981271Y-100423448D01*
X97879814Y-100340186D01*
X97796164Y-100238257D01*
X97767222Y-100202991D01*
X97714899Y-100105102D01*
X97683557Y-100046467D01*
X97656461Y-99957142D01*
X97632037Y-99876627D01*
X97614641Y-99700000D01*
X97632037Y-99523373D01*
X97683557Y-99353534D01*
X97683557Y-99353533D01*
X97767221Y-99197011D01*
X97767222Y-99197009D01*
X97796552Y-99161271D01*
X97879814Y-99059814D01*
X97981271Y-98976552D01*
X98017009Y-98947222D01*
X98092258Y-98907000D01*
X98173533Y-98863557D01*
X98230147Y-98846384D01*
X98343373Y-98812037D01*
X98409557Y-98805519D01*
X98475740Y-98799000D01*
X98564260Y-98799000D01*
X98630443Y-98805519D01*
X98630443Y-98805519D01*
G37*
G36*
X96090443Y-98805519D02*
X96156627Y-98812037D01*
X96269853Y-98846384D01*
X96326467Y-98863557D01*
X96407742Y-98907000D01*
X96482991Y-98947222D01*
X96518729Y-98976552D01*
X96620186Y-99059814D01*
X96703448Y-99161271D01*
X96732778Y-99197009D01*
X96732779Y-99197011D01*
X96816443Y-99353533D01*
X96816443Y-99353534D01*
X96867963Y-99523373D01*
X96885359Y-99700000D01*
X96867963Y-99876627D01*
X96843539Y-99957142D01*
X96816443Y-100046467D01*
X96785101Y-100105102D01*
X96732778Y-100202991D01*
X96703836Y-100238257D01*
X96620186Y-100340186D01*
X96518729Y-100423448D01*
X96482991Y-100452778D01*
X96482989Y-100452779D01*
X96326467Y-100536443D01*
X96269853Y-100553616D01*
X96156627Y-100587963D01*
X96090442Y-100594482D01*
X96024260Y-100601000D01*
X95935740Y-100601000D01*
X95869558Y-100594482D01*
X95803373Y-100587963D01*
X95690147Y-100553616D01*
X95633533Y-100536443D01*
X95477011Y-100452779D01*
X95477009Y-100452778D01*
X95441271Y-100423448D01*
X95339814Y-100340186D01*
X95256164Y-100238257D01*
X95227222Y-100202991D01*
X95174899Y-100105102D01*
X95143557Y-100046467D01*
X95116461Y-99957142D01*
X95092037Y-99876627D01*
X95074641Y-99700000D01*
X95092037Y-99523373D01*
X95143557Y-99353534D01*
X95143557Y-99353533D01*
X95227221Y-99197011D01*
X95227222Y-99197009D01*
X95256552Y-99161271D01*
X95339814Y-99059814D01*
X95441271Y-98976552D01*
X95477009Y-98947222D01*
X95552258Y-98907000D01*
X95633533Y-98863557D01*
X95690147Y-98846384D01*
X95803373Y-98812037D01*
X95869557Y-98805519D01*
X95935740Y-98799000D01*
X96024260Y-98799000D01*
X96090443Y-98805519D01*
X96090443Y-98805519D01*
G37*
G36*
X107667142Y-98938242D02*
X107815102Y-98999530D01*
X107882130Y-99044317D01*
X107905324Y-99059814D01*
X107948258Y-99088502D01*
X108061498Y-99201742D01*
X108150470Y-99334898D01*
X108211758Y-99482858D01*
X108243000Y-99639925D01*
X108243000Y-99800075D01*
X108211758Y-99957142D01*
X108150470Y-100105102D01*
X108061498Y-100238258D01*
X107948258Y-100351498D01*
X107815102Y-100440470D01*
X107667142Y-100501758D01*
X107510075Y-100533000D01*
X107349925Y-100533000D01*
X107192858Y-100501758D01*
X107044898Y-100440470D01*
X106911742Y-100351498D01*
X106798502Y-100238258D01*
X106709530Y-100105102D01*
X106648242Y-99957142D01*
X106617000Y-99800075D01*
X106617000Y-99639925D01*
X106648242Y-99482858D01*
X106709530Y-99334898D01*
X106798502Y-99201742D01*
X106911742Y-99088502D01*
X106954677Y-99059814D01*
X106977870Y-99044317D01*
X107044898Y-98999530D01*
X107192858Y-98938242D01*
X107349925Y-98907000D01*
X107510075Y-98907000D01*
X107667142Y-98938242D01*
X107667142Y-98938242D01*
G37*
G36*
X85470700Y-98213400D02*
X83368700Y-98213400D01*
X83368700Y-92611400D01*
X85470700Y-92611400D01*
X85470700Y-98213400D01*
X85470700Y-98213400D01*
G37*
G36*
X143470700Y-98213400D02*
X141368700Y-98213400D01*
X141368700Y-92611400D01*
X143470700Y-92611400D01*
X143470700Y-98213400D01*
X143470700Y-98213400D01*
G37*
G36*
X96090443Y-96265519D02*
X96156627Y-96272037D01*
X96269853Y-96306384D01*
X96326467Y-96323557D01*
X96407742Y-96367000D01*
X96482991Y-96407222D01*
X96518729Y-96436552D01*
X96620186Y-96519814D01*
X96703448Y-96621271D01*
X96732778Y-96657009D01*
X96732779Y-96657011D01*
X96816443Y-96813533D01*
X96816443Y-96813534D01*
X96867963Y-96983373D01*
X96885359Y-97160000D01*
X96867963Y-97336627D01*
X96843539Y-97417142D01*
X96816443Y-97506467D01*
X96785101Y-97565102D01*
X96732778Y-97662991D01*
X96703836Y-97698257D01*
X96620186Y-97800186D01*
X96518729Y-97883448D01*
X96482991Y-97912778D01*
X96482989Y-97912779D01*
X96326467Y-97996443D01*
X96269853Y-98013616D01*
X96156627Y-98047963D01*
X96090442Y-98054482D01*
X96024260Y-98061000D01*
X95935740Y-98061000D01*
X95869558Y-98054482D01*
X95803373Y-98047963D01*
X95690147Y-98013616D01*
X95633533Y-97996443D01*
X95477011Y-97912779D01*
X95477009Y-97912778D01*
X95441271Y-97883448D01*
X95339814Y-97800186D01*
X95256164Y-97698257D01*
X95227222Y-97662991D01*
X95174899Y-97565102D01*
X95143557Y-97506467D01*
X95116461Y-97417142D01*
X95092037Y-97336627D01*
X95074641Y-97160000D01*
X95092037Y-96983373D01*
X95143557Y-96813534D01*
X95143557Y-96813533D01*
X95227221Y-96657011D01*
X95227222Y-96657009D01*
X95256552Y-96621271D01*
X95339814Y-96519814D01*
X95441271Y-96436552D01*
X95477009Y-96407222D01*
X95552258Y-96367000D01*
X95633533Y-96323557D01*
X95690147Y-96306384D01*
X95803373Y-96272037D01*
X95869557Y-96265519D01*
X95935740Y-96259000D01*
X96024260Y-96259000D01*
X96090443Y-96265519D01*
X96090443Y-96265519D01*
G37*
G36*
X98630443Y-96265519D02*
X98696627Y-96272037D01*
X98809853Y-96306384D01*
X98866467Y-96323557D01*
X98947742Y-96367000D01*
X99022991Y-96407222D01*
X99058729Y-96436552D01*
X99160186Y-96519814D01*
X99243448Y-96621271D01*
X99272778Y-96657009D01*
X99272779Y-96657011D01*
X99356443Y-96813533D01*
X99356443Y-96813534D01*
X99407963Y-96983373D01*
X99425359Y-97160000D01*
X99407963Y-97336627D01*
X99383539Y-97417142D01*
X99356443Y-97506467D01*
X99325101Y-97565102D01*
X99272778Y-97662991D01*
X99243836Y-97698257D01*
X99160186Y-97800186D01*
X99058729Y-97883448D01*
X99022991Y-97912778D01*
X99022989Y-97912779D01*
X98866467Y-97996443D01*
X98809853Y-98013616D01*
X98696627Y-98047963D01*
X98630442Y-98054482D01*
X98564260Y-98061000D01*
X98475740Y-98061000D01*
X98409558Y-98054482D01*
X98343373Y-98047963D01*
X98230147Y-98013616D01*
X98173533Y-97996443D01*
X98017011Y-97912779D01*
X98017009Y-97912778D01*
X97981271Y-97883448D01*
X97879814Y-97800186D01*
X97796164Y-97698257D01*
X97767222Y-97662991D01*
X97714899Y-97565102D01*
X97683557Y-97506467D01*
X97656461Y-97417142D01*
X97632037Y-97336627D01*
X97614641Y-97160000D01*
X97632037Y-96983373D01*
X97683557Y-96813534D01*
X97683557Y-96813533D01*
X97767221Y-96657011D01*
X97767222Y-96657009D01*
X97796552Y-96621271D01*
X97879814Y-96519814D01*
X97981271Y-96436552D01*
X98017009Y-96407222D01*
X98092258Y-96367000D01*
X98173533Y-96323557D01*
X98230147Y-96306384D01*
X98343373Y-96272037D01*
X98409558Y-96265518D01*
X98475740Y-96259000D01*
X98564260Y-96259000D01*
X98630443Y-96265519D01*
X98630443Y-96265519D01*
G37*
G36*
X131630443Y-96265519D02*
X131696627Y-96272037D01*
X131809853Y-96306384D01*
X131866467Y-96323557D01*
X131947742Y-96367000D01*
X132022991Y-96407222D01*
X132058729Y-96436552D01*
X132160186Y-96519814D01*
X132243448Y-96621271D01*
X132272778Y-96657009D01*
X132272779Y-96657011D01*
X132356443Y-96813533D01*
X132356443Y-96813534D01*
X132407963Y-96983373D01*
X132425359Y-97160000D01*
X132407963Y-97336627D01*
X132383539Y-97417142D01*
X132356443Y-97506467D01*
X132325101Y-97565102D01*
X132272778Y-97662991D01*
X132243836Y-97698257D01*
X132160186Y-97800186D01*
X132058729Y-97883448D01*
X132022991Y-97912778D01*
X132022989Y-97912779D01*
X131866467Y-97996443D01*
X131809853Y-98013616D01*
X131696627Y-98047963D01*
X131630442Y-98054482D01*
X131564260Y-98061000D01*
X131475740Y-98061000D01*
X131409558Y-98054482D01*
X131343373Y-98047963D01*
X131230147Y-98013616D01*
X131173533Y-97996443D01*
X131017011Y-97912779D01*
X131017009Y-97912778D01*
X130981271Y-97883448D01*
X130879814Y-97800186D01*
X130796164Y-97698257D01*
X130767222Y-97662991D01*
X130714899Y-97565102D01*
X130683557Y-97506467D01*
X130656461Y-97417142D01*
X130632037Y-97336627D01*
X130614641Y-97160000D01*
X130632037Y-96983373D01*
X130683557Y-96813534D01*
X130683557Y-96813533D01*
X130767221Y-96657011D01*
X130767222Y-96657009D01*
X130796552Y-96621271D01*
X130879814Y-96519814D01*
X130981271Y-96436552D01*
X131017009Y-96407222D01*
X131092258Y-96367000D01*
X131173533Y-96323557D01*
X131230147Y-96306384D01*
X131343373Y-96272037D01*
X131409558Y-96265518D01*
X131475740Y-96259000D01*
X131564260Y-96259000D01*
X131630443Y-96265519D01*
X131630443Y-96265519D01*
G37*
G36*
X129090443Y-96265519D02*
X129156627Y-96272037D01*
X129269853Y-96306384D01*
X129326467Y-96323557D01*
X129407742Y-96367000D01*
X129482991Y-96407222D01*
X129518729Y-96436552D01*
X129620186Y-96519814D01*
X129703448Y-96621271D01*
X129732778Y-96657009D01*
X129732779Y-96657011D01*
X129816443Y-96813533D01*
X129816443Y-96813534D01*
X129867963Y-96983373D01*
X129885359Y-97160000D01*
X129867963Y-97336627D01*
X129843539Y-97417142D01*
X129816443Y-97506467D01*
X129785101Y-97565102D01*
X129732778Y-97662991D01*
X129703836Y-97698257D01*
X129620186Y-97800186D01*
X129518729Y-97883448D01*
X129482991Y-97912778D01*
X129482989Y-97912779D01*
X129326467Y-97996443D01*
X129269853Y-98013616D01*
X129156627Y-98047963D01*
X129090442Y-98054482D01*
X129024260Y-98061000D01*
X128935740Y-98061000D01*
X128869558Y-98054482D01*
X128803373Y-98047963D01*
X128690147Y-98013616D01*
X128633533Y-97996443D01*
X128477011Y-97912779D01*
X128477009Y-97912778D01*
X128441271Y-97883448D01*
X128339814Y-97800186D01*
X128256164Y-97698257D01*
X128227222Y-97662991D01*
X128174899Y-97565102D01*
X128143557Y-97506467D01*
X128116461Y-97417142D01*
X128092037Y-97336627D01*
X128074641Y-97160000D01*
X128092037Y-96983373D01*
X128143557Y-96813534D01*
X128143557Y-96813533D01*
X128227221Y-96657011D01*
X128227222Y-96657009D01*
X128256552Y-96621271D01*
X128339814Y-96519814D01*
X128441271Y-96436552D01*
X128477009Y-96407222D01*
X128552258Y-96367000D01*
X128633533Y-96323557D01*
X128690147Y-96306384D01*
X128803373Y-96272037D01*
X128869558Y-96265518D01*
X128935740Y-96259000D01*
X129024260Y-96259000D01*
X129090443Y-96265519D01*
X129090443Y-96265519D01*
G37*
G36*
X107667142Y-96398242D02*
X107815102Y-96459530D01*
X107882130Y-96504317D01*
X107905324Y-96519814D01*
X107948258Y-96548502D01*
X108061498Y-96661742D01*
X108150470Y-96794898D01*
X108211758Y-96942858D01*
X108243000Y-97099925D01*
X108243000Y-97260075D01*
X108211758Y-97417142D01*
X108150470Y-97565102D01*
X108061498Y-97698258D01*
X107948258Y-97811498D01*
X107815102Y-97900470D01*
X107667142Y-97961758D01*
X107510075Y-97993000D01*
X107349925Y-97993000D01*
X107192858Y-97961758D01*
X107044898Y-97900470D01*
X106911742Y-97811498D01*
X106798502Y-97698258D01*
X106709530Y-97565102D01*
X106648242Y-97417142D01*
X106617000Y-97260075D01*
X106617000Y-97099925D01*
X106648242Y-96942858D01*
X106709530Y-96794898D01*
X106798502Y-96661742D01*
X106911742Y-96548502D01*
X106954677Y-96519814D01*
X106977870Y-96504317D01*
X107044898Y-96459530D01*
X107192858Y-96398242D01*
X107349925Y-96367000D01*
X107510075Y-96367000D01*
X107667142Y-96398242D01*
X107667142Y-96398242D01*
G37*
G36*
X96090442Y-93725518D02*
X96156627Y-93732037D01*
X96269853Y-93766384D01*
X96326467Y-93783557D01*
X96407742Y-93827000D01*
X96482991Y-93867222D01*
X96518729Y-93896552D01*
X96620186Y-93979814D01*
X96703448Y-94081271D01*
X96732778Y-94117009D01*
X96732779Y-94117011D01*
X96816443Y-94273533D01*
X96816443Y-94273534D01*
X96867963Y-94443373D01*
X96885359Y-94620000D01*
X96867963Y-94796627D01*
X96843539Y-94877142D01*
X96816443Y-94966467D01*
X96785101Y-95025102D01*
X96732778Y-95122991D01*
X96703836Y-95158257D01*
X96620186Y-95260186D01*
X96518729Y-95343448D01*
X96482991Y-95372778D01*
X96482989Y-95372779D01*
X96326467Y-95456443D01*
X96269853Y-95473616D01*
X96156627Y-95507963D01*
X96090442Y-95514482D01*
X96024260Y-95521000D01*
X95935740Y-95521000D01*
X95869558Y-95514482D01*
X95803373Y-95507963D01*
X95690147Y-95473616D01*
X95633533Y-95456443D01*
X95477011Y-95372779D01*
X95477009Y-95372778D01*
X95441271Y-95343448D01*
X95339814Y-95260186D01*
X95256164Y-95158257D01*
X95227222Y-95122991D01*
X95174899Y-95025102D01*
X95143557Y-94966467D01*
X95116461Y-94877142D01*
X95092037Y-94796627D01*
X95074641Y-94620000D01*
X95092037Y-94443373D01*
X95143557Y-94273534D01*
X95143557Y-94273533D01*
X95227221Y-94117011D01*
X95227222Y-94117009D01*
X95256552Y-94081271D01*
X95339814Y-93979814D01*
X95441271Y-93896552D01*
X95477009Y-93867222D01*
X95552258Y-93827000D01*
X95633533Y-93783557D01*
X95690147Y-93766384D01*
X95803373Y-93732037D01*
X95869558Y-93725518D01*
X95935740Y-93719000D01*
X96024260Y-93719000D01*
X96090442Y-93725518D01*
X96090442Y-93725518D01*
G37*
G36*
X98630442Y-93725518D02*
X98696627Y-93732037D01*
X98809853Y-93766384D01*
X98866467Y-93783557D01*
X98947742Y-93827000D01*
X99022991Y-93867222D01*
X99058729Y-93896552D01*
X99160186Y-93979814D01*
X99243448Y-94081271D01*
X99272778Y-94117009D01*
X99272779Y-94117011D01*
X99356443Y-94273533D01*
X99356443Y-94273534D01*
X99407963Y-94443373D01*
X99425359Y-94620000D01*
X99407963Y-94796627D01*
X99383539Y-94877142D01*
X99356443Y-94966467D01*
X99325101Y-95025102D01*
X99272778Y-95122991D01*
X99243836Y-95158257D01*
X99160186Y-95260186D01*
X99058729Y-95343448D01*
X99022991Y-95372778D01*
X99022989Y-95372779D01*
X98866467Y-95456443D01*
X98809853Y-95473616D01*
X98696627Y-95507963D01*
X98630442Y-95514482D01*
X98564260Y-95521000D01*
X98475740Y-95521000D01*
X98409558Y-95514482D01*
X98343373Y-95507963D01*
X98230147Y-95473616D01*
X98173533Y-95456443D01*
X98017011Y-95372779D01*
X98017009Y-95372778D01*
X97981271Y-95343448D01*
X97879814Y-95260186D01*
X97796164Y-95158257D01*
X97767222Y-95122991D01*
X97714899Y-95025102D01*
X97683557Y-94966467D01*
X97656461Y-94877142D01*
X97632037Y-94796627D01*
X97614641Y-94620000D01*
X97632037Y-94443373D01*
X97683557Y-94273534D01*
X97683557Y-94273533D01*
X97767221Y-94117011D01*
X97767222Y-94117009D01*
X97796552Y-94081271D01*
X97879814Y-93979814D01*
X97981271Y-93896552D01*
X98017009Y-93867222D01*
X98092258Y-93827000D01*
X98173533Y-93783557D01*
X98230147Y-93766384D01*
X98343373Y-93732037D01*
X98409558Y-93725518D01*
X98475740Y-93719000D01*
X98564260Y-93719000D01*
X98630442Y-93725518D01*
X98630442Y-93725518D01*
G37*
G36*
X131630442Y-93725518D02*
X131696627Y-93732037D01*
X131809853Y-93766384D01*
X131866467Y-93783557D01*
X131947742Y-93827000D01*
X132022991Y-93867222D01*
X132058729Y-93896552D01*
X132160186Y-93979814D01*
X132243448Y-94081271D01*
X132272778Y-94117009D01*
X132272779Y-94117011D01*
X132356443Y-94273533D01*
X132356443Y-94273534D01*
X132407963Y-94443373D01*
X132425359Y-94620000D01*
X132407963Y-94796627D01*
X132383539Y-94877142D01*
X132356443Y-94966467D01*
X132325101Y-95025102D01*
X132272778Y-95122991D01*
X132243836Y-95158257D01*
X132160186Y-95260186D01*
X132058729Y-95343448D01*
X132022991Y-95372778D01*
X132022989Y-95372779D01*
X131866467Y-95456443D01*
X131809853Y-95473616D01*
X131696627Y-95507963D01*
X131630442Y-95514482D01*
X131564260Y-95521000D01*
X131475740Y-95521000D01*
X131409558Y-95514482D01*
X131343373Y-95507963D01*
X131230147Y-95473616D01*
X131173533Y-95456443D01*
X131017011Y-95372779D01*
X131017009Y-95372778D01*
X130981271Y-95343448D01*
X130879814Y-95260186D01*
X130796164Y-95158257D01*
X130767222Y-95122991D01*
X130714899Y-95025102D01*
X130683557Y-94966467D01*
X130656461Y-94877142D01*
X130632037Y-94796627D01*
X130614641Y-94620000D01*
X130632037Y-94443373D01*
X130683557Y-94273534D01*
X130683557Y-94273533D01*
X130767221Y-94117011D01*
X130767222Y-94117009D01*
X130796552Y-94081271D01*
X130879814Y-93979814D01*
X130981271Y-93896552D01*
X131017009Y-93867222D01*
X131092258Y-93827000D01*
X131173533Y-93783557D01*
X131230147Y-93766384D01*
X131343373Y-93732037D01*
X131409558Y-93725518D01*
X131475740Y-93719000D01*
X131564260Y-93719000D01*
X131630442Y-93725518D01*
X131630442Y-93725518D01*
G37*
G36*
X129090442Y-93725518D02*
X129156627Y-93732037D01*
X129269853Y-93766384D01*
X129326467Y-93783557D01*
X129407742Y-93827000D01*
X129482991Y-93867222D01*
X129518729Y-93896552D01*
X129620186Y-93979814D01*
X129703448Y-94081271D01*
X129732778Y-94117009D01*
X129732779Y-94117011D01*
X129816443Y-94273533D01*
X129816443Y-94273534D01*
X129867963Y-94443373D01*
X129885359Y-94620000D01*
X129867963Y-94796627D01*
X129843539Y-94877142D01*
X129816443Y-94966467D01*
X129785101Y-95025102D01*
X129732778Y-95122991D01*
X129703836Y-95158257D01*
X129620186Y-95260186D01*
X129518729Y-95343448D01*
X129482991Y-95372778D01*
X129482989Y-95372779D01*
X129326467Y-95456443D01*
X129269853Y-95473616D01*
X129156627Y-95507963D01*
X129090442Y-95514482D01*
X129024260Y-95521000D01*
X128935740Y-95521000D01*
X128869558Y-95514482D01*
X128803373Y-95507963D01*
X128690147Y-95473616D01*
X128633533Y-95456443D01*
X128477011Y-95372779D01*
X128477009Y-95372778D01*
X128441271Y-95343448D01*
X128339814Y-95260186D01*
X128256164Y-95158257D01*
X128227222Y-95122991D01*
X128174899Y-95025102D01*
X128143557Y-94966467D01*
X128116461Y-94877142D01*
X128092037Y-94796627D01*
X128074641Y-94620000D01*
X128092037Y-94443373D01*
X128143557Y-94273534D01*
X128143557Y-94273533D01*
X128227221Y-94117011D01*
X128227222Y-94117009D01*
X128256552Y-94081271D01*
X128339814Y-93979814D01*
X128441271Y-93896552D01*
X128477009Y-93867222D01*
X128552258Y-93827000D01*
X128633533Y-93783557D01*
X128690147Y-93766384D01*
X128803373Y-93732037D01*
X128869558Y-93725518D01*
X128935740Y-93719000D01*
X129024260Y-93719000D01*
X129090442Y-93725518D01*
X129090442Y-93725518D01*
G37*
G36*
X107667142Y-93858242D02*
X107815102Y-93919530D01*
X107882130Y-93964317D01*
X107905324Y-93979814D01*
X107948258Y-94008502D01*
X108061498Y-94121742D01*
X108150470Y-94254898D01*
X108211758Y-94402858D01*
X108243000Y-94559925D01*
X108243000Y-94720075D01*
X108211758Y-94877142D01*
X108150470Y-95025102D01*
X108061498Y-95158258D01*
X107948258Y-95271498D01*
X107815102Y-95360470D01*
X107667142Y-95421758D01*
X107510075Y-95453000D01*
X107349925Y-95453000D01*
X107192858Y-95421758D01*
X107044898Y-95360470D01*
X106911742Y-95271498D01*
X106798502Y-95158258D01*
X106709530Y-95025102D01*
X106648242Y-94877142D01*
X106617000Y-94720075D01*
X106617000Y-94559925D01*
X106648242Y-94402858D01*
X106709530Y-94254898D01*
X106798502Y-94121742D01*
X106911742Y-94008502D01*
X106954677Y-93979814D01*
X106977870Y-93964317D01*
X107044898Y-93919530D01*
X107192858Y-93858242D01*
X107349925Y-93827000D01*
X107510075Y-93827000D01*
X107667142Y-93858242D01*
X107667142Y-93858242D01*
G37*
G36*
X129090442Y-91185518D02*
X129156627Y-91192037D01*
X129269853Y-91226384D01*
X129326467Y-91243557D01*
X129407742Y-91287000D01*
X129482991Y-91327222D01*
X129518729Y-91356552D01*
X129620186Y-91439814D01*
X129703448Y-91541271D01*
X129732778Y-91577009D01*
X129732779Y-91577011D01*
X129816443Y-91733533D01*
X129816443Y-91733534D01*
X129867963Y-91903373D01*
X129885359Y-92080000D01*
X129867963Y-92256627D01*
X129843539Y-92337142D01*
X129816443Y-92426467D01*
X129785101Y-92485102D01*
X129732778Y-92582991D01*
X129709463Y-92611400D01*
X129620186Y-92720186D01*
X129518729Y-92803448D01*
X129482991Y-92832778D01*
X129482989Y-92832779D01*
X129326467Y-92916443D01*
X129269853Y-92933616D01*
X129156627Y-92967963D01*
X129090443Y-92974481D01*
X129024260Y-92981000D01*
X128935740Y-92981000D01*
X128869557Y-92974481D01*
X128803373Y-92967963D01*
X128690147Y-92933616D01*
X128633533Y-92916443D01*
X128477011Y-92832779D01*
X128477009Y-92832778D01*
X128441271Y-92803448D01*
X128339814Y-92720186D01*
X128250537Y-92611400D01*
X128227222Y-92582991D01*
X128174899Y-92485102D01*
X128143557Y-92426467D01*
X128116461Y-92337142D01*
X128092037Y-92256627D01*
X128074641Y-92080000D01*
X128092037Y-91903373D01*
X128143557Y-91733534D01*
X128143557Y-91733533D01*
X128227221Y-91577011D01*
X128227222Y-91577009D01*
X128256552Y-91541271D01*
X128339814Y-91439814D01*
X128441271Y-91356552D01*
X128477009Y-91327222D01*
X128552258Y-91287000D01*
X128633533Y-91243557D01*
X128690147Y-91226384D01*
X128803373Y-91192037D01*
X128869558Y-91185518D01*
X128935740Y-91179000D01*
X129024260Y-91179000D01*
X129090442Y-91185518D01*
X129090442Y-91185518D01*
G37*
G36*
X131630442Y-91185518D02*
X131696627Y-91192037D01*
X131809853Y-91226384D01*
X131866467Y-91243557D01*
X131947742Y-91287000D01*
X132022991Y-91327222D01*
X132058729Y-91356552D01*
X132160186Y-91439814D01*
X132243448Y-91541271D01*
X132272778Y-91577009D01*
X132272779Y-91577011D01*
X132356443Y-91733533D01*
X132356443Y-91733534D01*
X132407963Y-91903373D01*
X132425359Y-92080000D01*
X132407963Y-92256627D01*
X132383539Y-92337142D01*
X132356443Y-92426467D01*
X132325101Y-92485102D01*
X132272778Y-92582991D01*
X132249463Y-92611400D01*
X132160186Y-92720186D01*
X132058729Y-92803448D01*
X132022991Y-92832778D01*
X132022989Y-92832779D01*
X131866467Y-92916443D01*
X131809853Y-92933616D01*
X131696627Y-92967963D01*
X131630443Y-92974481D01*
X131564260Y-92981000D01*
X131475740Y-92981000D01*
X131409557Y-92974481D01*
X131343373Y-92967963D01*
X131230147Y-92933616D01*
X131173533Y-92916443D01*
X131017011Y-92832779D01*
X131017009Y-92832778D01*
X130981271Y-92803448D01*
X130879814Y-92720186D01*
X130790537Y-92611400D01*
X130767222Y-92582991D01*
X130714899Y-92485102D01*
X130683557Y-92426467D01*
X130656461Y-92337142D01*
X130632037Y-92256627D01*
X130614641Y-92080000D01*
X130632037Y-91903373D01*
X130683557Y-91733534D01*
X130683557Y-91733533D01*
X130767221Y-91577011D01*
X130767222Y-91577009D01*
X130796552Y-91541271D01*
X130879814Y-91439814D01*
X130981271Y-91356552D01*
X131017009Y-91327222D01*
X131092258Y-91287000D01*
X131173533Y-91243557D01*
X131230147Y-91226384D01*
X131343373Y-91192037D01*
X131409558Y-91185518D01*
X131475740Y-91179000D01*
X131564260Y-91179000D01*
X131630442Y-91185518D01*
X131630442Y-91185518D01*
G37*
G36*
X98630442Y-91185518D02*
X98696627Y-91192037D01*
X98809853Y-91226384D01*
X98866467Y-91243557D01*
X98947742Y-91287000D01*
X99022991Y-91327222D01*
X99058729Y-91356552D01*
X99160186Y-91439814D01*
X99243448Y-91541271D01*
X99272778Y-91577009D01*
X99272779Y-91577011D01*
X99356443Y-91733533D01*
X99356443Y-91733534D01*
X99407963Y-91903373D01*
X99425359Y-92080000D01*
X99407963Y-92256627D01*
X99383539Y-92337142D01*
X99356443Y-92426467D01*
X99325101Y-92485102D01*
X99272778Y-92582991D01*
X99249463Y-92611400D01*
X99160186Y-92720186D01*
X99058729Y-92803448D01*
X99022991Y-92832778D01*
X99022989Y-92832779D01*
X98866467Y-92916443D01*
X98809853Y-92933616D01*
X98696627Y-92967963D01*
X98630443Y-92974481D01*
X98564260Y-92981000D01*
X98475740Y-92981000D01*
X98409557Y-92974481D01*
X98343373Y-92967963D01*
X98230147Y-92933616D01*
X98173533Y-92916443D01*
X98017011Y-92832779D01*
X98017009Y-92832778D01*
X97981271Y-92803448D01*
X97879814Y-92720186D01*
X97790537Y-92611400D01*
X97767222Y-92582991D01*
X97714899Y-92485102D01*
X97683557Y-92426467D01*
X97656461Y-92337142D01*
X97632037Y-92256627D01*
X97614641Y-92080000D01*
X97632037Y-91903373D01*
X97683557Y-91733534D01*
X97683557Y-91733533D01*
X97767221Y-91577011D01*
X97767222Y-91577009D01*
X97796552Y-91541271D01*
X97879814Y-91439814D01*
X97981271Y-91356552D01*
X98017009Y-91327222D01*
X98092258Y-91287000D01*
X98173533Y-91243557D01*
X98230147Y-91226384D01*
X98343373Y-91192037D01*
X98409558Y-91185518D01*
X98475740Y-91179000D01*
X98564260Y-91179000D01*
X98630442Y-91185518D01*
X98630442Y-91185518D01*
G37*
G36*
X96090442Y-91185518D02*
X96156627Y-91192037D01*
X96269853Y-91226384D01*
X96326467Y-91243557D01*
X96407742Y-91287000D01*
X96482991Y-91327222D01*
X96518729Y-91356552D01*
X96620186Y-91439814D01*
X96703448Y-91541271D01*
X96732778Y-91577009D01*
X96732779Y-91577011D01*
X96816443Y-91733533D01*
X96816443Y-91733534D01*
X96867963Y-91903373D01*
X96885359Y-92080000D01*
X96867963Y-92256627D01*
X96843539Y-92337142D01*
X96816443Y-92426467D01*
X96785101Y-92485102D01*
X96732778Y-92582991D01*
X96709463Y-92611400D01*
X96620186Y-92720186D01*
X96518729Y-92803448D01*
X96482991Y-92832778D01*
X96482989Y-92832779D01*
X96326467Y-92916443D01*
X96269853Y-92933616D01*
X96156627Y-92967963D01*
X96090443Y-92974481D01*
X96024260Y-92981000D01*
X95935740Y-92981000D01*
X95869557Y-92974481D01*
X95803373Y-92967963D01*
X95690147Y-92933616D01*
X95633533Y-92916443D01*
X95477011Y-92832779D01*
X95477009Y-92832778D01*
X95441271Y-92803448D01*
X95339814Y-92720186D01*
X95250537Y-92611400D01*
X95227222Y-92582991D01*
X95174899Y-92485102D01*
X95143557Y-92426467D01*
X95116461Y-92337142D01*
X95092037Y-92256627D01*
X95074641Y-92080000D01*
X95092037Y-91903373D01*
X95143557Y-91733534D01*
X95143557Y-91733533D01*
X95227221Y-91577011D01*
X95227222Y-91577009D01*
X95256552Y-91541271D01*
X95339814Y-91439814D01*
X95441271Y-91356552D01*
X95477009Y-91327222D01*
X95552258Y-91287000D01*
X95633533Y-91243557D01*
X95690147Y-91226384D01*
X95803373Y-91192037D01*
X95869558Y-91185518D01*
X95935740Y-91179000D01*
X96024260Y-91179000D01*
X96090442Y-91185518D01*
X96090442Y-91185518D01*
G37*
G36*
X107667142Y-91318242D02*
X107815102Y-91379530D01*
X107882130Y-91424317D01*
X107905324Y-91439814D01*
X107948258Y-91468502D01*
X108061498Y-91581742D01*
X108150470Y-91714898D01*
X108211758Y-91862858D01*
X108243000Y-92019925D01*
X108243000Y-92180075D01*
X108211758Y-92337142D01*
X108174758Y-92426466D01*
X108150471Y-92485100D01*
X108066081Y-92611400D01*
X108061498Y-92618258D01*
X107948258Y-92731498D01*
X107815102Y-92820470D01*
X107667142Y-92881758D01*
X107510075Y-92913000D01*
X107349925Y-92913000D01*
X107192858Y-92881758D01*
X107044898Y-92820470D01*
X106911742Y-92731498D01*
X106798502Y-92618258D01*
X106793920Y-92611400D01*
X106709529Y-92485100D01*
X106685242Y-92426466D01*
X106648242Y-92337142D01*
X106617000Y-92180075D01*
X106617000Y-92019925D01*
X106648242Y-91862858D01*
X106709530Y-91714898D01*
X106798502Y-91581742D01*
X106911742Y-91468502D01*
X106954677Y-91439814D01*
X106977870Y-91424317D01*
X107044898Y-91379530D01*
X107192858Y-91318242D01*
X107349925Y-91287000D01*
X107510075Y-91287000D01*
X107667142Y-91318242D01*
X107667142Y-91318242D01*
G37*
G36*
X145271500Y-90811900D02*
X139669500Y-90811900D01*
X139669500Y-88709900D01*
X145271500Y-88709900D01*
X145271500Y-90811900D01*
X145271500Y-90811900D01*
G37*
G36*
X87271500Y-90811900D02*
X81669500Y-90811900D01*
X81669500Y-88709900D01*
X87271500Y-88709900D01*
X87271500Y-90811900D01*
X87271500Y-90811900D01*
G37*
G36*
X98630443Y-88645519D02*
X98696627Y-88652037D01*
X98809853Y-88686384D01*
X98866467Y-88703557D01*
X98947742Y-88747000D01*
X99022991Y-88787222D01*
X99058729Y-88816552D01*
X99160186Y-88899814D01*
X99243448Y-89001271D01*
X99272778Y-89037009D01*
X99272779Y-89037011D01*
X99356443Y-89193533D01*
X99356443Y-89193534D01*
X99407963Y-89363373D01*
X99425359Y-89540000D01*
X99407963Y-89716627D01*
X99383539Y-89797142D01*
X99356443Y-89886467D01*
X99325101Y-89945102D01*
X99272778Y-90042991D01*
X99243836Y-90078257D01*
X99160186Y-90180186D01*
X99058729Y-90263448D01*
X99022991Y-90292778D01*
X99022989Y-90292779D01*
X98866467Y-90376443D01*
X98809853Y-90393616D01*
X98696627Y-90427963D01*
X98630442Y-90434482D01*
X98564260Y-90441000D01*
X98475740Y-90441000D01*
X98409558Y-90434482D01*
X98343373Y-90427963D01*
X98230147Y-90393616D01*
X98173533Y-90376443D01*
X98017011Y-90292779D01*
X98017009Y-90292778D01*
X97981271Y-90263448D01*
X97879814Y-90180186D01*
X97796164Y-90078257D01*
X97767222Y-90042991D01*
X97714899Y-89945102D01*
X97683557Y-89886467D01*
X97656461Y-89797142D01*
X97632037Y-89716627D01*
X97614641Y-89540000D01*
X97632037Y-89363373D01*
X97683557Y-89193534D01*
X97683557Y-89193533D01*
X97767221Y-89037011D01*
X97767222Y-89037009D01*
X97796552Y-89001271D01*
X97879814Y-88899814D01*
X97981271Y-88816552D01*
X98017009Y-88787222D01*
X98092258Y-88747000D01*
X98173533Y-88703557D01*
X98230147Y-88686384D01*
X98343373Y-88652037D01*
X98409557Y-88645519D01*
X98475740Y-88639000D01*
X98564260Y-88639000D01*
X98630443Y-88645519D01*
X98630443Y-88645519D01*
G37*
G36*
X131630443Y-88645519D02*
X131696627Y-88652037D01*
X131809853Y-88686384D01*
X131866467Y-88703557D01*
X131947742Y-88747000D01*
X132022991Y-88787222D01*
X132058729Y-88816552D01*
X132160186Y-88899814D01*
X132243448Y-89001271D01*
X132272778Y-89037009D01*
X132272779Y-89037011D01*
X132356443Y-89193533D01*
X132356443Y-89193534D01*
X132407963Y-89363373D01*
X132425359Y-89540000D01*
X132407963Y-89716627D01*
X132383539Y-89797142D01*
X132356443Y-89886467D01*
X132325101Y-89945102D01*
X132272778Y-90042991D01*
X132243836Y-90078257D01*
X132160186Y-90180186D01*
X132058729Y-90263448D01*
X132022991Y-90292778D01*
X132022989Y-90292779D01*
X131866467Y-90376443D01*
X131809853Y-90393616D01*
X131696627Y-90427963D01*
X131630442Y-90434482D01*
X131564260Y-90441000D01*
X131475740Y-90441000D01*
X131409558Y-90434482D01*
X131343373Y-90427963D01*
X131230147Y-90393616D01*
X131173533Y-90376443D01*
X131017011Y-90292779D01*
X131017009Y-90292778D01*
X130981271Y-90263448D01*
X130879814Y-90180186D01*
X130796164Y-90078257D01*
X130767222Y-90042991D01*
X130714899Y-89945102D01*
X130683557Y-89886467D01*
X130656461Y-89797142D01*
X130632037Y-89716627D01*
X130614641Y-89540000D01*
X130632037Y-89363373D01*
X130683557Y-89193534D01*
X130683557Y-89193533D01*
X130767221Y-89037011D01*
X130767222Y-89037009D01*
X130796552Y-89001271D01*
X130879814Y-88899814D01*
X130981271Y-88816552D01*
X131017009Y-88787222D01*
X131092258Y-88747000D01*
X131173533Y-88703557D01*
X131230147Y-88686384D01*
X131343373Y-88652037D01*
X131409557Y-88645519D01*
X131475740Y-88639000D01*
X131564260Y-88639000D01*
X131630443Y-88645519D01*
X131630443Y-88645519D01*
G37*
G36*
X129090443Y-88645519D02*
X129156627Y-88652037D01*
X129269853Y-88686384D01*
X129326467Y-88703557D01*
X129407742Y-88747000D01*
X129482991Y-88787222D01*
X129518729Y-88816552D01*
X129620186Y-88899814D01*
X129703448Y-89001271D01*
X129732778Y-89037009D01*
X129732779Y-89037011D01*
X129816443Y-89193533D01*
X129816443Y-89193534D01*
X129867963Y-89363373D01*
X129885359Y-89540000D01*
X129867963Y-89716627D01*
X129843539Y-89797142D01*
X129816443Y-89886467D01*
X129785101Y-89945102D01*
X129732778Y-90042991D01*
X129703836Y-90078257D01*
X129620186Y-90180186D01*
X129518729Y-90263448D01*
X129482991Y-90292778D01*
X129482989Y-90292779D01*
X129326467Y-90376443D01*
X129269853Y-90393616D01*
X129156627Y-90427963D01*
X129090442Y-90434482D01*
X129024260Y-90441000D01*
X128935740Y-90441000D01*
X128869558Y-90434482D01*
X128803373Y-90427963D01*
X128690147Y-90393616D01*
X128633533Y-90376443D01*
X128477011Y-90292779D01*
X128477009Y-90292778D01*
X128441271Y-90263448D01*
X128339814Y-90180186D01*
X128256164Y-90078257D01*
X128227222Y-90042991D01*
X128174899Y-89945102D01*
X128143557Y-89886467D01*
X128116461Y-89797142D01*
X128092037Y-89716627D01*
X128074641Y-89540000D01*
X128092037Y-89363373D01*
X128143557Y-89193534D01*
X128143557Y-89193533D01*
X128227221Y-89037011D01*
X128227222Y-89037009D01*
X128256552Y-89001271D01*
X128339814Y-88899814D01*
X128441271Y-88816552D01*
X128477009Y-88787222D01*
X128552258Y-88747000D01*
X128633533Y-88703557D01*
X128690147Y-88686384D01*
X128803373Y-88652037D01*
X128869557Y-88645519D01*
X128935740Y-88639000D01*
X129024260Y-88639000D01*
X129090443Y-88645519D01*
X129090443Y-88645519D01*
G37*
G36*
X96090443Y-88645519D02*
X96156627Y-88652037D01*
X96269853Y-88686384D01*
X96326467Y-88703557D01*
X96407742Y-88747000D01*
X96482991Y-88787222D01*
X96518729Y-88816552D01*
X96620186Y-88899814D01*
X96703448Y-89001271D01*
X96732778Y-89037009D01*
X96732779Y-89037011D01*
X96816443Y-89193533D01*
X96816443Y-89193534D01*
X96867963Y-89363373D01*
X96885359Y-89540000D01*
X96867963Y-89716627D01*
X96843539Y-89797142D01*
X96816443Y-89886467D01*
X96785101Y-89945102D01*
X96732778Y-90042991D01*
X96703836Y-90078257D01*
X96620186Y-90180186D01*
X96518729Y-90263448D01*
X96482991Y-90292778D01*
X96482989Y-90292779D01*
X96326467Y-90376443D01*
X96269853Y-90393616D01*
X96156627Y-90427963D01*
X96090442Y-90434482D01*
X96024260Y-90441000D01*
X95935740Y-90441000D01*
X95869558Y-90434482D01*
X95803373Y-90427963D01*
X95690147Y-90393616D01*
X95633533Y-90376443D01*
X95477011Y-90292779D01*
X95477009Y-90292778D01*
X95441271Y-90263448D01*
X95339814Y-90180186D01*
X95256164Y-90078257D01*
X95227222Y-90042991D01*
X95174899Y-89945102D01*
X95143557Y-89886467D01*
X95116461Y-89797142D01*
X95092037Y-89716627D01*
X95074641Y-89540000D01*
X95092037Y-89363373D01*
X95143557Y-89193534D01*
X95143557Y-89193533D01*
X95227221Y-89037011D01*
X95227222Y-89037009D01*
X95256552Y-89001271D01*
X95339814Y-88899814D01*
X95441271Y-88816552D01*
X95477009Y-88787222D01*
X95552258Y-88747000D01*
X95633533Y-88703557D01*
X95690147Y-88686384D01*
X95803373Y-88652037D01*
X95869557Y-88645519D01*
X95935740Y-88639000D01*
X96024260Y-88639000D01*
X96090443Y-88645519D01*
X96090443Y-88645519D01*
G37*
G36*
X107667142Y-88778242D02*
X107815102Y-88839530D01*
X107882130Y-88884317D01*
X107905324Y-88899814D01*
X107948258Y-88928502D01*
X108061498Y-89041742D01*
X108150470Y-89174898D01*
X108211758Y-89322858D01*
X108243000Y-89479925D01*
X108243000Y-89640075D01*
X108211758Y-89797142D01*
X108150470Y-89945102D01*
X108061498Y-90078258D01*
X107948258Y-90191498D01*
X107815102Y-90280470D01*
X107667142Y-90341758D01*
X107510075Y-90373000D01*
X107349925Y-90373000D01*
X107192858Y-90341758D01*
X107044898Y-90280470D01*
X106911742Y-90191498D01*
X106798502Y-90078258D01*
X106709530Y-89945102D01*
X106648242Y-89797142D01*
X106617000Y-89640075D01*
X106617000Y-89479925D01*
X106648242Y-89322858D01*
X106709530Y-89174898D01*
X106798502Y-89041742D01*
X106911742Y-88928502D01*
X106954677Y-88899814D01*
X106977870Y-88884317D01*
X107044898Y-88839530D01*
X107192858Y-88778242D01*
X107349925Y-88747000D01*
X107510075Y-88747000D01*
X107667142Y-88778242D01*
X107667142Y-88778242D01*
G37*
G36*
X96090442Y-86105518D02*
X96156627Y-86112037D01*
X96269853Y-86146384D01*
X96326467Y-86163557D01*
X96407742Y-86207000D01*
X96482991Y-86247222D01*
X96518729Y-86276552D01*
X96620186Y-86359814D01*
X96703448Y-86461271D01*
X96732778Y-86497009D01*
X96732779Y-86497011D01*
X96816443Y-86653533D01*
X96816443Y-86653534D01*
X96867963Y-86823373D01*
X96885359Y-87000000D01*
X96867963Y-87176627D01*
X96843539Y-87257142D01*
X96816443Y-87346467D01*
X96785101Y-87405102D01*
X96732778Y-87502991D01*
X96703836Y-87538257D01*
X96620186Y-87640186D01*
X96518729Y-87723448D01*
X96482991Y-87752778D01*
X96482989Y-87752779D01*
X96326467Y-87836443D01*
X96269853Y-87853616D01*
X96156627Y-87887963D01*
X96090443Y-87894481D01*
X96024260Y-87901000D01*
X95935740Y-87901000D01*
X95869557Y-87894481D01*
X95803373Y-87887963D01*
X95690147Y-87853616D01*
X95633533Y-87836443D01*
X95477011Y-87752779D01*
X95477009Y-87752778D01*
X95441271Y-87723448D01*
X95339814Y-87640186D01*
X95256164Y-87538257D01*
X95227222Y-87502991D01*
X95174899Y-87405102D01*
X95143557Y-87346467D01*
X95116461Y-87257142D01*
X95092037Y-87176627D01*
X95074641Y-87000000D01*
X95092037Y-86823373D01*
X95143557Y-86653534D01*
X95143557Y-86653533D01*
X95227221Y-86497011D01*
X95227222Y-86497009D01*
X95256552Y-86461271D01*
X95339814Y-86359814D01*
X95441271Y-86276552D01*
X95477009Y-86247222D01*
X95552258Y-86207000D01*
X95633533Y-86163557D01*
X95690147Y-86146384D01*
X95803373Y-86112037D01*
X95869558Y-86105518D01*
X95935740Y-86099000D01*
X96024260Y-86099000D01*
X96090442Y-86105518D01*
X96090442Y-86105518D01*
G37*
G36*
X98630442Y-86105518D02*
X98696627Y-86112037D01*
X98809853Y-86146384D01*
X98866467Y-86163557D01*
X98947742Y-86207000D01*
X99022991Y-86247222D01*
X99058729Y-86276552D01*
X99160186Y-86359814D01*
X99243448Y-86461271D01*
X99272778Y-86497009D01*
X99272779Y-86497011D01*
X99356443Y-86653533D01*
X99356443Y-86653534D01*
X99407963Y-86823373D01*
X99425359Y-87000000D01*
X99407963Y-87176627D01*
X99383539Y-87257142D01*
X99356443Y-87346467D01*
X99325101Y-87405102D01*
X99272778Y-87502991D01*
X99243836Y-87538257D01*
X99160186Y-87640186D01*
X99058729Y-87723448D01*
X99022991Y-87752778D01*
X99022989Y-87752779D01*
X98866467Y-87836443D01*
X98809853Y-87853616D01*
X98696627Y-87887963D01*
X98630443Y-87894481D01*
X98564260Y-87901000D01*
X98475740Y-87901000D01*
X98409557Y-87894481D01*
X98343373Y-87887963D01*
X98230147Y-87853616D01*
X98173533Y-87836443D01*
X98017011Y-87752779D01*
X98017009Y-87752778D01*
X97981271Y-87723448D01*
X97879814Y-87640186D01*
X97796164Y-87538257D01*
X97767222Y-87502991D01*
X97714899Y-87405102D01*
X97683557Y-87346467D01*
X97656461Y-87257142D01*
X97632037Y-87176627D01*
X97614641Y-87000000D01*
X97632037Y-86823373D01*
X97683557Y-86653534D01*
X97683557Y-86653533D01*
X97767221Y-86497011D01*
X97767222Y-86497009D01*
X97796552Y-86461271D01*
X97879814Y-86359814D01*
X97981271Y-86276552D01*
X98017009Y-86247222D01*
X98092258Y-86207000D01*
X98173533Y-86163557D01*
X98230147Y-86146384D01*
X98343373Y-86112037D01*
X98409558Y-86105518D01*
X98475740Y-86099000D01*
X98564260Y-86099000D01*
X98630442Y-86105518D01*
X98630442Y-86105518D01*
G37*
G36*
X131630442Y-86105518D02*
X131696627Y-86112037D01*
X131809853Y-86146384D01*
X131866467Y-86163557D01*
X131947742Y-86207000D01*
X132022991Y-86247222D01*
X132058729Y-86276552D01*
X132160186Y-86359814D01*
X132243448Y-86461271D01*
X132272778Y-86497009D01*
X132272779Y-86497011D01*
X132356443Y-86653533D01*
X132356443Y-86653534D01*
X132407963Y-86823373D01*
X132425359Y-87000000D01*
X132407963Y-87176627D01*
X132383539Y-87257142D01*
X132356443Y-87346467D01*
X132325101Y-87405102D01*
X132272778Y-87502991D01*
X132243836Y-87538257D01*
X132160186Y-87640186D01*
X132058729Y-87723448D01*
X132022991Y-87752778D01*
X132022989Y-87752779D01*
X131866467Y-87836443D01*
X131809853Y-87853616D01*
X131696627Y-87887963D01*
X131630443Y-87894481D01*
X131564260Y-87901000D01*
X131475740Y-87901000D01*
X131409557Y-87894481D01*
X131343373Y-87887963D01*
X131230147Y-87853616D01*
X131173533Y-87836443D01*
X131017011Y-87752779D01*
X131017009Y-87752778D01*
X130981271Y-87723448D01*
X130879814Y-87640186D01*
X130796164Y-87538257D01*
X130767222Y-87502991D01*
X130714899Y-87405102D01*
X130683557Y-87346467D01*
X130656461Y-87257142D01*
X130632037Y-87176627D01*
X130614641Y-87000000D01*
X130632037Y-86823373D01*
X130683557Y-86653534D01*
X130683557Y-86653533D01*
X130767221Y-86497011D01*
X130767222Y-86497009D01*
X130796552Y-86461271D01*
X130879814Y-86359814D01*
X130981271Y-86276552D01*
X131017009Y-86247222D01*
X131092258Y-86207000D01*
X131173533Y-86163557D01*
X131230147Y-86146384D01*
X131343373Y-86112037D01*
X131409558Y-86105518D01*
X131475740Y-86099000D01*
X131564260Y-86099000D01*
X131630442Y-86105518D01*
X131630442Y-86105518D01*
G37*
G36*
X129090442Y-86105518D02*
X129156627Y-86112037D01*
X129269853Y-86146384D01*
X129326467Y-86163557D01*
X129407742Y-86207000D01*
X129482991Y-86247222D01*
X129518729Y-86276552D01*
X129620186Y-86359814D01*
X129703448Y-86461271D01*
X129732778Y-86497009D01*
X129732779Y-86497011D01*
X129816443Y-86653533D01*
X129816443Y-86653534D01*
X129867963Y-86823373D01*
X129885359Y-87000000D01*
X129867963Y-87176627D01*
X129843539Y-87257142D01*
X129816443Y-87346467D01*
X129785101Y-87405102D01*
X129732778Y-87502991D01*
X129703836Y-87538257D01*
X129620186Y-87640186D01*
X129518729Y-87723448D01*
X129482991Y-87752778D01*
X129482989Y-87752779D01*
X129326467Y-87836443D01*
X129269853Y-87853616D01*
X129156627Y-87887963D01*
X129090443Y-87894481D01*
X129024260Y-87901000D01*
X128935740Y-87901000D01*
X128869557Y-87894481D01*
X128803373Y-87887963D01*
X128690147Y-87853616D01*
X128633533Y-87836443D01*
X128477011Y-87752779D01*
X128477009Y-87752778D01*
X128441271Y-87723448D01*
X128339814Y-87640186D01*
X128256164Y-87538257D01*
X128227222Y-87502991D01*
X128174899Y-87405102D01*
X128143557Y-87346467D01*
X128116461Y-87257142D01*
X128092037Y-87176627D01*
X128074641Y-87000000D01*
X128092037Y-86823373D01*
X128143557Y-86653534D01*
X128143557Y-86653533D01*
X128227221Y-86497011D01*
X128227222Y-86497009D01*
X128256552Y-86461271D01*
X128339814Y-86359814D01*
X128441271Y-86276552D01*
X128477009Y-86247222D01*
X128552258Y-86207000D01*
X128633533Y-86163557D01*
X128690147Y-86146384D01*
X128803373Y-86112037D01*
X128869558Y-86105518D01*
X128935740Y-86099000D01*
X129024260Y-86099000D01*
X129090442Y-86105518D01*
X129090442Y-86105518D01*
G37*
G36*
X107667142Y-86238242D02*
X107815102Y-86299530D01*
X107882130Y-86344317D01*
X107905324Y-86359814D01*
X107948258Y-86388502D01*
X108061498Y-86501742D01*
X108150470Y-86634898D01*
X108211758Y-86782858D01*
X108243000Y-86939925D01*
X108243000Y-87100075D01*
X108211758Y-87257142D01*
X108150470Y-87405102D01*
X108061498Y-87538258D01*
X107948258Y-87651498D01*
X107815102Y-87740470D01*
X107667142Y-87801758D01*
X107510075Y-87833000D01*
X107349925Y-87833000D01*
X107192858Y-87801758D01*
X107044898Y-87740470D01*
X106911742Y-87651498D01*
X106798502Y-87538258D01*
X106709530Y-87405102D01*
X106648242Y-87257142D01*
X106617000Y-87100075D01*
X106617000Y-86939925D01*
X106648242Y-86782858D01*
X106709530Y-86634898D01*
X106798502Y-86501742D01*
X106911742Y-86388502D01*
X106954677Y-86359814D01*
X106977870Y-86344317D01*
X107044898Y-86299530D01*
X107192858Y-86238242D01*
X107349925Y-86207000D01*
X107510075Y-86207000D01*
X107667142Y-86238242D01*
X107667142Y-86238242D01*
G37*
G36*
X131630442Y-83565518D02*
X131696627Y-83572037D01*
X131809853Y-83606384D01*
X131866467Y-83623557D01*
X131947742Y-83667000D01*
X132022991Y-83707222D01*
X132058729Y-83736552D01*
X132160186Y-83819814D01*
X132243448Y-83921271D01*
X132272778Y-83957009D01*
X132272779Y-83957011D01*
X132356443Y-84113533D01*
X132356443Y-84113534D01*
X132407963Y-84283373D01*
X132425359Y-84460000D01*
X132407963Y-84636627D01*
X132383539Y-84717142D01*
X132356443Y-84806467D01*
X132325101Y-84865102D01*
X132272778Y-84962991D01*
X132243836Y-84998257D01*
X132160186Y-85100186D01*
X132058729Y-85183448D01*
X132022991Y-85212778D01*
X132022989Y-85212779D01*
X131866467Y-85296443D01*
X131809853Y-85313616D01*
X131696627Y-85347963D01*
X131630442Y-85354482D01*
X131564260Y-85361000D01*
X131475740Y-85361000D01*
X131409558Y-85354482D01*
X131343373Y-85347963D01*
X131230147Y-85313616D01*
X131173533Y-85296443D01*
X131017011Y-85212779D01*
X131017009Y-85212778D01*
X130981271Y-85183448D01*
X130879814Y-85100186D01*
X130796164Y-84998257D01*
X130767222Y-84962991D01*
X130714899Y-84865102D01*
X130683557Y-84806467D01*
X130656461Y-84717142D01*
X130632037Y-84636627D01*
X130614641Y-84460000D01*
X130632037Y-84283373D01*
X130683557Y-84113534D01*
X130683557Y-84113533D01*
X130767221Y-83957011D01*
X130767222Y-83957009D01*
X130796552Y-83921271D01*
X130879814Y-83819814D01*
X130981271Y-83736552D01*
X131017009Y-83707222D01*
X131092258Y-83667000D01*
X131173533Y-83623557D01*
X131230147Y-83606384D01*
X131343373Y-83572037D01*
X131409558Y-83565518D01*
X131475740Y-83559000D01*
X131564260Y-83559000D01*
X131630442Y-83565518D01*
X131630442Y-83565518D01*
G37*
G36*
X129090442Y-83565518D02*
X129156627Y-83572037D01*
X129269853Y-83606384D01*
X129326467Y-83623557D01*
X129407742Y-83667000D01*
X129482991Y-83707222D01*
X129518729Y-83736552D01*
X129620186Y-83819814D01*
X129703448Y-83921271D01*
X129732778Y-83957009D01*
X129732779Y-83957011D01*
X129816443Y-84113533D01*
X129816443Y-84113534D01*
X129867963Y-84283373D01*
X129885359Y-84460000D01*
X129867963Y-84636627D01*
X129843539Y-84717142D01*
X129816443Y-84806467D01*
X129785101Y-84865102D01*
X129732778Y-84962991D01*
X129703836Y-84998257D01*
X129620186Y-85100186D01*
X129518729Y-85183448D01*
X129482991Y-85212778D01*
X129482989Y-85212779D01*
X129326467Y-85296443D01*
X129269853Y-85313616D01*
X129156627Y-85347963D01*
X129090442Y-85354482D01*
X129024260Y-85361000D01*
X128935740Y-85361000D01*
X128869558Y-85354482D01*
X128803373Y-85347963D01*
X128690147Y-85313616D01*
X128633533Y-85296443D01*
X128477011Y-85212779D01*
X128477009Y-85212778D01*
X128441271Y-85183448D01*
X128339814Y-85100186D01*
X128256164Y-84998257D01*
X128227222Y-84962991D01*
X128174899Y-84865102D01*
X128143557Y-84806467D01*
X128116461Y-84717142D01*
X128092037Y-84636627D01*
X128074641Y-84460000D01*
X128092037Y-84283373D01*
X128143557Y-84113534D01*
X128143557Y-84113533D01*
X128227221Y-83957011D01*
X128227222Y-83957009D01*
X128256552Y-83921271D01*
X128339814Y-83819814D01*
X128441271Y-83736552D01*
X128477009Y-83707222D01*
X128552258Y-83667000D01*
X128633533Y-83623557D01*
X128690147Y-83606384D01*
X128803373Y-83572037D01*
X128869558Y-83565518D01*
X128935740Y-83559000D01*
X129024260Y-83559000D01*
X129090442Y-83565518D01*
X129090442Y-83565518D01*
G37*
G36*
X98630442Y-83565518D02*
X98696627Y-83572037D01*
X98809853Y-83606384D01*
X98866467Y-83623557D01*
X98947742Y-83667000D01*
X99022991Y-83707222D01*
X99058729Y-83736552D01*
X99160186Y-83819814D01*
X99243448Y-83921271D01*
X99272778Y-83957009D01*
X99272779Y-83957011D01*
X99356443Y-84113533D01*
X99356443Y-84113534D01*
X99407963Y-84283373D01*
X99425359Y-84460000D01*
X99407963Y-84636627D01*
X99383539Y-84717142D01*
X99356443Y-84806467D01*
X99325101Y-84865102D01*
X99272778Y-84962991D01*
X99243836Y-84998257D01*
X99160186Y-85100186D01*
X99058729Y-85183448D01*
X99022991Y-85212778D01*
X99022989Y-85212779D01*
X98866467Y-85296443D01*
X98809853Y-85313616D01*
X98696627Y-85347963D01*
X98630442Y-85354482D01*
X98564260Y-85361000D01*
X98475740Y-85361000D01*
X98409558Y-85354482D01*
X98343373Y-85347963D01*
X98230147Y-85313616D01*
X98173533Y-85296443D01*
X98017011Y-85212779D01*
X98017009Y-85212778D01*
X97981271Y-85183448D01*
X97879814Y-85100186D01*
X97796164Y-84998257D01*
X97767222Y-84962991D01*
X97714899Y-84865102D01*
X97683557Y-84806467D01*
X97656461Y-84717142D01*
X97632037Y-84636627D01*
X97614641Y-84460000D01*
X97632037Y-84283373D01*
X97683557Y-84113534D01*
X97683557Y-84113533D01*
X97767221Y-83957011D01*
X97767222Y-83957009D01*
X97796552Y-83921271D01*
X97879814Y-83819814D01*
X97981271Y-83736552D01*
X98017009Y-83707222D01*
X98092258Y-83667000D01*
X98173533Y-83623557D01*
X98230147Y-83606384D01*
X98343373Y-83572037D01*
X98409558Y-83565518D01*
X98475740Y-83559000D01*
X98564260Y-83559000D01*
X98630442Y-83565518D01*
X98630442Y-83565518D01*
G37*
G36*
X96090442Y-83565518D02*
X96156627Y-83572037D01*
X96269853Y-83606384D01*
X96326467Y-83623557D01*
X96407742Y-83667000D01*
X96482991Y-83707222D01*
X96518729Y-83736552D01*
X96620186Y-83819814D01*
X96703448Y-83921271D01*
X96732778Y-83957009D01*
X96732779Y-83957011D01*
X96816443Y-84113533D01*
X96816443Y-84113534D01*
X96867963Y-84283373D01*
X96885359Y-84460000D01*
X96867963Y-84636627D01*
X96843539Y-84717142D01*
X96816443Y-84806467D01*
X96785101Y-84865102D01*
X96732778Y-84962991D01*
X96703836Y-84998257D01*
X96620186Y-85100186D01*
X96518729Y-85183448D01*
X96482991Y-85212778D01*
X96482989Y-85212779D01*
X96326467Y-85296443D01*
X96269853Y-85313616D01*
X96156627Y-85347963D01*
X96090442Y-85354482D01*
X96024260Y-85361000D01*
X95935740Y-85361000D01*
X95869558Y-85354482D01*
X95803373Y-85347963D01*
X95690147Y-85313616D01*
X95633533Y-85296443D01*
X95477011Y-85212779D01*
X95477009Y-85212778D01*
X95441271Y-85183448D01*
X95339814Y-85100186D01*
X95256164Y-84998257D01*
X95227222Y-84962991D01*
X95174899Y-84865102D01*
X95143557Y-84806467D01*
X95116461Y-84717142D01*
X95092037Y-84636627D01*
X95074641Y-84460000D01*
X95092037Y-84283373D01*
X95143557Y-84113534D01*
X95143557Y-84113533D01*
X95227221Y-83957011D01*
X95227222Y-83957009D01*
X95256552Y-83921271D01*
X95339814Y-83819814D01*
X95441271Y-83736552D01*
X95477009Y-83707222D01*
X95552258Y-83667000D01*
X95633533Y-83623557D01*
X95690147Y-83606384D01*
X95803373Y-83572037D01*
X95869558Y-83565518D01*
X95935740Y-83559000D01*
X96024260Y-83559000D01*
X96090442Y-83565518D01*
X96090442Y-83565518D01*
G37*
G36*
X107667142Y-83698242D02*
X107815102Y-83759530D01*
X107882130Y-83804317D01*
X107905324Y-83819814D01*
X107948258Y-83848502D01*
X108061498Y-83961742D01*
X108150470Y-84094898D01*
X108211758Y-84242858D01*
X108243000Y-84399925D01*
X108243000Y-84560075D01*
X108211758Y-84717142D01*
X108150470Y-84865102D01*
X108061498Y-84998258D01*
X107948258Y-85111498D01*
X107815102Y-85200470D01*
X107667142Y-85261758D01*
X107510075Y-85293000D01*
X107349925Y-85293000D01*
X107192858Y-85261758D01*
X107044898Y-85200470D01*
X106911742Y-85111498D01*
X106798502Y-84998258D01*
X106709530Y-84865102D01*
X106648242Y-84717142D01*
X106617000Y-84560075D01*
X106617000Y-84399925D01*
X106648242Y-84242858D01*
X106709530Y-84094898D01*
X106798502Y-83961742D01*
X106911742Y-83848502D01*
X106954677Y-83819814D01*
X106977870Y-83804317D01*
X107044898Y-83759530D01*
X107192858Y-83698242D01*
X107349925Y-83667000D01*
X107510075Y-83667000D01*
X107667142Y-83698242D01*
X107667142Y-83698242D01*
G37*
G36*
X96881000Y-82821000D02*
X95079000Y-82821000D01*
X95079000Y-81019000D01*
X96881000Y-81019000D01*
X96881000Y-82821000D01*
X96881000Y-82821000D01*
G37*
G36*
X98630443Y-81025519D02*
X98696627Y-81032037D01*
X98809853Y-81066384D01*
X98866467Y-81083557D01*
X98947742Y-81127000D01*
X99022991Y-81167222D01*
X99058729Y-81196552D01*
X99160186Y-81279814D01*
X99243448Y-81381271D01*
X99272778Y-81417009D01*
X99272779Y-81417011D01*
X99356443Y-81573533D01*
X99356443Y-81573534D01*
X99407963Y-81743373D01*
X99425359Y-81920000D01*
X99407963Y-82096627D01*
X99383539Y-82177142D01*
X99356443Y-82266467D01*
X99325101Y-82325102D01*
X99272778Y-82422991D01*
X99243836Y-82458257D01*
X99160186Y-82560186D01*
X99058729Y-82643448D01*
X99022991Y-82672778D01*
X99022989Y-82672779D01*
X98866467Y-82756443D01*
X98809853Y-82773616D01*
X98696627Y-82807963D01*
X98630443Y-82814481D01*
X98564260Y-82821000D01*
X98475740Y-82821000D01*
X98409557Y-82814481D01*
X98343373Y-82807963D01*
X98230147Y-82773616D01*
X98173533Y-82756443D01*
X98017011Y-82672779D01*
X98017009Y-82672778D01*
X97981271Y-82643448D01*
X97879814Y-82560186D01*
X97796164Y-82458257D01*
X97767222Y-82422991D01*
X97714899Y-82325102D01*
X97683557Y-82266467D01*
X97656461Y-82177142D01*
X97632037Y-82096627D01*
X97614641Y-81920000D01*
X97632037Y-81743373D01*
X97683557Y-81573534D01*
X97683557Y-81573533D01*
X97767221Y-81417011D01*
X97767222Y-81417009D01*
X97796552Y-81381271D01*
X97879814Y-81279814D01*
X97981271Y-81196552D01*
X98017009Y-81167222D01*
X98092258Y-81127000D01*
X98173533Y-81083557D01*
X98230147Y-81066384D01*
X98343373Y-81032037D01*
X98409557Y-81025519D01*
X98475740Y-81019000D01*
X98564260Y-81019000D01*
X98630443Y-81025519D01*
X98630443Y-81025519D01*
G37*
G36*
X129881000Y-82821000D02*
X128079000Y-82821000D01*
X128079000Y-81019000D01*
X129881000Y-81019000D01*
X129881000Y-82821000D01*
X129881000Y-82821000D01*
G37*
G36*
X131630443Y-81025519D02*
X131696627Y-81032037D01*
X131809853Y-81066384D01*
X131866467Y-81083557D01*
X131947742Y-81127000D01*
X132022991Y-81167222D01*
X132058729Y-81196552D01*
X132160186Y-81279814D01*
X132243448Y-81381271D01*
X132272778Y-81417009D01*
X132272779Y-81417011D01*
X132356443Y-81573533D01*
X132356443Y-81573534D01*
X132407963Y-81743373D01*
X132425359Y-81920000D01*
X132407963Y-82096627D01*
X132383539Y-82177142D01*
X132356443Y-82266467D01*
X132325101Y-82325102D01*
X132272778Y-82422991D01*
X132243836Y-82458257D01*
X132160186Y-82560186D01*
X132058729Y-82643448D01*
X132022991Y-82672778D01*
X132022989Y-82672779D01*
X131866467Y-82756443D01*
X131809853Y-82773616D01*
X131696627Y-82807963D01*
X131630443Y-82814481D01*
X131564260Y-82821000D01*
X131475740Y-82821000D01*
X131409557Y-82814481D01*
X131343373Y-82807963D01*
X131230147Y-82773616D01*
X131173533Y-82756443D01*
X131017011Y-82672779D01*
X131017009Y-82672778D01*
X130981271Y-82643448D01*
X130879814Y-82560186D01*
X130796164Y-82458257D01*
X130767222Y-82422991D01*
X130714899Y-82325102D01*
X130683557Y-82266467D01*
X130656461Y-82177142D01*
X130632037Y-82096627D01*
X130614641Y-81920000D01*
X130632037Y-81743373D01*
X130683557Y-81573534D01*
X130683557Y-81573533D01*
X130767221Y-81417011D01*
X130767222Y-81417009D01*
X130796552Y-81381271D01*
X130879814Y-81279814D01*
X130981271Y-81196552D01*
X131017009Y-81167222D01*
X131092258Y-81127000D01*
X131173533Y-81083557D01*
X131230147Y-81066384D01*
X131343373Y-81032037D01*
X131409557Y-81025519D01*
X131475740Y-81019000D01*
X131564260Y-81019000D01*
X131630443Y-81025519D01*
X131630443Y-81025519D01*
G37*
G36*
X107667142Y-81158242D02*
X107815102Y-81219530D01*
X107882130Y-81264317D01*
X107905324Y-81279814D01*
X107948258Y-81308502D01*
X108061498Y-81421742D01*
X108150470Y-81554898D01*
X108211758Y-81702858D01*
X108243000Y-81859925D01*
X108243000Y-82020075D01*
X108211758Y-82177142D01*
X108150470Y-82325102D01*
X108061498Y-82458258D01*
X107948258Y-82571498D01*
X107815102Y-82660470D01*
X107667142Y-82721758D01*
X107510075Y-82753000D01*
X107349925Y-82753000D01*
X107192858Y-82721758D01*
X107044898Y-82660470D01*
X106911742Y-82571498D01*
X106798502Y-82458258D01*
X106709530Y-82325102D01*
X106648242Y-82177142D01*
X106617000Y-82020075D01*
X106617000Y-81859925D01*
X106648242Y-81702858D01*
X106709530Y-81554898D01*
X106798502Y-81421742D01*
X106911742Y-81308502D01*
X106954677Y-81279814D01*
X106977870Y-81264317D01*
X107044898Y-81219530D01*
X107192858Y-81158242D01*
X107349925Y-81127000D01*
X107510075Y-81127000D01*
X107667142Y-81158242D01*
X107667142Y-81158242D01*
G37*
G36*
X127091000Y-74461000D02*
X121989000Y-74461000D01*
X121989000Y-69359000D01*
X127091000Y-69359000D01*
X127091000Y-74461000D01*
X127091000Y-74461000D01*
G37*
G36*
X105091000Y-74461000D02*
X99989000Y-74461000D01*
X99989000Y-69359000D01*
X105091000Y-69359000D01*
X105091000Y-74461000D01*
X105091000Y-74461000D01*
G37*
G36*
X113731000Y-66941000D02*
X109229000Y-66941000D01*
X109229000Y-65039000D01*
X113731000Y-65039000D01*
X113731000Y-66941000D01*
X113731000Y-66941000D01*
G37*
G36*
X116466425Y-60952760D02*
X116466428Y-60952761D01*
X116466429Y-60952761D01*
X116645693Y-61007140D01*
X116645695Y-61007141D01*
X116810905Y-61095448D01*
X116955712Y-61214288D01*
X117074552Y-61359095D01*
X117074553Y-61359097D01*
X117162860Y-61524307D01*
X117194405Y-61628297D01*
X117217240Y-61703575D01*
X117231000Y-61843282D01*
X117231000Y-64136718D01*
X117217240Y-64276425D01*
X117162859Y-64455695D01*
X117074552Y-64620905D01*
X116955712Y-64765712D01*
X116810904Y-64884554D01*
X116645697Y-64972858D01*
X116645694Y-64972859D01*
X116645692Y-64972860D01*
X116466428Y-65027239D01*
X116466427Y-65027239D01*
X116466424Y-65027240D01*
X116280000Y-65045601D01*
X116093575Y-65027240D01*
X116093572Y-65027239D01*
X116093571Y-65027239D01*
X115914307Y-64972860D01*
X115749097Y-64884553D01*
X115749095Y-64884552D01*
X115604288Y-64765712D01*
X115485446Y-64620904D01*
X115397142Y-64455697D01*
X115342762Y-64276429D01*
X115342761Y-64276428D01*
X115342761Y-64276427D01*
X115342760Y-64276424D01*
X115329000Y-64136717D01*
X115329001Y-61843282D01*
X115342761Y-61703575D01*
X115365596Y-61628297D01*
X115397141Y-61524307D01*
X115485448Y-61359097D01*
X115485449Y-61359095D01*
X115604289Y-61214288D01*
X115749096Y-61095448D01*
X115914306Y-61007141D01*
X115914308Y-61007140D01*
X116093572Y-60952761D01*
X116093573Y-60952761D01*
X116093576Y-60952760D01*
X116280000Y-60934399D01*
X116466425Y-60952760D01*
X116466425Y-60952760D01*
G37*
G36*
X128441000Y-61661000D02*
X126739000Y-61661000D01*
X126739000Y-59959000D01*
X128441000Y-59959000D01*
X128441000Y-61661000D01*
X128441000Y-61661000D01*
G37*
G36*
X125338228Y-59991703D02*
X125493100Y-60055853D01*
X125632481Y-60148985D01*
X125751015Y-60267519D01*
X125844147Y-60406900D01*
X125908297Y-60561772D01*
X125941000Y-60726184D01*
X125941000Y-60893816D01*
X125908297Y-61058228D01*
X125844147Y-61213100D01*
X125751015Y-61352481D01*
X125632481Y-61471015D01*
X125493100Y-61564147D01*
X125338228Y-61628297D01*
X125173816Y-61661000D01*
X125006184Y-61661000D01*
X124841772Y-61628297D01*
X124686900Y-61564147D01*
X124547519Y-61471015D01*
X124428985Y-61352481D01*
X124335853Y-61213100D01*
X124271703Y-61058228D01*
X124239000Y-60893816D01*
X124239000Y-60726184D01*
X124271703Y-60561772D01*
X124335853Y-60406900D01*
X124428985Y-60267519D01*
X124547519Y-60148985D01*
X124686900Y-60055853D01*
X124841772Y-59991703D01*
X125006184Y-59959000D01*
X125173816Y-59959000D01*
X125338228Y-59991703D01*
X125338228Y-59991703D01*
G37*
G36*
X112766425Y-59252760D02*
X112766428Y-59252761D01*
X112766429Y-59252761D01*
X112945693Y-59307140D01*
X112945695Y-59307141D01*
X113110905Y-59395448D01*
X113255712Y-59514288D01*
X113374552Y-59659095D01*
X113374553Y-59659097D01*
X113462860Y-59824307D01*
X113513639Y-59991703D01*
X113517240Y-60003575D01*
X113535601Y-60190000D01*
X113517240Y-60376425D01*
X113517239Y-60376428D01*
X113517239Y-60376429D01*
X113491585Y-60461000D01*
X113462859Y-60555695D01*
X113374552Y-60720905D01*
X113255712Y-60865712D01*
X113110905Y-60984552D01*
X112945695Y-61072859D01*
X112945693Y-61072860D01*
X112766429Y-61127239D01*
X112766428Y-61127239D01*
X112766425Y-61127240D01*
X112626718Y-61141000D01*
X110333282Y-61141000D01*
X110193575Y-61127240D01*
X110193572Y-61127239D01*
X110193571Y-61127239D01*
X110014307Y-61072860D01*
X110014305Y-61072859D01*
X109849095Y-60984552D01*
X109704288Y-60865712D01*
X109585448Y-60720905D01*
X109497141Y-60555695D01*
X109468416Y-60461000D01*
X109442761Y-60376429D01*
X109442761Y-60376428D01*
X109442760Y-60376425D01*
X109424399Y-60190000D01*
X109442760Y-60003575D01*
X109446361Y-59991703D01*
X109497140Y-59824307D01*
X109585447Y-59659097D01*
X109585448Y-59659095D01*
X109704288Y-59514288D01*
X109849095Y-59395448D01*
X110014305Y-59307141D01*
X110014307Y-59307140D01*
X110193571Y-59252761D01*
X110193572Y-59252761D01*
X110193575Y-59252760D01*
X110333282Y-59239000D01*
X112626718Y-59239000D01*
X112766425Y-59252760D01*
X112766425Y-59252760D01*
G37*
G36*
X91091000Y-60461000D02*
X85989000Y-60461000D01*
X85989000Y-55359000D01*
X91091000Y-55359000D01*
X91091000Y-60461000D01*
X91091000Y-60461000D01*
G37*
G36*
X141091000Y-60461000D02*
X135989000Y-60461000D01*
X135989000Y-55359000D01*
X141091000Y-55359000D01*
X141091000Y-60461000D01*
X141091000Y-60461000D01*
G37*
M02*
