M48
;DRILL file {KiCad 5.0.2-bee76a0~70~ubuntu16.04.1} date ven 23 apr 2021 19:52:49 CEST
;FORMAT={-:-/ absolute / inch / decimal}
FMAT,2
INCH,TZ
T1C0.0157
T2C0.0295
T3C0.0300
T4C0.0315
T5C0.0394
T6C0.0433
T7C0.0512
T8C0.0591
T9C0.0787
T10C0.1181
%
G90
G05
T1
X3.2953Y-4.9016
X3.7165Y-4.8819
T2
X3.8772Y-5.0984
X4.1772Y-5.0984
T3
X4.2295Y-3.226
X4.2295Y-3.326
X4.2295Y-3.426
X4.2295Y-3.526
X4.2295Y-3.626
X4.2295Y-3.726
X4.2295Y-3.826
X4.2295Y-3.926
X4.2295Y-4.026
X4.2295Y-4.126
T4
X4.9248Y-2.3941
X5.0232Y-2.3941
X4.8984Y-5.1008
X4.8984Y-5.1992
T5
X5.4047Y-4.524
X5.4047Y-4.624
X5.4047Y-4.724
X5.078Y-3.2252
X5.078Y-3.3252
X5.078Y-3.4252
X5.078Y-3.5252
X5.078Y-3.6252
X5.078Y-3.7252
X5.078Y-3.8252
X5.078Y-3.9252
X5.078Y-4.0252
X5.078Y-4.1252
X5.178Y-3.2252
X5.178Y-3.3252
X5.178Y-3.4252
X5.178Y-3.5252
X5.178Y-3.6252
X5.178Y-3.7252
X5.178Y-3.8252
X5.178Y-3.9252
X5.178Y-4.0252
X5.178Y-4.1252
X5.4047Y-5.3382
X5.4047Y-5.4382
X5.4047Y-5.5382
X4.378Y-5.1055
X4.4764Y-5.1055
X3.7787Y-3.2252
X3.7787Y-3.3252
X3.7787Y-3.4252
X3.7787Y-3.5252
X3.7787Y-3.6252
X3.7787Y-3.7252
X3.7787Y-3.8252
X3.7787Y-3.9252
X3.7787Y-4.0252
X3.7787Y-4.1252
X3.8787Y-3.2252
X3.8787Y-3.3252
X3.8787Y-3.4252
X3.8787Y-3.5252
X3.8787Y-3.6252
X3.8787Y-3.7252
X3.8787Y-3.8252
X3.8787Y-3.9252
X3.8787Y-4.0252
X3.8787Y-4.1252
X3.5543Y-4.5272
X3.5543Y-4.6272
X3.5543Y-4.7272
T6
X4.3933Y-5.6461
X4.4933Y-5.6461
X4.5933Y-5.6461
T7
X3.2165Y-5.0276
X3.2165Y-5.5079
X3.4528Y-4.9488
X3.689Y-5.0276
X3.689Y-5.5079
T8
X4.1535Y-5.689
X4.8543Y-5.689
T10
X3.4858Y-2.2799
X3.4858Y-6.0201
X5.4543Y-2.2799
X5.4543Y-6.0201
X4.6823Y-3.2693
X4.6823Y-4.0803
T4
X4.3457Y-2.3697G85X4.4323Y-2.3697
G05
X4.3378Y-2.598G85X4.4402Y-2.598
G05
X4.578Y-2.4366G85X4.578Y-2.5232
G05
T9
X5.6685Y-3.4986G85X5.5504Y-3.4986
G05
X5.64Y-3.8154G85X5.64Y-3.6973
G05
X3.385Y-3.4986G85X3.2669Y-3.4986
G05
X3.3565Y-3.8154G85X3.3565Y-3.6973
G05
T10
X4.0173Y-2.8311G85X4.0567Y-2.8311
G05
X4.0173Y-4.6421G85X4.0567Y-4.6421
G05
X4.8835Y-2.8311G85X4.9228Y-2.8311
G05
X4.8835Y-4.6421G85X4.9228Y-4.6421
G05
T0
M30
